SplineFontDB: 3.0
FontName: NovaSquareSlim-BoldOblique
FullName: Nova Square Slim Bold Oblique
FamilyName: Nova Square Slim
Weight: Bold
Copyright: Copyright (c) 2020-2024 by Wojciech Kalinowski "wmk69" with Reserved Font Name "NovaSquareSlim-BoldOblique".\nThis Font Software is licensed under the SIL Open Font License, Version 1.1.
Version: 3.1.0; 2021-05-23
ItalicAngle: -12
UnderlinePosition: -80
UnderlineWidth: 320
Ascent: 1638
Descent: 410
InvalidEm: 0
LayerCount: 2
Layer: 0 1 "Warstwa t+AUIA-a" 1
Layer: 1 1 "Plan pierwszy" 0
XUID: [1021 783 23647091 8360855]
StyleMap: 0x0021
FSType: 0
OS2Version: 3
OS2_WeightWidthSlopeOnly: 0
OS2_UseTypoMetrics: 1
CreationTime: 1260698820
ModificationTime: 1621762589
PfmFamily: 33
TTFWeight: 700
TTFWidth: 5
LineGap: 200
VLineGap: 0
Panose: 2 12 8 4 5 5 3 13 2 4
OS2TypoAscent: 2000
OS2TypoAOffset: 0
OS2TypoDescent: -500
OS2TypoDOffset: 0
OS2TypoLinegap: 200
OS2WinAscent: 2000
OS2WinAOffset: 0
OS2WinDescent: 500
OS2WinDOffset: 0
HheadAscent: 2000
HheadAOffset: 0
HheadDescent: -500
HheadDOffset: 0
OS2SubXSize: 1434
OS2SubYSize: 1331
OS2SubXOff: 0
OS2SubYOff: 287
OS2SupXSize: 1434
OS2SupYSize: 1331
OS2SupXOff: 0
OS2SupYOff: 977
OS2StrikeYSize: 102
OS2StrikeYPos: 512
OS2CapHeight: 1530
OS2XHeight: 1120
OS2Vendor: '    '
OS2CodePages: 20000093.00000000
OS2UnicodeRanges: 8000002f.4000204b.00000000.00000000
Lookup: 258 0 0 "'kern' Horizontal Kerning lookup 0" { "'kern' Horizontal Kerning lookup 0-1 subtable" [307,0,4] } ['kern' ('DFLT' <'dflt' > 'grek' <'dflt' > 'latn' <'dflt' > ) ]
MarkAttachClasses: 1
DEI: 91125
KernClass2: 65 55 "'kern' Horizontal Kerning lookup 0-1 subtable"
 134 A M N Agrave Aacute Acircumflex Atilde Adieresis Aring Ntilde Amacron Abreve Aogonek Nacute Ncommaaccent Ncaron Eng Aringacute uni1E40
 28 B germandbls uni1E02 uni1E9E
 47 C Ccedilla Cacute Ccircumflex Cdotaccent Ccaron
 122 D O Q Eth Ograve Oacute Ocircumflex Otilde Odieresis Oslash Dcaron Dcroat Omacron Obreve Ohungarumlaut Oslashacute uni1E0A

StartChar: .notdef
Encoding: 65536 -1 0
Width: 1034
Flags: W
HStem: 0 118<323 761> 1392 118<594 1032>
VStem: 110 814<0 814> 431 814<696 1510>
DStem2: 110 0 297.918 0 0.207912 0.978148<159.707 1462.21> 735.918 0 924 0 0.207912 0.978148<120.636 1423.14>
LayerCount: 2
Fore
SplineSet
110 0 m 1,0,-1
 431 1510 l 1,1,-1
 1245 1510 l 1,2,-1
 924 0 l 1,3,-1
 110 0 l 1,0,-1
323 118 m 1,4,-1
 761 118 l 1,5,-1
 1032 1392 l 1,6,-1
 594 1392 l 1,7,-1
 323 118 l 1,4,-1
EndSplineSet
Validated: 1
EndChar

StartChar: exclam
Encoding: 33 33 4
Width: 640
GlyphClass: 2
Flags: W
HStem: -20 365<266.097 442.323> 1510 20G<748.605 805>
VStem: 170 635
DStem2: 155.789 -20 475.543 -20 0.207912 0.978148<641.036 1434.34>
LayerCount: 2
Fore
SplineSet
316 -20 m 0,0,1
 240 -20 240 -20 200 34 c 0,2,3
 170 73 170 73 170 123 c 0,4,5
 170 142 170 142 174 162 c 0,6,7
 190 238 190 238 254 291 c 0,8,9
 318 345 318 345 393 345 c 0,10,11
 469 345 469 345 510 292 c 0,12,13
 539 254 539 254 539 203 c 0,14,15
 539 184 539 184 535 163 c 0,16,17
 519 88 519 88 454.5 34 c 128,-1,18
 390 -20 390 -20 316 -20 c 0,0,1
795 1530 m 1,19,-1
 805 1530 l 1,20,-1
 595 542 l 1,21,-1
 254 395 l 1,22,-1
 244 395 l 1,23,-1
 454 1383 l 1,24,-1
 795 1530 l 1,19,-1
EndSplineSet
Validated: 1
EndChar

StartChar: quotedbl
Encoding: 34 34 5
Width: 510
GlyphClass: 2
Flags: W
HStem: 1100 480
VStem: 264 552
DStem2: 264 1100 443.783 1100 0.207912 0.978148<120.189 407.953> 534 1100 713.783 1100 0.207912 0.978148<120.189 407.953>
LayerCount: 2
Fore
SplineSet
806 1580 m 1,0,-1
 816 1580 l 1,1,-1
 731 1181 l 1,2,-1
 544 1100 l 1,3,-1
 534 1100 l 1,4,-1
 619 1499 l 1,5,-1
 806 1580 l 1,0,-1
536 1580 m 1,6,-1
 546 1580 l 1,7,-1
 461 1181 l 1,8,-1
 274 1100 l 1,9,-1
 264 1100 l 1,10,-1
 349 1499 l 1,11,-1
 536 1580 l 1,6,-1
EndSplineSet
Validated: 1
EndChar

StartChar: numbersign
Encoding: 35 35 6
Width: 1408
GlyphClass: 2
Flags: W
HStem: 460 180<326 506 724 918 1136 1316> 872 180<414 593 812 1005 1224 1403>
DStem2: 442 161 621.783 161 0.207912 0.978148<120.189 305.772 527.164 726.858 948.457 1132.85> 854 161 1033.78 161 0.207912 0.978148<120.189 305.772 527.164 726.858 948.457 1132.85>
LayerCount: 2
Fore
SplineSet
865 1350 m 1,0,-1
 875 1350 l 1,1,-1
 812 1052 l 1,2,-1
 1044 1052 l 1,3,-1
 1090 1269 l 1,4,-1
 1277 1350 l 1,5,-1
 1287 1350 l 1,6,-1
 1224 1052 l 1,7,-1
 1522 1052 l 1,8,-1
 1519 1042 l 1,9,-1
 1403 872 l 1,10,-1
 1185 872 l 1,11,-1
 1136 640 l 1,12,-1
 1434 640 l 1,13,-1
 1432 630 l 1,14,-1
 1316 460 l 1,15,-1
 1098 460 l 1,16,-1
 1051 242 l 1,17,-1
 864 161 l 1,18,-1
 854 161 l 1,19,-1
 918 460 l 1,20,-1
 686 460 l 1,21,-1
 639 242 l 1,22,-1
 452 161 l 1,23,-1
 442 161 l 1,24,-1
 506 460 l 1,25,-1
 208 460 l 1,26,-1
 210 470 l 1,27,-1
 326 640 l 1,28,-1
 544 640 l 1,29,-1
 593 872 l 1,30,-1
 295 872 l 1,31,-1
 297 882 l 1,32,-1
 414 1052 l 1,33,-1
 632 1052 l 1,34,-1
 678 1269 l 1,35,-1
 865 1350 l 1,0,-1
956 640 m 1,36,-1
 1005 872 l 1,37,-1
 773 872 l 1,38,-1
 724 640 l 1,39,-1
 956 640 l 1,36,-1
EndSplineSet
Validated: 1
EndChar

StartChar: dollar
Encoding: 36 36 7
Width: 1130
GlyphClass: 2
Flags: W
HStem: 0 150<395.797 493 645 789.158> 758 151<806 898.854>
VStem: 89 300<153.486 387.97> 962 296<1242.43 1366.39>
DStem2: 467 -120 587.16 -120 0.207912 0.978148<77.122 122.783 301.108 897.693 1077 1523.35 1691.48 1737.14> 734.368 -120 1064.08 -120 0.207912 0.978148<350.387 839.773>
LayerCount: 2
Fore
SplineSet
598 -69 m 1,0,-1
 477 -120 l 1,1,-1
 467 -120 l 1,2,-1
 493 0 l 1,3,-1
 450 0 l 2,4,5
 89 0 89 0 89 276 c 0,6,7
 89 325 89 325 101 383 c 1,8,-1
 448 533 l 1,9,-1
 458 533 l 1,10,-1
 391 217 l 2,11,12
 389 208 389 208 389 199 c 0,13,14
 389 150 389 150 457 150 c 2,15,-1
 525 150 l 1,16,-1
 654 758 l 1,17,18
 324 758 324 758 324 997 c 0,19,20
 324 1044 324 1044 336 1098 c 2,21,-1
 352 1170 l 2,22,23
 428 1510 428 1510 754 1510 c 2,24,-1
 814 1510 l 1,25,-1
 829 1579 l 1,26,-1
 949 1630 l 1,27,-1
 959 1630 l 1,28,-1
 934 1510 l 1,29,30
 1258 1510 1258 1510 1258 1265 c 0,31,32
 1258 1223 1258 1223 1248 1175 c 1,33,-1
 911 1029 l 1,34,-1
 901 1029 l 1,35,-1
 960 1308 l 2,36,37
 962 1317 962 1317 962 1324 c 0,38,39
 962 1366 962 1366 904 1370 c 1,40,-1
 806 909 l 1,41,-1
 843 909 l 2,42,43
 1215 909 1215 909 1215 638 c 0,44,45
 1215 586 1215 586 1202 526 c 2,46,-1
 1171 383 l 2,47,48
 1088 0 1088 0 710 0 c 2,49,-1
 613 0 l 1,50,-1
 598 -69 l 1,0,-1
686 909 m 1,51,-1
 784 1370 l 1,52,53
 713 1366 713 1366 700 1304 c 2,54,-1
 630 975 l 2,55,56
 628 966 628 966 628 957 c 0,57,58
 628 912 628 912 686 909 c 1,51,-1
774 758 m 1,59,-1
 645 150 l 1,60,-1
 712 150 l 2,61,62
 792 150 792 150 806 217 c 2,63,-1
 907 691 l 2,64,65
 909 700 909 700 909 709 c 0,66,67
 909 758 909 758 841 758 c 2,68,-1
 774 758 l 1,59,-1
EndSplineSet
Validated: 1
EndChar

StartChar: percent
Encoding: 37 37 8
Width: 1946
GlyphClass: 2
Flags: W
HStem: -20 21G<709.301 770.57> 0 103<1350.68 1647.1> 639 110<1445.9 1742.32> 761 110<524.68 821.096> 1407 103<619.904 916.32> 1510 20G<1496.42 1557.52>
VStem: 321 198<872.585 1127.64> 923 197<1151.34 1406.44> 1147 197<103.562 358.664> 1748 198<382.359 637.415>
DStem2: 105.69 -20 319.709 -20 0.207912 0.978148<998.676 1472.93> 534 93 757 -20 0.561853 0.827237<31.8155 1737.11> 629.585 -20 844.092 -20 0.207912 0.978148<934.298 1408.55> 1093.45 -20 1307.95 -20 0.207912 0.978148<220.675 694.929> 1617.83 -20 1831.85 -20 0.207912 0.978148<156.195 630.449>
LayerCount: 2
Fore
SplineSet
1587 103 m 2,0,1
 1644 103 1644 103 1656 159 c 2,2,-1
 1746 583 l 2,3,4
 1748 593 1748 593 1748 601 c 0,5,6
 1748 639 1748 639 1701 639 c 2,7,-1
 1505 639 l 2,8,9
 1448 639 1448 639 1436 583 c 2,10,-1
 1346 159 l 2,11,12
 1344 149 1344 149 1344 141 c 0,13,14
 1344 103 1344 103 1391 103 c 2,15,-1
 1587 103 l 2,0,1
680 1407 m 2,16,17
 623 1407 623 1407 611 1351 c 2,18,-1
 521 927 l 2,19,20
 519 917 519 917 519 909 c 0,21,22
 519 871 519 871 566 871 c 2,23,-1
 762 871 l 2,24,25
 819 871 819 871 831 927 c 2,26,-1
 921 1351 l 2,27,28
 923 1361 923 1361 923 1369 c 0,29,30
 923 1407 923 1407 876 1407 c 2,31,-1
 680 1407 l 2,16,17
1569 0 m 2,32,-1
 1395 0 l 2,33,34
 1147 0 1147 0 1147 193 c 0,35,36
 1147 232 1147 232 1157 279 c 2,37,-1
 1198 470 l 2,38,39
 1258 749 1258 749 1524 749 c 2,40,-1
 1698 749 l 2,41,42
 1946 749 1946 749 1946 556 c 0,43,44
 1946 517 1946 517 1936 470 c 2,45,-1
 1895 279 l 2,46,47
 1835 0 1835 0 1569 0 c 2,32,-1
698 1510 m 2,48,-1
 872 1510 l 2,49,50
 1120 1510 1120 1510 1120 1317 c 0,51,52
 1120 1278 1120 1278 1110 1231 c 2,53,-1
 1069 1040 l 2,54,55
 1009 761 1009 761 743 761 c 2,56,-1
 569 761 l 2,57,58
 321 761 321 761 321 954 c 0,59,60
 321 993 321 993 331 1040 c 2,61,-1
 372 1231 l 2,62,63
 432 1510 432 1510 698 1510 c 2,48,-1
747 -20 m 1,64,-1
 534 93 l 1,65,-1
 1510 1530 l 1,66,-1
 1520 1530 l 1,67,-1
 1732 1417 l 1,68,-1
 757 -20 l 1,69,-1
 747 -20 l 1,64,-1
EndSplineSet
Validated: 1
EndChar

StartChar: ampersand
Encoding: 38 38 9
Width: 1692
GlyphClass: 2
Flags: W
HStem: -20 21G<1263.47 1333.46> 0 150<490.746 1035.95> 1370 140<801.667 1080.41>
VStem: 178 307<151.395 421.938> 1086 295<1179.95 1367.11>
DStem2: 105.615 -20 435.774 -20 0.207912 0.978148<299.295 831.236> 1044 900 752 750 0.561425 -0.827528<0 434.898 723.053 892.137>
LayerCount: 2
Fore
SplineSet
584 679 m 2,0,-1
 487 221 l 2,1,2
 485 209 485 209 485 200 c 0,3,4
 485 150 485 150 549 150 c 2,5,-1
 877 150 l 2,6,7
 996 150 996 150 1100 239 c 1,8,-1
 752 750 l 1,9,-1
 675 750 l 2,10,11
 599 750 599 750 584 679 c 2,0,-1
546 0 m 2,12,13
 178 0 178 0 178 269 c 0,14,15
 178 320 178 320 190 377 c 2,16,-1
 234 585 l 2,17,18
 279 796 279 796 438 886 c 1,19,20
 418 930 418 930 418 986 c 0,21,22
 418 1023 418 1023 427 1067 c 2,23,-1
 447 1164 l 2,24,25
 518 1510 518 1510 904 1510 c 2,26,-1
 1015 1510 l 2,27,28
 1381 1510 1381 1510 1381 1243 c 0,29,30
 1381 1217 1381 1217 1377 1188 c 1,31,-1
 1040 1043 l 1,32,-1
 1030 1043 l 1,33,-1
 1084 1299 l 2,34,35
 1086 1308 1086 1308 1086 1319 c 0,36,37
 1086 1370 1086 1370 1018 1370 c 2,38,-1
 882 1370 l 2,39,40
 801 1370 801 1370 786 1299 c 2,41,-1
 717 976 l 2,42,43
 714 962 714 962 714 953 c 0,44,45
 714 900 714 900 783 900 c 2,46,-1
 1044 900 l 1,47,-1
 1288 540 l 1,48,49
 1374 732 1374 732 1391 851 c 1,50,-1
 1738 1000 l 1,51,-1
 1748 1000 l 1,52,53
 1667 615 1667 615 1423 340 c 1,54,-1
 1582 107 l 1,55,-1
 1287 -20 l 1,56,-1
 1277 -20 l 1,57,-1
 1183 119 l 1,58,59
 1004 0 1004 0 875 0 c 2,60,-1
 546 0 l 2,12,13
EndSplineSet
Validated: 1
EndChar

StartChar: quotesingle
Encoding: 39 39 10
Width: 240
GlyphClass: 2
Flags: W
HStem: 1100 480
VStem: 264 282
DStem2: 264 1100 443.783 1100 0.207912 0.978148<120.189 407.953>
LayerCount: 2
Fore
SplineSet
536 1580 m 1,0,-1
 546 1580 l 1,1,-1
 461 1181 l 1,2,-1
 274 1100 l 1,3,-1
 264 1100 l 1,4,-1
 349 1499 l 1,5,-1
 536 1580 l 1,0,-1
EndSplineSet
Validated: 1
EndChar

StartChar: parenleft
Encoding: 40 40 11
Width: 756
GlyphClass: 2
Flags: W
HStem: -240 150<482.698 675> 1600 150<821.672 1066>
DStem2: 109.229 -240 429.025 -240 0.207912 0.978148<280.908 1876.42>
LayerCount: 2
Fore
SplineSet
675 -240 m 1,0,-1
 549 -240 l 2,1,2
 178 -240 178 -240 178 31 c 0,3,4
 178 81 178 81 190 140 c 2,5,-1
 451 1370 l 2,6,7
 532 1750 532 1750 912 1750 c 2,8,-1
 1098 1750 l 1,9,-1
 1066 1600 l 1,10,-1
 900 1600 l 2,11,12
 820 1600 820 1600 805 1529 c 2,13,-1
 476 -19 l 2,14,15
 474 -30 474 -30 474 -40 c 0,16,17
 474 -90 474 -90 541 -90 c 2,18,-1
 707 -90 l 1,19,-1
 675 -240 l 1,0,-1
EndSplineSet
Validated: 1
EndChar

StartChar: parenright
Encoding: 41 41 12
Width: 756
GlyphClass: 2
Flags: W
HStem: -240 150<11 255.328> 1600 150<402 594.302>
VStem: 603 296<1333.53 1597.9>
DStem2: 225.025 -240 545.229 -240 0.207912 0.978148<224.52 1820.03>
LayerCount: 2
Fore
SplineSet
-21 -240 m 1,0,-1
 11 -90 l 1,1,-1
 177 -90 l 2,2,3
 257 -90 257 -90 272 -19 c 2,4,-1
 601 1529 l 2,5,6
 603 1540 603 1540 603 1550 c 0,7,8
 603 1600 603 1600 536 1600 c 2,9,-1
 370 1600 l 1,10,-1
 402 1750 l 1,11,-1
 528 1750 l 2,12,13
 899 1750 899 1750 899 1479 c 0,14,15
 899 1429 899 1429 887 1370 c 2,16,-1
 626 140 l 2,17,18
 545 -240 545 -240 165 -240 c 2,19,-1
 -21 -240 l 1,0,-1
EndSplineSet
Validated: 1
EndChar

StartChar: asterisk
Encoding: 42 42 13
Width: 790
GlyphClass: 2
Flags: W
DStem2: 264 1103 400 988 0.889369 0.457191<68.3772 213.28 574.709 719.612>
LayerCount: 2
Fore
SplineSet
811 1580 m 1,0,-1
 821 1580 l 1,1,-1
 775 1366 l 1,2,-1
 904 1432 l 1,3,-1
 1037 1326 l 1,4,-1
 1040 1317 l 1,5,-1
 832 1210 l 1,6,-1
 994 1103 l 1,7,-1
 988 1094 l 1,8,-1
 810 988 l 1,9,-1
 709 1054 l 1,10,-1
 681 921 l 1,11,-1
 494 840 l 1,12,-1
 484 840 l 1,13,-1
 529 1054 l 1,14,-1
 400 988 l 1,15,-1
 268 1094 l 1,16,-1
 264 1103 l 1,17,-1
 472 1210 l 1,18,-1
 310 1317 l 1,19,-1
 317 1326 l 1,20,-1
 494 1432 l 1,21,-1
 595 1366 l 1,22,-1
 624 1499 l 1,23,-1
 811 1580 l 1,0,-1
EndSplineSet
Validated: 1
EndChar

StartChar: plus
Encoding: 43 43 14
Width: 1240
GlyphClass: 2
Flags: W
HStem: 620 270<424 617 944 1137>
DStem2: 537 245 807.43 245 0.207912 0.978148<184.018 383.438 715.525 914.945>
LayerCount: 2
Fore
SplineSet
1014 1265 m 1,0,-1
 1024 1265 l 1,1,-1
 944 890 l 1,2,-1
 1319 890 l 1,3,-1
 1317 880 l 1,4,-1
 1137 620 l 1,5,-1
 887 620 l 1,6,-1
 834 370 l 1,7,-1
 547 245 l 1,8,-1
 537 245 l 1,9,-1
 617 620 l 1,10,-1
 242 620 l 1,11,-1
 244 630 l 1,12,-1
 424 890 l 1,13,-1
 674 890 l 1,14,-1
 727 1140 l 1,15,-1
 1014 1265 l 1,0,-1
EndSplineSet
Validated: 1
EndChar

StartChar: comma
Encoding: 44 44 15
Width: 496
GlyphClass: 2
Flags: W
HStem: -328 666
VStem: 203 283<-42.5039 147.058>
LayerCount: 2
Fore
SplineSet
75 212 m 1,0,-1
 371 338 l 1,1,-1
 381 338 l 1,2,3
 486 259 486 259 486 132 c 0,4,5
 486 95 486 95 477 54 c 0,6,7
 422 -203 422 -203 60 -328 c 1,8,-1
 55 -321 l 1,9,10
 166 -172 166 -172 197 -24 c 0,11,12
 203 3 203 3 203 28 c 0,13,14
 203 146 203 146 75 212 c 1,0,-1
EndSplineSet
Validated: 1
EndChar

StartChar: hyphen
Encoding: 45 45 16
Width: 1240
GlyphClass: 2
Flags: W
HStem: 620 270<424 1137>
LayerCount: 2
Fore
SplineSet
424 890 m 1,0,-1
 1319 890 l 1,1,-1
 1317 880 l 1,2,-1
 1137 620 l 1,3,-1
 242 620 l 1,4,-1
 244 630 l 1,5,-1
 424 890 l 1,0,-1
EndSplineSet
Validated: 1
EndChar

StartChar: period
Encoding: 46 46 17
Width: 420
GlyphClass: 2
Flags: W
HStem: -20 365<156.097 332.323>
VStem: 60 369<75.75 249.936>
LayerCount: 2
Fore
SplineSet
206 -20 m 0,0,1
 130 -20 130 -20 90 34 c 0,2,3
 60 73 60 73 60 123 c 0,4,5
 60 142 60 142 64 162 c 0,6,7
 80 238 80 238 144 291 c 0,8,9
 208 345 208 345 283 345 c 0,10,11
 359 345 359 345 400 292 c 0,12,13
 429 254 429 254 429 203 c 0,14,15
 429 184 429 184 425 163 c 0,16,17
 409 88 409 88 344.5 34 c 128,-1,18
 280 -20 280 -20 206 -20 c 0,0,1
EndSplineSet
Validated: 1
EndChar

StartChar: slash
Encoding: 47 47 18
Width: 1105
GlyphClass: 2
Flags: W
DStem2: -8 -87 214 -200 0.561693 0.827346<31.2057 2172.01>
LayerCount: 2
Fore
SplineSet
204 -200 m 1,0,-1
 -8 -87 l 1,1,-1
 1212 1710 l 1,2,-1
 1222 1710 l 1,3,-1
 1434 1597 l 1,4,-1
 214 -200 l 1,5,-1
 204 -200 l 1,0,-1
EndSplineSet
Validated: 1
EndChar

StartChar: zero
Encoding: 48 48 19
Width: 1370
GlyphClass: 2
Flags: W
HStem: 0 150<504.296 949.548> 1360 150<741.452 1186.7>
VStem: 189 306<152.098 418.203> 1196 306<1091.8 1357.9>
DStem2: 120.229 0 450.025 0 0.207912 0.978148<280.908 1385.7> 920.025 0 1250.23 0 0.207912 0.978148<226.599 1331.39>
LayerCount: 2
Fore
SplineSet
562 150 m 2,0,-1
 872 150 l 2,1,2
 952 150 952 150 967 221 c 2,3,-1
 1194 1289 l 2,4,5
 1196 1300 1196 1300 1196 1310 c 0,6,7
 1196 1360 1196 1360 1129 1360 c 2,8,-1
 819 1360 l 2,9,10
 739 1360 739 1360 724 1289 c 2,11,-1
 497 221 l 2,12,13
 495 210 495 210 495 200 c 0,14,15
 495 150 495 150 562 150 c 2,0,-1
560 0 m 2,16,17
 189 0 189 0 189 271 c 0,18,19
 189 321 189 321 201 380 c 2,20,-1
 360 1130 l 2,21,22
 441 1510 441 1510 821 1510 c 2,23,-1
 1131 1510 l 2,24,25
 1502 1510 1502 1510 1502 1239 c 0,26,27
 1502 1189 1502 1189 1490 1130 c 2,28,-1
 1331 380 l 2,29,30
 1250 0 1250 0 870 0 c 2,31,-1
 560 0 l 2,16,17
EndSplineSet
Validated: 1
EndChar

StartChar: one
Encoding: 49 49 20
Width: 794
GlyphClass: 2
Flags: W
HStem: -20 21G<260 316.395> 1117 21G<261.267 307.857> 1510 20G<852.612 909>
VStem: 260 649
DStem2: 260 -20 579.754 -20 0.207912 0.978148<216.765 1269.75> 289 1267 257 1117 0.918286 0.395917<0 197.981>
LayerCount: 2
Fore
SplineSet
270 -20 m 1,0,-1
 260 -20 l 1,1,-1
 524 1222 l 1,2,-1
 257 1117 l 1,3,-1
 289 1267 l 1,4,-1
 899 1530 l 1,5,-1
 909 1530 l 1,6,-1
 611 127 l 1,7,-1
 270 -20 l 1,0,-1
EndSplineSet
Validated: 1
EndChar

StartChar: two
Encoding: 50 50 21
Width: 1273
GlyphClass: 2
Flags: W
HStem: 0 300<526 1047> 1360 150<700.672 1106.85>
VStem: 1116 307<1089.36 1357.9>
DStem2: 256 323 526 300 0.86366 0.504075<221.594 829.141> 839.956 0 1169.62 0 0.207912 0.978148<886.62 1331.62>
LayerCount: 2
Fore
SplineSet
40 0 m 1,0,-1
 42 10 l 1,1,-1
 256 323 l 1,2,-1
 782 630 l 2,3,4
 1001 758 1001 758 1054 1007 c 2,5,-1
 1114 1289 l 2,6,7
 1116 1300 1116 1300 1116 1310 c 0,8,9
 1116 1360 1116 1360 1049 1360 c 2,10,-1
 779 1360 l 2,11,12
 699 1360 699 1360 684 1289 c 2,13,-1
 644 1100 l 1,14,-1
 302 952 l 1,15,-1
 292 952 l 1,16,-1
 330 1130 l 2,17,18
 411 1510 411 1510 791 1510 c 2,19,-1
 1051 1510 l 2,20,21
 1423 1510 1423 1510 1423 1239 c 0,22,23
 1423 1189 1423 1189 1410 1130 c 2,24,-1
 1386 1018 l 2,25,26
 1324 730 1324 730 990 550 c 2,27,-1
 526 300 l 1,28,-1
 1247 300 l 1,29,-1
 1245 290 l 1,30,-1
 1047 0 l 1,31,-1
 40 0 l 1,0,-1
EndSplineSet
Validated: 1
EndChar

StartChar: three
Encoding: 51 51 22
Width: 1221
GlyphClass: 2
Flags: W
HStem: 0 150<436.797 840.743> 1360 150<551 973>
VStem: 130 301<154.629 396.111> 978 307<577.141 843.929>
DStem2: 811.025 0 1141.23 0 0.207912 0.978148<226.693 814.852>
LayerCount: 2
Fore
SplineSet
491 0 m 2,0,1
 130 0 130 0 130 280 c 0,2,3
 130 331 130 331 143 392 c 1,4,-1
 491 543 l 1,5,-1
 501 543 l 1,6,-1
 433 221 l 2,7,8
 431 212 431 212 431 200 c 0,9,10
 431 150 431 150 498 150 c 2,11,-1
 763 150 l 2,12,13
 843 150 843 150 858 221 c 2,14,-1
 976 777 l 2,15,16
 978 786 978 786 978 798 c 0,17,18
 978 848 978 848 911 848 c 2,19,-1
 702 848 l 1,20,-1
 647 930 l 1,21,-1
 973 1360 l 1,22,-1
 452 1360 l 1,23,-1
 454 1370 l 1,24,-1
 551 1510 l 1,25,-1
 1451 1510 l 1,26,-1
 1034 993 l 1,27,28
 1285 963 1285 963 1285 734 c 0,29,30
 1285 680 1285 680 1272 618 c 2,31,-1
 1222 380 l 2,32,33
 1142 0 1142 0 761 0 c 2,34,-1
 491 0 l 2,0,1
EndSplineSet
Validated: 1
EndChar

StartChar: four
Encoding: 52 52 23
Width: 1317
GlyphClass: 2
Flags: W
HStem: -20 21G<783 839.395> 304 150<407 852 1204 1255> 1510 20G<1375.51 1432>
DStem2: 77 314 407 454 0.680769 0.732499<327.203 1235.03> 783 -20 1102.75 -20 0.207912 0.978148<216.765 331.266 551.173 1164.42>
LayerCount: 2
Fore
SplineSet
407 454 m 1,0,-1
 884 454 l 1,1,-1
 1025 1119 l 1,2,-1
 407 454 l 1,0,-1
793 -20 m 1,3,-1
 783 -20 l 1,4,-1
 852 304 l 1,5,-1
 75 304 l 1,6,-1
 77 314 l 1,7,-1
 1064 1376 l 1,8,-1
 1422 1530 l 1,9,-1
 1432 1530 l 1,10,-1
 1204 454 l 1,11,-1
 1354 454 l 1,12,-1
 1351 444 l 1,13,-1
 1255 304 l 1,14,-1
 1172 304 l 1,15,-1
 1134 127 l 1,16,-1
 793 -20 l 1,3,-1
EndSplineSet
Validated: 1
EndChar

StartChar: five
Encoding: 53 53 24
Width: 1221
GlyphClass: 2
Flags: W
HStem: 0 150<436.797 840.743> 848 150<695 968.704> 1360 150<872 1317>
VStem: 130 301<154.629 396.111> 978 306<577.141 845.621>
DStem2: 332 902 695 998 0.423212 0.906031<240.605 643.496> 811.025 0 1141.23 0 0.207912 0.978148<226.693 806.911>
LayerCount: 2
Fore
SplineSet
491 0 m 2,0,1
 130 0 130 0 130 280 c 0,2,3
 130 331 130 331 143 392 c 1,4,-1
 491 543 l 1,5,-1
 501 543 l 1,6,-1
 433 221 l 2,7,8
 431 212 431 212 431 200 c 0,9,10
 431 150 431 150 498 150 c 2,11,-1
 763 150 l 2,12,13
 843 150 843 150 858 221 c 2,14,-1
 976 777 l 2,15,16
 978 786 978 786 978 798 c 0,17,18
 978 848 978 848 911 848 c 2,19,-1
 669 848 l 2,20,21
 603 848 603 848 588 777 c 1,22,-1
 332 902 l 1,23,-1
 616 1510 l 1,24,-1
 1416 1510 l 1,25,-1
 1414 1500 l 1,26,-1
 1317 1360 l 1,27,-1
 872 1360 l 1,28,-1
 695 998 l 1,29,-1
 913 998 l 2,30,31
 1284 998 1284 998 1284 726 c 0,32,33
 1284 675 1284 675 1272 618 c 2,34,-1
 1222 380 l 2,35,36
 1142 0 1142 0 761 0 c 2,37,-1
 491 0 l 2,0,1
EndSplineSet
Validated: 1
EndChar

StartChar: six
Encoding: 54 54 25
Width: 1320
GlyphClass: 2
Flags: W
HStem: 0 150<493.698 909.548> 780 150<637.468 1024> 1360 150<730.672 1165.44>
VStem: 189 296<152.098 417.203> 1033 308<509.344 775.866> 1166 285<1113.4 1355.37>
DStem2: 120.229 0 440.025 0 0.207912 0.978148<280.968 868.773 1007.13 1385.7> 880.025 0 1210.23 0 0.207912 0.978148<226.599 742.854 1209.58 1320.27>
LayerCount: 2
Fore
SplineSet
1031 709 m 2,0,1
 1033 720 1033 720 1033 730 c 0,2,3
 1033 780 1033 780 966 780 c 2,4,-1
 686 780 l 2,5,6
 606 780 606 780 591 709 c 2,7,-1
 487 221 l 2,8,9
 485 210 485 210 485 200 c 0,10,11
 485 150 485 150 552 150 c 2,12,-1
 832 150 l 2,13,14
 912 150 912 150 927 221 c 2,15,-1
 1031 709 l 2,0,1
830 0 m 2,16,-1
 560 0 l 2,17,18
 189 0 189 0 189 271 c 0,19,20
 189 323 189 323 201 380 c 2,21,-1
 360 1130 l 2,22,23
 441 1510 441 1510 821 1510 c 2,24,-1
 1091 1510 l 2,25,26
 1451 1510 1451 1510 1451 1230 c 0,27,28
 1451 1179 1451 1179 1438 1118 c 1,29,-1
 1107 974 l 1,30,-1
 1097 974 l 1,31,-1
 1164 1289 l 2,32,33
 1166 1298 1166 1298 1166 1310 c 0,34,35
 1166 1360 1166 1360 1099 1360 c 2,36,-1
 809 1360 l 2,37,38
 729 1360 729 1360 714 1289 c 2,39,-1
 636 920 l 1,40,41
 683 930 683 930 728 930 c 2,42,-1
 968 930 l 2,43,44
 1341 930 1341 930 1341 663 c 0,45,46
 1341 614 1341 614 1329 558 c 2,47,-1
 1291 380 l 2,48,49
 1210 0 1210 0 830 0 c 2,16,-1
EndSplineSet
Validated: 1
EndChar

StartChar: seven
Encoding: 55 55 26
Width: 1098
GlyphClass: 2
Flags: W
HStem: -20 21G<128 184.633> 1360 150<398 975>
DStem2: 128 -20 602 179 0.523098 0.852273<417.551 1619.2>
LayerCount: 2
Fore
SplineSet
138 -20 m 1,0,-1
 128 -20 l 1,1,-1
 975 1360 l 1,2,-1
 299 1360 l 1,3,-1
 301 1370 l 1,4,-1
 398 1510 l 1,5,-1
 1409 1510 l 1,6,-1
 1407 1500 l 1,7,-1
 602 179 l 1,8,-1
 138 -20 l 1,0,-1
EndSplineSet
Validated: 1
EndChar

StartChar: eight
Encoding: 56 56 27
Width: 1260
GlyphClass: 2
Flags: W
HStem: 0 150<454.296 889.743> 746 145<661.066 995.43> 1375 135<749.218 1079.58>
VStem: 139 305<152.361 419.25> 381 280<904.019 1157> 1006 319<477.656 742.851 959.972 1012.42> 1080 278<1109.5 1370.5>
DStem2: 70.2285 0 399.875 0 0.207912 0.978148<281.855 801.278> 859.875 0 1190.23 0 0.207912 0.978148<226.724 712.853>
LayerCount: 2
Fore
SplineSet
512 150 m 2,0,1
 812 150 l 2,2,3
 892 150 892 150 906 217 c 2,4,-1
 1004 679 l 2,5,6
 1006 689 1006 689 1006 698 c 0,7,8
 1006 746 1006 746 939 746 c 2,9,-1
 639 746 l 2,10,11
 559 746 559 746 544 679 c 2,12,-1
 446 217 l 2,13,14
 444 207 444 207 444 199 c 0,15,16
 444 150 444 150 512 150 c 2,0,1
729 891 m 2,17,-1
 909 891 l 2,18,19
 989 891 989 891 1003 957 c 2,20,-1
 1078 1309 l 2,21,22
 1080 1319 1080 1319 1080 1327 c 0,23,24
 1080 1375 1080 1375 1012 1375 c 2,25,-1
 832 1375 l 2,26,27
 752 1375 752 1375 738 1309 c 2,28,-1
 663 957 l 2,29,30
 661 947 661 947 661 939 c 0,31,32
 661 891 661 891 729 891 c 2,17,-1
510 0 m 2,33,34
 139 0 139 0 139 272 c 0,35,36
 139 321 139 321 151 380 c 2,37,-1
 195 590 l 2,38,39
 241 808 241 808 440 893 c 1,40,41
 381 930 381 930 381 1011 c 0,42,43
 381 1039 381 1039 388 1072 c 2,44,-1
 408 1168 l 2,45,46
 479 1510 479 1510 861 1510 c 2,47,-1
 981 1510 l 2,48,49
 1358 1510 1358 1510 1358 1257 c 0,50,51
 1358 1216 1358 1216 1348 1168 c 2,52,-1
 1328 1072 l 2,53,54
 1301 943 1301 943 1200 893 c 1,55,56
 1325 828 1325 828 1325 681 c 0,57,58
 1325 639 1325 639 1315 590 c 2,59,-1
 1271 380 l 2,60,61
 1191 0 1191 0 810 0 c 2,62,-1
 510 0 l 2,33,34
EndSplineSet
Validated: 1
EndChar

StartChar: nine
Encoding: 57 57 28
Width: 1320
GlyphClass: 2
Flags: W
HStem: 0 150<475.557 910.328> 580 150<616.995 1003.53> 1360 150<731.452 1147.3>
VStem: 190 285<154.629 396.603> 300 308<734.134 1000.66> 1156 296<1092.8 1357.9>
DStem2: 119.678 0 430.025 0 0.207912 0.978148<290.064 400.758 867.482 1401.07> 880.025 0 1200.23 0 0.207912 0.978148<224.52 603.091 741.448 1329.25>
LayerCount: 2
Fore
SplineSet
610 801 m 2,0,1
 608 790 608 790 608 780 c 0,2,3
 608 730 608 730 675 730 c 2,4,-1
 955 730 l 2,5,6
 1035 730 1035 730 1050 801 c 2,7,-1
 1154 1289 l 2,8,9
 1156 1300 1156 1300 1156 1310 c 0,10,11
 1156 1360 1156 1360 1089 1360 c 2,12,-1
 809 1360 l 2,13,14
 729 1360 729 1360 714 1289 c 2,15,-1
 610 801 l 2,0,1
550 0 m 2,16,17
 190 0 190 0 190 280 c 0,18,19
 190 331 190 331 203 392 c 1,20,-1
 534 536 l 1,21,-1
 544 536 l 1,22,-1
 477 221 l 2,23,24
 475 212 475 212 475 200 c 0,25,26
 475 150 475 150 542 150 c 2,27,-1
 832 150 l 2,28,29
 912 150 912 150 927 221 c 2,30,-1
 1005 590 l 1,31,32
 958 580 958 580 913 580 c 2,33,-1
 673 580 l 2,34,35
 300 580 300 580 300 847 c 0,36,37
 300 896 300 896 312 952 c 2,38,-1
 350 1130 l 2,39,40
 431 1510 431 1510 811 1510 c 2,41,-1
 1081 1510 l 2,42,43
 1452 1510 1452 1510 1452 1239 c 0,44,45
 1452 1187 1452 1187 1440 1130 c 2,46,-1
 1281 380 l 2,47,48
 1200 0 1200 0 820 0 c 2,49,-1
 550 0 l 2,16,17
EndSplineSet
Validated: 1
EndChar

StartChar: colon
Encoding: 58 58 29
Width: 420
GlyphClass: 2
Flags: W
HStem: -20 365<156.097 332.323> 573 365<282.097 458.323>
VStem: 60 495
LayerCount: 2
Fore
SplineSet
206 -20 m 0,0,1
 130 -20 130 -20 90 34 c 0,2,3
 60 73 60 73 60 123 c 0,4,5
 60 142 60 142 64 162 c 0,6,7
 80 238 80 238 144 291 c 0,8,9
 208 345 208 345 283 345 c 0,10,11
 359 345 359 345 400 292 c 0,12,13
 429 254 429 254 429 203 c 0,14,15
 429 184 429 184 425 163 c 0,16,17
 409 88 409 88 344.5 34 c 128,-1,18
 280 -20 280 -20 206 -20 c 0,0,1
409 938 m 0,19,20
 485 938 485 938 526 885 c 0,21,22
 555 847 555 847 555 796 c 0,23,24
 555 777 555 777 551 756 c 0,25,26
 535 681 535 681 470.5 627 c 128,-1,27
 406 573 406 573 332 573 c 0,28,29
 256 573 256 573 216 627 c 0,30,31
 186 666 186 666 186 716 c 0,32,33
 186 735 186 735 190 755 c 0,34,35
 206 831 206 831 270 884 c 0,36,37
 334 938 334 938 409 938 c 0,19,20
EndSplineSet
Validated: 1
EndChar

StartChar: semicolon
Encoding: 59 59 30
Width: 496
GlyphClass: 2
Flags: W
HStem: 573 365<320.097 496.323>
VStem: 203 283<-42.5039 147.058>
LayerCount: 2
Fore
SplineSet
75 212 m 1,0,-1
 371 338 l 1,1,-1
 381 338 l 1,2,3
 486 259 486 259 486 132 c 0,4,5
 486 95 486 95 477 54 c 0,6,7
 422 -203 422 -203 60 -328 c 1,8,-1
 55 -321 l 1,9,10
 166 -172 166 -172 197 -24 c 0,11,12
 203 3 203 3 203 28 c 0,13,14
 203 146 203 146 75 212 c 1,0,-1
447 938 m 0,15,16
 523 938 523 938 564 885 c 0,17,18
 593 847 593 847 593 796 c 0,19,20
 593 777 593 777 589 756 c 0,21,22
 573 681 573 681 508.5 627 c 128,-1,23
 444 573 444 573 370 573 c 0,24,25
 294 573 294 573 254 627 c 0,26,27
 224 666 224 666 224 716 c 0,28,29
 224 735 224 735 228 755 c 0,30,31
 244 831 244 831 308 884 c 0,32,33
 372 938 372 938 447 938 c 0,15,16
EndSplineSet
Validated: 1
EndChar

StartChar: less
Encoding: 60 60 31
Width: 1355
GlyphClass: 2
Flags: W
DStem2: 611 800 246 638 0.933479 -0.358631<0 679.37> 416 891 611 800 0.945835 0.324646<154.895 1017.63>
LayerCount: 2
Fore
SplineSet
416 891 m 1,0,-1
 1392 1226 l 1,1,-1
 1428 1093 l 1,2,-1
 1426 1083 l 1,3,-1
 611 800 l 1,4,-1
 1310 539 l 1,5,-1
 1307 529 l 1,6,-1
 1144 293 l 1,7,-1
 246 638 l 1,8,-1
 248 648 l 1,9,-1
 416 891 l 1,0,-1
EndSplineSet
Validated: 1
EndChar

StartChar: equal
Encoding: 61 61 32
Width: 1240
GlyphClass: 2
Flags: W
HStem: 390 270<375 1088> 850 270<473 1186>
LayerCount: 2
Fore
SplineSet
375 660 m 1,0,-1
 1270 660 l 1,1,-1
 1268 650 l 1,2,-1
 1088 390 l 1,3,-1
 193 390 l 1,4,-1
 195 400 l 1,5,-1
 375 660 l 1,0,-1
473 1120 m 1,6,-1
 1368 1120 l 1,7,-1
 1366 1110 l 1,8,-1
 1186 850 l 1,9,-1
 291 850 l 1,10,-1
 293 860 l 1,11,-1
 473 1120 l 1,6,-1
EndSplineSet
Validated: 1
EndChar

StartChar: greater
Encoding: 62 62 33
Width: 1355
GlyphClass: 2
Flags: W
DStem2: 250 427 284 284 0.945835 0.324646<0 862.731> 532 1217 366 971 0.933479 -0.358631<0 679.37>
LayerCount: 2
Fore
SplineSet
1260 619 m 1,0,-1
 284 284 l 1,1,-1
 248 417 l 1,2,-1
 250 427 l 1,3,-1
 1065 710 l 1,4,-1
 366 971 l 1,5,-1
 369 981 l 1,6,-1
 532 1217 l 1,7,-1
 1430 872 l 1,8,-1
 1428 862 l 1,9,-1
 1260 619 l 1,0,-1
EndSplineSet
Validated: 1
EndChar

StartChar: question
Encoding: 63 63 34
Width: 1300
GlyphClass: 2
Flags: W
HStem: -20 365<551.097 727.323> 1360 150<720.672 1126.85>
LayerCount: 2
Fore
SplineSet
811 1510 m 2,0,-1
 1071 1510 l 2,1,2
 1443 1510 1443 1510 1443 1240 c 0,3,4
 1443 1190 1443 1190 1430 1130 c 2,5,-1
 1414 1056 l 2,6,7
 1361 813 1361 813 1049 683 c 0,8,9
 903 622 903 622 879 506 c 1,10,-1
 534 359 l 1,11,-1
 524 359 l 1,12,13
 578 612 578 612 844 721 c 0,14,15
 1030 797 1030 797 1065 963 c 2,16,-1
 1134 1289 l 2,17,18
 1136 1300 1136 1300 1136 1310 c 0,19,20
 1136 1360 1136 1360 1069 1360 c 2,21,-1
 799 1360 l 2,22,23
 719 1360 719 1360 704 1289 c 2,24,-1
 664 1100 l 1,25,-1
 322 952 l 1,26,-1
 312 952 l 1,27,-1
 350 1130 l 2,28,29
 431 1510 431 1510 811 1510 c 2,0,-1
601 -20 m 0,30,31
 525 -20 525 -20 485 34 c 0,32,33
 455 73 455 73 455 123 c 0,34,35
 455 142 455 142 459 162 c 0,36,37
 475 238 475 238 539 291 c 0,38,39
 603 345 603 345 678 345 c 0,40,41
 754 345 754 345 795 292 c 0,42,43
 824 254 824 254 824 203 c 0,44,45
 824 184 824 184 820 163 c 0,46,47
 804 88 804 88 739.5 34 c 128,-1,48
 675 -20 675 -20 601 -20 c 0,30,31
EndSplineSet
Validated: 1
EndChar

StartChar: at
Encoding: 64 64 35
Width: 1420
GlyphClass: 2
Flags: W
HStem: -410 140<406.047 687> 0 140<847.067 1010> 522 140<913.196 1091> 960 140<642.55 1161.66>
VStem: 122 274<-266.045 -9.28125> 613 230<143.914 236.946> 1171 277<702.781 957.986>
DStem2: 53.2285 -410 353.151 -410 0.207912 0.978148<280.908 1385.7> 470.747 -410 720.505 -410 0.207912 0.978148<645.169 998.216> 893.094 -410 1192.77 -410 0.207912 0.978148<602.102 952.781 1095.33 1332.7>
LayerCount: 2
Fore
SplineSet
1031 0 m 1,0,-1
 898 0 l 2,1,2
 613 0 613 0 613 218 c 0,3,4
 613 261 613 261 624 311 c 2,5,-1
 639 381 l 2,6,7
 699 662 699 662 979 662 c 2,8,-1
 1118 662 l 1,9,-1
 1170 908 l 2,10,11
 1171 914 1171 914 1171 920 c 0,12,13
 1171 960 1171 960 1101 960 c 10,14,-1
 724 960 l 2,15,16
 644 960 644 960 629 889 c 2,17,-1
 398 -199 l 2,18,19
 396 -210 396 -210 396 -220 c 0,20,21
 396 -270 396 -270 463 -270 c 2,22,-1
 779 -270 l 1,23,-1
 776 -280 l 1,24,-1
 687 -410 l 1,25,-1
 493 -410 l 2,26,27
 122 -410 122 -410 122 -139 c 0,28,29
 122 -89 122 -89 134 -30 c 2,30,-1
 293 720 l 2,31,32
 374 1100 374 1100 754 1100 c 2,33,-1
 1074 1100 l 2,34,35
 1448 1100 1448 1100 1448 836 c 0,36,37
 1448 789 1448 789 1436 734 c 2,38,-1
 1305 118 l 1,39,-1
 1031 0 l 1,0,-1
1010 140 m 1,40,-1
 1091 522 l 1,41,-1
 959 522 l 2,42,43
 919 522 919 522 913 493 c 2,44,-1
 844 171 l 2,45,46
 843 167 843 167 843 163 c 0,47,48
 843 140 843 140 878 140 c 2,49,-1
 1010 140 l 1,40,-1
EndSplineSet
Validated: 1
EndChar

StartChar: A
Encoding: 65 65 36
Width: 1410
GlyphClass: 2
Flags: W
HStem: -20 21G<136 192.395 946 1002.39> 680 150<636 1095> 1360 150<750.672 1217.48>
DStem2: 136 -20 455.754 -20 0.207912 0.978148<216.765 782.214 935.381 1406.14> 946 -20 1265.75 -20 0.207912 0.978148<216.765 715.682 868.85 1349.92>
LayerCount: 2
Fore
SplineSet
146 -20 m 1,0,-1
 136 -20 l 1,1,-1
 380 1130 l 2,2,3
 461 1510 461 1510 841 1510 c 2,4,-1
 1151 1510 l 2,5,6
 1523 1510 1523 1510 1523 1239 c 0,7,8
 1523 1189 1523 1189 1510 1130 c 2,9,-1
 1297 127 l 1,10,-1
 956 -20 l 1,11,-1
 946 -20 l 1,12,-1
 1095 680 l 1,13,-1
 605 680 l 1,14,-1
 487 127 l 1,15,-1
 146 -20 l 1,0,-1
636 830 m 1,16,-1
 1126 830 l 1,17,-1
 1224 1289 l 2,18,19
 1226 1300 1226 1300 1226 1310 c 0,20,21
 1226 1360 1226 1360 1159 1360 c 2,22,-1
 829 1360 l 2,23,24
 749 1360 749 1360 734 1289 c 2,25,-1
 636 830 l 1,16,-1
EndSplineSet
Validated: 1
EndChar

StartChar: B
Encoding: 66 66 37
Width: 1300
GlyphClass: 2
Flags: W
HStem: 0 150<512 949.743> 751 135<668 1044.43> 1375 135<772 1129.36>
VStem: 1067 320<484.352 748.404>
DStem2: 160 0 480.117 0 0.207912 0.978148<219.907 834.386 972.258 1414.88> 919.875 0 1250.23 0 0.207912 0.978148<226.724 717.951>
LayerCount: 2
Fore
SplineSet
512 150 m 1,0,-1
 872 150 l 2,1,2
 952 150 952 150 966 217 c 2,3,-1
 1065 684 l 2,4,5
 1067 694 1067 694 1067 703 c 0,6,7
 1067 751 1067 751 1000 751 c 2,8,-1
 640 751 l 1,9,-1
 512 150 l 1,0,-1
160 0 m 1,10,-1
 454 1384 l 1,11,-1
 749 1510 l 1,12,-1
 1041 1510 l 2,13,14
 1418 1510 1418 1510 1418 1257 c 0,15,16
 1418 1216 1418 1216 1408 1168 c 2,17,-1
 1388 1072 l 2,18,19
 1366 967 1366 967 1300 893 c 1,20,21
 1387 828 1387 828 1387 697 c 0,22,23
 1387 648 1387 648 1375 590 c 2,24,-1
 1331 380 l 2,25,26
 1251 0 1251 0 870 0 c 2,27,-1
 160 0 l 1,10,-1
668 886 m 1,28,-1
 958 886 l 2,29,30
 1038 886 1038 886 1052 952 c 2,31,-1
 1128 1309 l 2,32,33
 1130 1319 1130 1319 1130 1327 c 0,34,35
 1130 1375 1130 1375 1062 1375 c 2,36,-1
 772 1375 l 1,37,-1
 668 886 l 1,28,-1
EndSplineSet
Validated: 1
EndChar

StartChar: C
Encoding: 67 67 38
Width: 1250
GlyphClass: 2
Flags: W
HStem: 0 150<504.296 909.548> 1360 150<741.452 1145.05>
VStem: 1151 300<1113.89 1355.65>
DStem2: 120.229 0 450.025 0 0.207912 0.978148<280.968 1385.7>
LayerCount: 2
Fore
SplineSet
560 0 m 2,0,1
 189 0 189 0 189 271 c 0,2,3
 189 323 189 323 201 380 c 2,4,-1
 360 1130 l 2,5,6
 441 1510 441 1510 821 1510 c 2,7,-1
 1091 1510 l 2,8,9
 1451 1510 1451 1510 1451 1231 c 0,10,11
 1451 1179 1451 1179 1438 1118 c 1,12,-1
 1091 967 l 1,13,-1
 1081 967 l 1,14,-1
 1149 1289 l 2,15,16
 1151 1298 1151 1298 1151 1310 c 0,17,18
 1151 1360 1151 1360 1084 1360 c 2,19,-1
 819 1360 l 2,20,21
 739 1360 739 1360 724 1289 c 2,22,-1
 497 221 l 2,23,24
 495 212 495 212 495 200 c 0,25,26
 495 150 495 150 562 150 c 2,27,-1
 827 150 l 2,28,29
 907 150 907 150 922 221 c 2,30,-1
 961 403 l 1,31,-1
 1319 558 l 1,32,-1
 1329 558 l 1,33,-1
 1291 380 l 2,34,35
 1210 0 1210 0 830 0 c 2,36,-1
 560 0 l 2,0,1
EndSplineSet
Validated: 1
EndChar

StartChar: D
Encoding: 68 68 39
Width: 1390
GlyphClass: 2
Flags: W
HStem: 0 150<512 969.548> 1360 150<769 1206.7>
VStem: 1216 306<1091.8 1357.9>
DStem2: 160 0 480.117 0 0.207912 0.978148<219.907 1413.9> 940.025 0 1270.23 0 0.207912 0.978148<226.599 1331.39>
LayerCount: 2
Fore
SplineSet
512 150 m 1,0,-1
 892 150 l 2,1,2
 972 150 972 150 987 221 c 2,3,-1
 1214 1289 l 2,4,5
 1216 1300 1216 1300 1216 1310 c 0,6,7
 1216 1360 1216 1360 1149 1360 c 2,8,-1
 769 1360 l 1,9,-1
 512 150 l 1,0,-1
160 0 m 1,10,-1
 454 1383 l 1,11,-1
 749 1510 l 1,12,-1
 1151 1510 l 2,13,14
 1522 1510 1522 1510 1522 1239 c 0,15,16
 1522 1189 1522 1189 1510 1130 c 2,17,-1
 1351 380 l 2,18,19
 1270 0 1270 0 890 0 c 2,20,-1
 160 0 l 1,10,-1
EndSplineSet
Validated: 1
EndChar

StartChar: E
Encoding: 69 69 40
Width: 1100
GlyphClass: 2
Flags: W
HStem: 0 150<512 1023> 680 150<656 1118> 1360 150<769 1262>
DStem2: 160 0 480.117 0 0.207912 0.978148<219.907 761.819 914.987 1414.88>
CounterMasks: 1 e0
LayerCount: 2
Fore
SplineSet
160 0 m 1,0,-1
 454 1384 l 1,1,-1
 749 1510 l 1,2,-1
 1361 1510 l 1,3,-1
 1359 1500 l 1,4,-1
 1262 1360 l 1,5,-1
 769 1360 l 1,6,-1
 656 830 l 1,7,-1
 1216 830 l 1,8,-1
 1214 820 l 1,9,-1
 1118 680 l 1,10,-1
 625 680 l 1,11,-1
 512 150 l 1,12,-1
 1122 150 l 1,13,-1
 1120 140 l 1,14,-1
 1023 0 l 1,15,-1
 160 0 l 1,0,-1
EndSplineSet
Validated: 1
EndChar

StartChar: F
Encoding: 70 70 41
Width: 1050
GlyphClass: 2
Flags: W
HStem: -20 21G<156 212.395> 680 150<656 1118> 1360 150<769 1262>
DStem2: 156 -20 475.754 -20 0.207912 0.978148<216.765 782.214 935.381 1435.28>
LayerCount: 2
Fore
SplineSet
166 -20 m 1,0,-1
 156 -20 l 1,1,-1
 454 1384 l 1,2,-1
 749 1510 l 1,3,-1
 1361 1510 l 1,4,-1
 1359 1500 l 1,5,-1
 1262 1360 l 1,6,-1
 769 1360 l 1,7,-1
 656 830 l 1,8,-1
 1216 830 l 1,9,-1
 1214 820 l 1,10,-1
 1118 680 l 1,11,-1
 625 680 l 1,12,-1
 507 127 l 1,13,-1
 166 -20 l 1,0,-1
EndSplineSet
Validated: 1
EndChar

StartChar: G
Encoding: 71 71 42
Width: 1330
GlyphClass: 2
Flags: W
HStem: 0 150<504.296 920.547> 680 150<805 1035> 1360 150<741.452 1145.05>
VStem: 1151 300<1113.89 1355.65>
DStem2: 120.229 0 450.025 0 0.207912 0.978148<280.968 1385.7> 890.025 0 1210.23 0 0.207912 0.978148<224.614 695.282 1207.5 1319.14>
CounterMasks: 1 e0
LayerCount: 2
Fore
SplineSet
560 0 m 2,0,1
 189 0 189 0 189 271 c 0,2,3
 189 323 189 323 201 380 c 2,4,-1
 360 1130 l 2,5,6
 441 1510 441 1510 821 1510 c 2,7,-1
 1091 1510 l 2,8,9
 1451 1510 1451 1510 1451 1231 c 0,10,11
 1451 1179 1451 1179 1438 1118 c 1,12,-1
 1091 967 l 1,13,-1
 1081 967 l 1,14,-1
 1149 1289 l 2,15,16
 1151 1298 1151 1298 1151 1310 c 0,17,18
 1151 1360 1151 1360 1084 1360 c 2,19,-1
 819 1360 l 2,20,21
 739 1360 739 1360 724 1289 c 2,22,-1
 497 221 l 2,23,24
 495 212 495 212 495 200 c 0,25,26
 495 150 495 150 562 150 c 2,27,-1
 842 150 l 2,28,29
 922 150 922 150 937 221 c 2,30,-1
 1035 680 l 1,31,-1
 707 680 l 1,32,-1
 709 690 l 1,33,-1
 805 830 l 1,34,-1
 1386 830 l 1,35,-1
 1291 380 l 2,36,37
 1211 0 1211 0 830 0 c 2,38,-1
 560 0 l 2,0,1
EndSplineSet
Validated: 1
EndChar

StartChar: H
Encoding: 72 72 43
Width: 1440
GlyphClass: 2
Flags: W
HStem: -20 21G<156 212.395 956 1012.39> 680 150<656 1105> 1510 20G<748.605 805 1548.61 1605>
DStem2: 156 -20 475.754 -20 0.207912 0.978148<216.765 782.214 935.381 1434.3> 956 -20 1275.75 -20 0.207912 0.978148<216.765 715.682 868.85 1434.3>
LayerCount: 2
Fore
SplineSet
166 -20 m 1,0,-1
 156 -20 l 1,1,-1
 454 1383 l 1,2,-1
 795 1530 l 1,3,-1
 805 1530 l 1,4,-1
 656 830 l 1,5,-1
 1136 830 l 1,6,-1
 1254 1383 l 1,7,-1
 1595 1530 l 1,8,-1
 1605 1530 l 1,9,-1
 1307 127 l 1,10,-1
 966 -20 l 1,11,-1
 956 -20 l 1,12,-1
 1105 680 l 1,13,-1
 625 680 l 1,14,-1
 507 127 l 1,15,-1
 166 -20 l 1,0,-1
EndSplineSet
Validated: 1
EndChar

StartChar: I
Encoding: 73 73 44
Width: 640
GlyphClass: 2
Flags: W
HStem: -20 21G<156 212.395> 1510 20G<748.605 805>
VStem: 156 649
DStem2: 156 -20 475.754 -20 0.207912 0.978148<216.765 1434.3>
LayerCount: 2
Fore
SplineSet
166 -20 m 1,0,-1
 156 -20 l 1,1,-1
 454 1383 l 1,2,-1
 795 1530 l 1,3,-1
 805 1530 l 1,4,-1
 507 127 l 1,5,-1
 166 -20 l 1,0,-1
EndSplineSet
Validated: 1
EndChar

StartChar: J
Encoding: 74 74 45
Width: 1170
GlyphClass: 2
Flags: W
HStem: 0 150<385.947 760.328> 1360 150<473 1019>
VStem: 80 300<154.629 398.837>
DStem2: 730.025 0 1050.23 0 0.207912 0.978148<224.52 1390.36>
LayerCount: 2
Fore
SplineSet
670 0 m 2,0,-1
 440 0 l 2,1,2
 80 0 80 0 80 280 c 0,3,4
 80 332 80 332 93 393 c 1,5,-1
 440 542 l 1,6,-1
 450 542 l 1,7,-1
 382 221 l 2,8,9
 380 212 380 212 380 200 c 0,10,11
 380 150 380 150 447 150 c 2,12,-1
 682 150 l 2,13,14
 762 150 762 150 777 221 c 2,15,-1
 1019 1360 l 1,16,-1
 374 1360 l 1,17,-1
 376 1370 l 1,18,-1
 473 1510 l 1,19,-1
 1371 1510 l 1,20,-1
 1131 380 l 2,21,22
 1050 0 1050 0 670 0 c 2,0,-1
EndSplineSet
Validated: 1
EndChar

StartChar: K
Encoding: 75 75 46
Width: 1370
GlyphClass: 2
Flags: W
HStem: -20 21G<156 212.395 926 982.395> 900 150<973 1099.3> 1510 20G<748.605 805 1365.71 1442.5>
DStem2: 156 -20 475.754 -20 0.207912 0.978148<216.765 1011.79 1150.15 1434.3> 701 1040 973 1050 0.81651 0.577331<227.864 848.734> 926 -20 1245.75 -20 0.207912 0.978148<216.765 879.391>
LayerCount: 2
Fore
SplineSet
166 -20 m 1,0,-1
 156 -20 l 1,1,-1
 454 1383 l 1,2,-1
 795 1530 l 1,3,-1
 805 1530 l 1,4,-1
 701 1040 l 1,5,-1
 1394 1530 l 1,6,-1
 1404 1530 l 1,7,-1
 1558 1450 l 1,8,-1
 973 1050 l 1,9,-1
 1033 1050 l 2,10,11
 1404 1050 1404 1050 1404 779 c 0,12,13
 1404 729 1404 729 1392 670 c 2,14,-1
 1277 127 l 1,15,-1
 936 -20 l 1,16,-1
 926 -20 l 1,17,-1
 1106 829 l 2,18,19
 1108 840 1108 840 1108 850 c 0,20,21
 1108 900 1108 900 1041 900 c 2,22,-1
 751 900 l 2,23,24
 671 900 671 900 656 829 c 2,25,-1
 507 127 l 1,26,-1
 166 -20 l 1,0,-1
EndSplineSet
Validated: 1
EndChar

StartChar: L
Encoding: 76 76 47
Width: 1100
GlyphClass: 2
Flags: W
HStem: 0 150<512 1023> 1510 20G<748.288 805>
DStem2: 160 0 480.117 0 0.207912 0.978148<219.907 1414.88>
LayerCount: 2
Fore
SplineSet
160 0 m 1,0,-1
 454 1384 l 1,1,-1
 795 1530 l 1,2,-1
 805 1530 l 1,3,-1
 512 150 l 1,4,-1
 1122 150 l 1,5,-1
 1120 140 l 1,6,-1
 1023 0 l 1,7,-1
 160 0 l 1,0,-1
EndSplineSet
Validated: 1
EndChar

StartChar: M
Encoding: 77 77 48
Width: 2220
GlyphClass: 2
Flags: W
HStem: -20 21G<136 192.395 946 1002.39 1756 1812.39> 1360 150<750.672 1223.62 1554.45 2027.48>
DStem2: 136 -20 455.754 -20 0.207912 0.978148<216.765 1406.14> 946 -20 1265.75 -20 0.207912 0.978148<216.765 1358.85> 1756 -20 2075.75 -20 0.207912 0.978148<216.765 1349.92>
LayerCount: 2
Fore
SplineSet
146 -20 m 1,0,-1
 136 -20 l 1,1,-1
 380 1130 l 2,2,3
 461 1510 461 1510 841 1510 c 2,4,-1
 1151 1510 l 2,5,6
 1305 1510 1305 1510 1389 1456 c 1,7,8
 1496 1510 1496 1510 1651 1510 c 2,9,-1
 1961 1510 l 2,10,11
 2333 1510 2333 1510 2333 1239 c 0,12,13
 2333 1189 2333 1189 2320 1130 c 2,14,-1
 2107 127 l 1,15,-1
 1766 -20 l 1,16,-1
 1756 -20 l 1,17,-1
 2034 1289 l 2,18,19
 2036 1300 2036 1300 2036 1310 c 0,20,21
 2036 1360 2036 1360 1969 1360 c 2,22,-1
 1639 1360 l 2,23,24
 1559 1360 1559 1360 1544 1289 c 2,25,-1
 1297 127 l 1,26,-1
 956 -20 l 1,27,-1
 946 -20 l 1,28,-1
 1224 1289 l 2,29,30
 1226 1300 1226 1300 1226 1310 c 0,31,32
 1226 1360 1226 1360 1159 1360 c 2,33,-1
 829 1360 l 2,34,35
 749 1360 749 1360 734 1289 c 2,36,-1
 487 127 l 1,37,-1
 146 -20 l 1,0,-1
EndSplineSet
Validated: 1
EndChar

StartChar: N
Encoding: 78 78 49
Width: 1410
GlyphClass: 2
Flags: W
HStem: -20 21G<136 192.395 946 1002.39> 1360 150<750.672 1217.48>
DStem2: 136 -20 455.754 -20 0.207912 0.978148<216.765 1406.14> 946 -20 1265.75 -20 0.207912 0.978148<216.765 1349.92>
LayerCount: 2
Fore
SplineSet
146 -20 m 1,0,-1
 136 -20 l 1,1,-1
 380 1130 l 2,2,3
 461 1510 461 1510 841 1510 c 2,4,-1
 1151 1510 l 2,5,6
 1523 1510 1523 1510 1523 1239 c 0,7,8
 1523 1189 1523 1189 1510 1130 c 2,9,-1
 1297 127 l 1,10,-1
 956 -20 l 1,11,-1
 946 -20 l 1,12,-1
 1224 1289 l 2,13,14
 1226 1300 1226 1300 1226 1310 c 0,15,16
 1226 1360 1226 1360 1159 1360 c 2,17,-1
 829 1360 l 2,18,19
 749 1360 749 1360 734 1289 c 2,20,-1
 487 127 l 1,21,-1
 146 -20 l 1,0,-1
EndSplineSet
Validated: 1
EndChar

StartChar: O
Encoding: 79 79 50
Width: 1370
GlyphClass: 2
Flags: W
HStem: 0 150<504.296 949.548> 1360 150<741.452 1186.7>
VStem: 189 306<152.098 418.203> 1196 306<1091.8 1357.9>
DStem2: 120.229 0 450.025 0 0.207912 0.978148<280.908 1385.7> 920.025 0 1250.23 0 0.207912 0.978148<226.599 1331.39>
LayerCount: 2
Fore
SplineSet
562 150 m 2,0,-1
 872 150 l 2,1,2
 952 150 952 150 967 221 c 2,3,-1
 1194 1289 l 2,4,5
 1196 1300 1196 1300 1196 1310 c 0,6,7
 1196 1360 1196 1360 1129 1360 c 2,8,-1
 819 1360 l 2,9,10
 739 1360 739 1360 724 1289 c 2,11,-1
 497 221 l 2,12,13
 495 210 495 210 495 200 c 0,14,15
 495 150 495 150 562 150 c 2,0,-1
560 0 m 2,16,17
 189 0 189 0 189 271 c 0,18,19
 189 321 189 321 201 380 c 2,20,-1
 360 1130 l 2,21,22
 441 1510 441 1510 821 1510 c 2,23,-1
 1131 1510 l 2,24,25
 1502 1510 1502 1510 1502 1239 c 0,26,27
 1502 1189 1502 1189 1490 1130 c 2,28,-1
 1331 380 l 2,29,30
 1250 0 1250 0 870 0 c 2,31,-1
 560 0 l 2,16,17
EndSplineSet
Validated: 1
EndChar

StartChar: P
Encoding: 80 80 51
Width: 1250
GlyphClass: 2
Flags: W
HStem: -20 21G<156 212.395> 440 150<605 1003.56> 1360 150<769 1146.55>
VStem: 1156 305<1091.3 1356.5>
DStem2: 156 -20 475.754 -20 0.207912 0.978148<216.765 536.855 690.022 1434.3> 875.249 -20 1205.75 -20 0.207912 0.978148<700.543 1346.82>
LayerCount: 2
Fore
SplineSet
605 590 m 1,0,-1
 925 590 l 2,1,2
 1004 590 1004 590 1020 661 c 2,3,-1
 1154 1289 l 2,4,5
 1156 1300 1156 1300 1156 1310 c 0,6,7
 1156 1360 1156 1360 1089 1360 c 2,8,-1
 769 1360 l 1,9,-1
 605 590 l 1,0,-1
166 -20 m 1,10,-1
 156 -20 l 1,11,-1
 454 1383 l 1,12,-1
 749 1510 l 1,13,-1
 1091 1510 l 2,14,15
 1461 1510 1461 1510 1461 1234 c 0,16,17
 1461 1183 1461 1183 1448 1122 c 2,18,-1
 1386 828 l 2,19,20
 1304 440 1304 440 924 440 c 2,21,-1
 574 440 l 1,22,-1
 507 127 l 1,23,-1
 166 -20 l 1,10,-1
EndSplineSet
Validated: 1
EndChar

StartChar: Q
Encoding: 81 81 52
Width: 1370
GlyphClass: 2
Flags: W
HStem: 0 150<493.698 792> 1360 150<730.672 1197.3>
VStem: 189 296<152.098 418.203> 1206 296<1096.88 1357.9>
DStem2: 111.726 -40 431.523 -40 0.207912 0.978148<321.801 1426.6> 921.224 -40 1241.73 -40 0.207912 0.978148<473.527 1370.27>
LayerCount: 2
Fore
SplineSet
1019 420 m 1,0,-1
 1204 1289 l 2,1,2
 1206 1300 1206 1300 1206 1310 c 0,3,4
 1206 1360 1206 1360 1139 1360 c 2,5,-1
 809 1360 l 2,6,7
 729 1360 729 1360 714 1289 c 2,8,-1
 487 221 l 2,9,10
 485 210 485 210 485 200 c 0,11,12
 485 150 485 150 552 150 c 2,13,-1
 792 150 l 1,14,-1
 603 512 l 1,15,-1
 910 609 l 1,16,-1
 920 609 l 1,17,-1
 1019 420 l 1,0,-1
560 0 m 2,18,19
 189 0 189 0 189 271 c 0,20,21
 189 321 189 321 201 380 c 2,22,-1
 360 1130 l 2,23,24
 441 1510 441 1510 821 1510 c 2,25,-1
 1131 1510 l 2,26,27
 1502 1510 1502 1510 1502 1239 c 0,28,29
 1502 1189 1502 1189 1490 1130 c 2,30,-1
 1331 380 l 2,31,32
 1293 202 1293 202 1183 107 c 1,33,-1
 1209 57 l 1,34,-1
 901 -40 l 1,35,-1
 891 -40 l 1,36,-1
 870 1 l 1,37,38
 855 0 855 0 840 0 c 2,39,-1
 560 0 l 2,18,19
EndSplineSet
Validated: 1
EndChar

StartChar: R
Encoding: 82 82 53
Width: 1381
GlyphClass: 2
Flags: W
HStem: -20 21G<156 212.395 1042.17 1113.42> 440 150<605 782> 1360 150<769 1146.55>
VStem: 1156 305<1091.3 1356.5>
DStem2: 156 -20 475.754 -20 0.207912 0.978148<216.765 536.855 690.022 1434.3> 875.249 -20 1205.75 -20 0.207912 0.978148<707.942 1346.82>
LayerCount: 2
Fore
SplineSet
605 590 m 1,0,-1
 925 590 l 2,1,2
 1004 590 1004 590 1020 661 c 2,3,-1
 1154 1289 l 2,4,5
 1156 1300 1156 1300 1156 1310 c 0,6,7
 1156 1360 1156 1360 1089 1360 c 2,8,-1
 769 1360 l 1,9,-1
 605 590 l 1,0,-1
166 -20 m 1,10,-1
 156 -20 l 1,11,-1
 454 1383 l 1,12,-1
 749 1510 l 1,13,-1
 1091 1510 l 2,14,15
 1461 1510 1461 1510 1461 1234 c 0,16,17
 1461 1183 1461 1183 1448 1122 c 2,18,-1
 1386 828 l 2,19,20
 1330 561 1330 561 1125 485 c 1,21,-1
 1363 101 l 1,22,-1
 1064 -20 l 1,23,-1
 1054 -20 l 1,24,-1
 782 440 l 1,25,-1
 574 440 l 1,26,-1
 507 127 l 1,27,-1
 166 -20 l 1,10,-1
EndSplineSet
Validated: 1
EndChar

StartChar: T
Encoding: 84 84 54
Width: 1190
GlyphClass: 2
Flags: W
HStem: -20 21G<431 487.712> 1360 150<398 724 1044 1402>
DStem2: 431 -20 750.967 -20 0.207912 0.978148<215.787 1410.76>
LayerCount: 2
Fore
SplineSet
441 -20 m 1,0,-1
 431 -20 l 1,1,-1
 724 1360 l 1,2,-1
 299 1360 l 1,3,-1
 301 1370 l 1,4,-1
 398 1510 l 1,5,-1
 1501 1510 l 1,6,-1
 1499 1500 l 1,7,-1
 1402 1360 l 1,8,-1
 1044 1360 l 1,9,-1
 782 126 l 1,10,-1
 441 -20 l 1,0,-1
EndSplineSet
Validated: 1
EndChar

StartChar: U
Encoding: 85 85 55
Width: 1410
GlyphClass: 2
Flags: W
HStem: 0 150<513.52 980.328> 1510 20G<728.605 785 1538.61 1595>
DStem2: 140.229 0 460.025 0 0.207912 0.978148<280.7 1413.86> 950.025 0 1270.23 0 0.207912 0.978148<224.52 1413.9>
LayerCount: 2
Fore
SplineSet
890 0 m 2,0,-1
 580 0 l 2,1,2
 208 0 208 0 208 271 c 0,3,4
 208 321 208 321 221 380 c 2,5,-1
 434 1383 l 1,6,-1
 775 1530 l 1,7,-1
 785 1530 l 1,8,-1
 507 221 l 2,9,10
 505 210 505 210 505 200 c 0,11,12
 505 150 505 150 572 150 c 2,13,-1
 902 150 l 2,14,15
 982 150 982 150 997 221 c 2,16,-1
 1244 1383 l 1,17,-1
 1585 1530 l 1,18,-1
 1595 1530 l 1,19,-1
 1351 380 l 2,20,21
 1270 0 1270 0 890 0 c 2,0,-1
EndSplineSet
Validated: 1
EndChar

StartChar: V
Encoding: 86 86 56
Width: 1378
GlyphClass: 2
Flags: W
HStem: -20 21G<544.578 604.508> 1510 20G<544.71 604.418 1525.56 1585.5>
DStem2: 601 1530 304 1406 0.168657 -0.985675<72.1326 1199.14> 803 348 851 106 0.524097 0.851658<0 1391.87>
LayerCount: 2
Fore
SplineSet
558 -20 m 1,0,-1
 548 -20 l 1,1,-1
 304 1406 l 1,2,-1
 591 1530 l 1,3,-1
 601 1530 l 1,4,-1
 803 348 l 1,5,-1
 1538 1530 l 1,6,-1
 1548 1530 l 1,7,-1
 1683 1458 l 1,8,-1
 851 106 l 1,9,-1
 558 -20 l 1,0,-1
EndSplineSet
Validated: 1
EndChar

StartChar: W
Encoding: 87 87 57
Width: 2220
GlyphClass: 2
Flags: W
HStem: 0 150<513.52 986.002 1317.31 1790.33> 1510 20G<728.605 785 1538.61 1595 2348.61 2405>
DStem2: 140.229 0 460.025 0 0.207912 0.978148<280.7 1413.86> 950.025 0 1270.02 0 0.207912 0.978148<271.818 1413.9> 1760.02 0 2080.23 0 0.207912 0.978148<224.52 1413.9>
LayerCount: 2
Fore
SplineSet
580 0 m 2,0,1
 208 0 208 0 208 271 c 0,2,3
 208 321 208 321 221 380 c 2,4,-1
 434 1383 l 1,5,-1
 775 1530 l 1,6,-1
 785 1530 l 1,7,-1
 507 221 l 2,8,9
 505 210 505 210 505 200 c 0,10,11
 505 150 505 150 572 150 c 2,12,-1
 902 150 l 2,13,14
 982 150 982 150 997 221 c 2,15,-1
 1244 1383 l 1,16,-1
 1585 1530 l 1,17,-1
 1595 1530 l 1,18,-1
 1317 221 l 2,19,20
 1315 210 1315 210 1315 200 c 0,21,22
 1315 150 1315 150 1382 150 c 2,23,-1
 1712 150 l 2,24,25
 1792 150 1792 150 1807 221 c 2,26,-1
 2054 1383 l 1,27,-1
 2395 1530 l 1,28,-1
 2405 1530 l 1,29,-1
 2161 380 l 2,30,31
 2080 0 2080 0 1700 0 c 2,32,-1
 1390 0 l 2,33,34
 1236 0 1236 0 1151 54 c 1,35,36
 1044 0 1044 0 890 0 c 2,37,-1
 580 0 l 2,0,1
EndSplineSet
Validated: 1
EndChar

StartChar: X
Encoding: 88 88 58
Width: 1254
GlyphClass: 2
Flags: W
HStem: -20 21G<120.944 187.754 973.588 1039.5> 1510 20G<535.898 601.396 1388.24 1454.53>
DStem2: 22 52 169 -20 0.683777 0.729691<47.9774 840.346 1231.73 2025.51> 592 1530 310 1412 0.425097 -0.905148<0 639.707 930.39 1569.19>
LayerCount: 2
Fore
SplineSet
169 -20 m 1,0,-1
 159 -20 l 1,1,-1
 22 52 l 1,2,-1
 639 711 l 1,3,-1
 310 1412 l 1,4,-1
 582 1530 l 1,5,-1
 592 1530 l 1,6,-1
 864 951 l 1,7,-1
 1407 1530 l 1,8,-1
 1417 1530 l 1,9,-1
 1554 1457 l 1,10,-1
 936 798 l 1,11,-1
 1265 97 l 1,12,-1
 993 -20 l 1,13,-1
 983 -20 l 1,14,-1
 711 558 l 1,15,-1
 169 -20 l 1,0,-1
EndSplineSet
Validated: 1
EndChar

StartChar: Y
Encoding: 89 89 59
Width: 1250
GlyphClass: 2
Flags: W
HStem: -20 21G<461 517.395> 417 150<534.436 554 874 976.008> 1510 20G<668.605 725 1438.61 1495>
DStem2: 75.3413 -20 396.138 -20 0.207912 0.978148<721.655 1434.44> 846.138 -20 1165.34 -20 0.207912 0.978148<670.976 1434.27>
LayerCount: 2
Fore
SplineSet
471 -20 m 1,0,-1
 461 -20 l 1,1,-1
 554 417 l 1,2,3
 236 426 236 426 236 682 c 0,4,5
 236 734 236 734 249 797 c 2,6,-1
 374 1383 l 1,7,-1
 715 1530 l 1,8,-1
 725 1530 l 1,9,-1
 536 638 l 2,10,11
 534 627 534 627 534 617 c 0,12,13
 534 567 534 567 601 567 c 2,14,-1
 891 567 l 2,15,16
 971 567 971 567 986 638 c 2,17,-1
 1144 1383 l 1,18,-1
 1485 1530 l 1,19,-1
 1495 1530 l 1,20,-1
 1339 797 l 2,21,22
 1258 417 1258 417 874 417 c 1,23,-1
 812 127 l 1,24,-1
 471 -20 l 1,0,-1
EndSplineSet
Validated: 1
EndChar

StartChar: Z
Encoding: 90 90 60
Width: 1138
GlyphClass: 2
Flags: W
HStem: 0 150<475 1061> 1360 150<429 984>
DStem2: 12 10 475 150 0.584305 0.811534<384.148 1663.52>
LayerCount: 2
Fore
SplineSet
10 0 m 1,0,-1
 12 10 l 1,1,-1
 984 1360 l 1,2,-1
 330 1360 l 1,3,-1
 332 1370 l 1,4,-1
 429 1510 l 1,5,-1
 1449 1510 l 1,6,-1
 1447 1500 l 1,7,-1
 475 150 l 1,8,-1
 1160 150 l 1,9,-1
 1158 140 l 1,10,-1
 1061 0 l 1,11,-1
 10 0 l 1,0,-1
EndSplineSet
Validated: 1
EndChar

StartChar: bracketleft
Encoding: 91 91 61
Width: 920
GlyphClass: 2
Flags: W
HStem: -240 150<461 792> 1600 150<820 1183>
DStem2: 109 -240 429.117 -240 0.207912 0.978148<219.907 1905.6>
LayerCount: 2
Fore
SplineSet
109 -240 m 1,0,-1
 505 1624 l 1,1,-1
 800 1750 l 1,2,-1
 1282 1750 l 1,3,-1
 1280 1740 l 1,4,-1
 1183 1600 l 1,5,-1
 820 1600 l 1,6,-1
 461 -90 l 1,7,-1
 891 -90 l 1,8,-1
 889 -100 l 1,9,-1
 792 -240 l 1,10,-1
 109 -240 l 1,0,-1
EndSplineSet
Validated: 1
EndChar

StartChar: backslash
Encoding: 92 92 62
Width: 1069
GlyphClass: 2
Flags: W
DStem2: 601 1710 351 1606 0.235692 -0.971828<42.147 1858.35>
LayerCount: 2
Fore
SplineSet
797 -200 m 1,0,-1
 787 -200 l 1,1,-1
 351 1606 l 1,2,-1
 591 1710 l 1,3,-1
 601 1710 l 1,4,-1
 1039 -96 l 1,5,-1
 797 -200 l 1,0,-1
EndSplineSet
Validated: 1
EndChar

StartChar: bracketright
Encoding: 93 93 63
Width: 920
GlyphClass: 2
Flags: W
HStem: -240 150<58 421> 1600 150<449 780>
DStem2: 389.117 -240 709.218 -240 0.207912 0.978148<195.368 1881.06>
LayerCount: 2
Fore
SplineSet
441 -240 m 1,0,-1
 -41 -240 l 1,1,-1
 -39 -230 l 1,2,-1
 58 -90 l 1,3,-1
 421 -90 l 1,4,-1
 780 1600 l 1,5,-1
 350 1600 l 1,6,-1
 352 1610 l 1,7,-1
 449 1750 l 1,8,-1
 1132 1750 l 1,9,-1
 736 -114 l 1,10,-1
 441 -240 l 1,0,-1
EndSplineSet
Validated: 1
EndChar

StartChar: asciicircum
Encoding: 94 94 64
Width: 1062
GlyphClass: 2
Flags: W
HStem: 1039 531
LayerCount: 2
Fore
SplineSet
657 1442 m 1,0,-1
 953 1570 l 1,1,-1
 963 1570 l 1,2,-1
 1279 1161 l 1,3,-1
 997 1039 l 1,4,-1
 987 1039 l 1,5,-1
 763 1329 l 1,6,-1
 426 1039 l 1,7,-1
 416 1039 l 1,8,-1
 268 1118 l 1,9,-1
 657 1442 l 1,0,-1
EndSplineSet
Validated: 1
EndChar

StartChar: underscore
Encoding: 95 95 65
Width: 1404
GlyphClass: 2
Flags: W
HStem: -410 200<156 1116>
LayerCount: 2
Fore
SplineSet
23 -410 m 1,0,-1
 25 -400 l 1,1,-1
 156 -210 l 1,2,-1
 1249 -210 l 1,3,-1
 1247 -220 l 1,4,-1
 1116 -410 l 1,5,-1
 23 -410 l 1,0,-1
EndSplineSet
Validated: 1
EndChar

StartChar: grave
Encoding: 96 96 66
Width: 405
GlyphClass: 2
Flags: W
HStem: 1160 410
VStem: 346 293
DStem2: 554 1570 346 1485 0.252301 -0.967649<29.7715 336.899>
LayerCount: 2
Fore
SplineSet
544 1570 m 1,0,-1
 554 1570 l 1,1,-1
 639 1244 l 1,2,-1
 444 1160 l 1,3,-1
 434 1160 l 1,4,-1
 346 1485 l 1,5,-1
 544 1570 l 1,0,-1
EndSplineSet
Validated: 1
EndChar

StartChar: a
Encoding: 97 97 67
Width: 1095
GlyphClass: 2
Flags: W
HStem: -20 21G<651 707.232> 0 140<401.559 655.375> 580 140<476.559 776.452> 960 140<491 847.839>
VStem: 853 281<720.734 957.383>
DStem2: 656.189 -20 950.667 -20 0.207912 0.978148<202.308 589.387 746.321 976.853>
LayerCount: 2
Fore
SplineSet
421 0 m 2,0,1
 105 0 105 0 105 220 c 0,2,3
 105 260 105 260 116 308 c 2,4,-1
 139 412 l 2,5,6
 207 720 207 720 514 720 c 2,7,-1
 738 720 l 2,8,9
 787 720 787 720 807 713 c 1,10,-1
 852 925 l 2,11,12
 853 932 853 932 853 937 c 0,13,14
 853 960 853 960 829 960 c 2,15,-1
 399 960 l 1,16,-1
 401 970 l 1,17,-1
 491 1100 l 1,18,-1
 819 1100 l 2,19,20
 1134 1100 1134 1100 1134 880 c 0,21,22
 1134 842 1134 842 1124 796 c 2,23,-1
 980 118 l 1,24,-1
 661 -20 l 1,25,-1
 651 -20 l 1,26,-1
 656 7 l 1,27,28
 636 0 636 0 615 0 c 2,29,-1
 421 0 l 2,0,1
398 172 m 2,30,31
 397 167 397 167 397 163 c 0,32,33
 397 140 397 140 431 140 c 2,34,-1
 650 140 l 2,35,36
 690 140 690 140 697 172 c 2,37,-1
 776 548 l 2,38,39
 777 553 777 553 777 557 c 0,40,41
 777 580 777 580 743 580 c 2,42,-1
 524 580 l 2,43,44
 484 580 484 580 477 548 c 2,45,-1
 398 172 l 2,30,31
EndSplineSet
Validated: 1
EndChar

StartChar: b
Encoding: 98 98 68
Width: 1210
GlyphClass: 2
Flags: W
HStem: 0 140<481.161 816.999> 960 140<673.656 973.38> 1510 20G<708.768 765>
VStem: 195 281<140.486 374.516> 978 291<725.219 959.514>
DStem2: 139.745 0 439.803 0 0.207912 0.978148<231.459 1053.02 1180.96 1423.18> 780.385 0 1090.44 0 0.207912 0.978148<177.792 955.502>
LayerCount: 2
Fore
SplineSet
510 140 m 2,0,-1
 770 140 l 2,1,2
 810 140 810 140 817 175 c 2,3,-1
 977 925 l 2,4,5
 978 930 978 930 978 935 c 0,6,7
 978 960 978 960 944 960 c 2,8,-1
 684 960 l 2,9,10
 644 960 644 960 637 925 c 2,11,-1
 477 175 l 2,12,13
 476 170 476 170 476 165 c 0,14,15
 476 140 476 140 510 140 c 2,0,-1
510 0 m 2,16,17
 195 0 195 0 195 222 c 0,18,19
 195 261 195 261 205 307 c 2,20,-1
 436 1392 l 1,21,-1
 755 1530 l 1,22,-1
 765 1530 l 1,23,-1
 673 1094 l 1,24,25
 694 1100 694 1100 714 1100 c 2,26,-1
 954 1100 l 2,27,28
 1269 1100 1269 1100 1269 878 c 0,29,30
 1269 839 1269 839 1259 793 c 2,31,-1
 1155 307 l 2,32,33
 1089 0 1089 0 780 0 c 2,34,-1
 510 0 l 2,16,17
EndSplineSet
Validated: 1
EndChar

StartChar: c
Encoding: 99 99 69
Width: 1070
GlyphClass: 2
Flags: W
HStem: 0 140<470.62 748.435> 960 140<627.001 912.642>
VStem: 913 284<859.43 955.218>
DStem2: 119.745 0 429.803 0 0.207912 0.978148<233.538 1011.25>
LayerCount: 2
Fore
SplineSet
720 0 m 2,0,-1
 490 0 l 2,1,2
 175 0 175 0 175 222 c 0,3,4
 175 260 175 260 185 307 c 2,5,-1
 289 793 l 2,6,7
 355 1100 355 1100 664 1100 c 2,8,-1
 894 1100 l 2,9,10
 1197 1100 1197 1100 1197 872 c 0,11,12
 1197 832 1197 832 1187 786 c 1,13,-1
 862 646 l 1,14,-1
 852 646 l 1,15,-1
 912 925 l 2,16,17
 913 930 913 930 913 935 c 0,18,19
 913 960 913 960 879 960 c 2,20,-1
 674 960 l 2,21,22
 634 960 634 960 627 925 c 2,23,-1
 467 175 l 2,24,25
 466 170 466 170 466 165 c 0,26,27
 466 140 466 140 500 140 c 2,28,-1
 705 140 l 2,29,30
 745 140 745 140 752 175 c 2,31,-1
 783 320 l 1,32,-1
 1119 465 l 1,33,-1
 1129 465 l 1,34,-1
 1095 307 l 2,35,36
 1029 0 1029 0 720 0 c 2,0,-1
EndSplineSet
Validated: 1
EndChar

StartChar: d
Encoding: 100 100 70
Width: 1210
GlyphClass: 2
Flags: W
HStem: 0 140<470.62 806.942> 960 140<627.001 967.589> 1510 20G<1338.77 1395>
VStem: 175 291<140.486 374.781>
DStem2: 119.745 0 429.803 0 0.207912 0.978148<233.538 1011.25> 770.385 0 1069.79 0 0.207912 0.978148<175.81 955.502 1114.45 1423.04>
LayerCount: 2
Fore
SplineSet
760 140 m 2,0,1
 800 140 800 140 807 175 c 2,2,-1
 967 925 l 2,3,4
 968 930 968 930 968 935 c 0,5,6
 968 960 968 960 934 960 c 2,7,-1
 674 960 l 2,8,9
 634 960 634 960 627 925 c 2,10,-1
 467 175 l 2,11,12
 466 170 466 170 466 165 c 0,13,14
 466 140 466 140 500 140 c 2,15,-1
 760 140 l 2,0,1
490 0 m 2,16,17
 175 0 175 0 175 222 c 0,18,19
 175 261 175 261 185 307 c 2,20,-1
 289 793 l 2,21,22
 355 1100 355 1100 664 1100 c 2,23,-1
 934 1100 l 2,24,25
 971 1100 971 1100 1003 1094 c 1,26,-1
 1066 1392 l 1,27,-1
 1385 1530 l 1,28,-1
 1395 1530 l 1,29,-1
 1135 307 l 2,30,31
 1070 0 1070 0 760 0 c 2,32,-1
 490 0 l 2,16,17
EndSplineSet
Validated: 1
EndChar

StartChar: e
Encoding: 101 101 71
Width: 1150
GlyphClass: 2
Flags: W
HStem: 0 140<470.62 748.435> 960 140<626.324 913.38>
VStem: 175 291<140.486 353.359>
DStem2: 119.745 0 429.803 0 0.207912 0.978148<233.538 429.506 592.1 1011.25> 540 516 506 357 0.918568 0.395263<0 347.569>
LayerCount: 2
Fore
SplineSet
720 0 m 2,0,-1
 490 0 l 2,1,2
 175 0 175 0 175 222 c 0,3,4
 175 261 175 261 185 307 c 2,5,-1
 289 793 l 2,6,7
 355 1100 355 1100 664 1100 c 2,8,-1
 894 1100 l 2,9,10
 1209 1100 1209 1100 1209 879 c 0,11,12
 1209 839 1209 839 1199 793 c 2,13,-1
 1166 641 l 1,14,-1
 506 357 l 1,15,-1
 467 175 l 2,16,17
 466 170 466 170 466 165 c 0,18,19
 466 140 466 140 500 140 c 2,20,-1
 705 140 l 2,21,22
 745 140 745 140 752 175 c 2,23,-1
 783 320 l 1,24,-1
 1119 465 l 1,25,-1
 1129 465 l 1,26,-1
 1095 307 l 2,27,28
 1029 0 1029 0 720 0 c 2,0,-1
540 516 m 1,29,-1
 859 654 l 1,30,-1
 917 925 l 2,31,32
 918 930 918 930 918 935 c 0,33,34
 918 960 918 960 884 960 c 2,35,-1
 674 960 l 2,36,37
 634 960 634 960 627 925 c 2,38,-1
 540 516 l 1,29,-1
EndSplineSet
Validated: 1
EndChar

StartChar: f
Encoding: 102 102 72
Width: 860
GlyphClass: 2
Flags: W
HStem: -20 21G<136 192.232> 732 140<625 905> 1370 140<724.058 1079>
DStem2: 136 -20 435.667 -20 0.207912 0.978148<203.387 831.206 974.176 1450.62>
LayerCount: 2
Fore
SplineSet
146 -20 m 1,0,-1
 136 -20 l 1,1,-1
 396 1203 l 2,2,3
 461 1510 461 1510 771 1510 c 2,4,-1
 1171 1510 l 1,5,-1
 1169 1500 l 1,6,-1
 1079 1370 l 1,7,-1
 771 1370 l 2,8,9
 731 1370 731 1370 724 1335 c 2,10,-1
 625 872 l 1,11,-1
 996 872 l 1,12,-1
 994 862 l 1,13,-1
 905 732 l 1,14,-1
 596 732 l 1,15,-1
 465 118 l 1,16,-1
 146 -20 l 1,0,-1
EndSplineSet
Validated: 1
EndChar

StartChar: g
Encoding: 103 103 73
Width: 1210
GlyphClass: 2
Flags: W
HStem: -410 140<265 719.942> 0 140<470.62 770.344> 960 140<627.001 962.839>
DStem2: 32.5969 -410 342.654 -410 0.207912 0.978148<652.697 1430.41> 682.576 -410 982.745 -410 0.207912 0.978148<175.978 425.294 553.234 1374.8>
LayerCount: 2
Fore
SplineSet
490 0 m 2,0,1
 175 0 175 0 175 222 c 0,2,3
 175 261 175 261 185 307 c 2,4,-1
 289 793 l 2,5,6
 355 1100 355 1100 664 1100 c 2,7,-1
 934 1100 l 2,8,9
 1249 1100 1249 1100 1249 878 c 0,10,11
 1249 839 1249 839 1239 793 c 2,12,-1
 1048 -103 l 2,13,14
 983 -410 983 -410 673 -410 c 2,15,-1
 173 -410 l 1,16,-1
 175 -400 l 1,17,-1
 265 -270 l 1,18,-1
 673 -270 l 2,19,20
 713 -270 713 -270 720 -235 c 2,21,-1
 771 6 l 1,22,23
 750 0 750 0 730 0 c 2,24,-1
 490 0 l 2,0,1
967 925 m 2,25,26
 968 930 968 930 968 935 c 0,27,28
 968 960 968 960 934 960 c 2,29,-1
 674 960 l 2,30,31
 634 960 634 960 627 925 c 2,32,-1
 467 175 l 2,33,34
 466 170 466 170 466 165 c 0,35,36
 466 140 466 140 500 140 c 2,37,-1
 760 140 l 2,38,39
 800 140 800 140 807 175 c 2,40,-1
 967 925 l 2,25,26
EndSplineSet
Validated: 1
EndChar

StartChar: h
Encoding: 104 104 74
Width: 1250
GlyphClass: 2
Flags: W
HStem: -20 21G<156 212.232 806 862.232> 960 140<692.564 1002.84> 1510 20G<728.768 785>
DStem2: 156 -20 455.667 -20 0.207912 0.978148<203.387 1073.4 1200.12 1443.52> 806 -20 1105.67 -20 0.207912 0.978148<203.387 975.976>
LayerCount: 2
Fore
SplineSet
166 -20 m 1,0,-1
 156 -20 l 1,1,-1
 456 1392 l 1,2,-1
 775 1530 l 1,3,-1
 785 1530 l 1,4,-1
 692 1093 l 1,5,6
 710 1100 710 1100 734 1100 c 2,7,-1
 974 1100 l 2,8,9
 1289 1100 1289 1100 1289 878 c 0,10,11
 1289 839 1289 839 1279 793 c 2,12,-1
 1135 118 l 1,13,-1
 816 -20 l 1,14,-1
 806 -20 l 1,15,-1
 1007 925 l 2,16,17
 1008 930 1008 930 1008 935 c 0,18,19
 1008 960 1008 960 974 960 c 2,20,-1
 704 960 l 2,21,22
 664 960 664 960 657 925 c 2,23,-1
 485 118 l 1,24,-1
 166 -20 l 1,0,-1
EndSplineSet
Validated: 1
EndChar

StartChar: i
Encoding: 105 105 75
Width: 620
GlyphClass: 2
Flags: W
HStem: -20 21G<156 212.232> 1100 20G<641.768 698> 1179 365<511.097 687.323>
VStem: 156 628
DStem2: 156 -20 455.667 -20 0.207912 0.978148<203.387 1024.39>
LayerCount: 2
Fore
SplineSet
638 1544 m 0,0,1
 714 1544 714 1544 755 1491 c 0,2,3
 784 1453 784 1453 784 1402 c 0,4,5
 784 1383 784 1383 780 1362 c 0,6,7
 764 1287 764 1287 699.5 1233 c 128,-1,8
 635 1179 635 1179 561 1179 c 0,9,10
 485 1179 485 1179 445 1233 c 0,11,12
 415 1272 415 1272 415 1322 c 0,13,14
 415 1341 415 1341 419 1361 c 0,15,16
 435 1437 435 1437 499 1490 c 0,17,18
 563 1544 563 1544 638 1544 c 0,0,1
166 -20 m 1,19,-1
 156 -20 l 1,20,-1
 369 982 l 1,21,-1
 688 1120 l 1,22,-1
 698 1120 l 1,23,-1
 485 118 l 1,24,-1
 166 -20 l 1,19,-1
EndSplineSet
Validated: 1
EndChar

StartChar: j
Encoding: 106 106 76
Width: 620
GlyphClass: 2
Flags: W
HStem: -410 140<-70 109.942> 1100 20G<641.768 698> 1179 365<511.097 687.323>
DStem2: 72.8026 -410 372.745 -410 0.207912 0.978148<175.931 1423.16>
LayerCount: 2
Fore
SplineSet
688 1120 m 1,0,-1
 698 1120 l 1,1,-1
 438 -103 l 2,2,3
 373 -410 373 -410 63 -410 c 2,4,-1
 -162 -410 l 1,5,-1
 -160 -400 l 1,6,-1
 -70 -270 l 1,7,-1
 63 -270 l 2,8,9
 103 -270 103 -270 110 -235 c 2,10,-1
 369 982 l 1,11,-1
 688 1120 l 1,0,-1
638 1544 m 0,12,13
 714 1544 714 1544 755 1491 c 0,14,15
 784 1453 784 1453 784 1402 c 0,16,17
 784 1383 784 1383 780 1362 c 0,18,19
 764 1287 764 1287 699.5 1233 c 128,-1,20
 635 1179 635 1179 561 1179 c 0,21,22
 485 1179 485 1179 445 1233 c 0,23,24
 415 1272 415 1272 415 1322 c 0,25,26
 415 1341 415 1341 419 1361 c 0,27,28
 435 1437 435 1437 499 1490 c 0,29,30
 563 1544 563 1544 638 1544 c 0,12,13
EndSplineSet
Validated: 1
EndChar

StartChar: k
Encoding: 107 107 77
Width: 1210
GlyphClass: 2
Flags: W
HStem: -20 21G<156 212.232 786 842.232> 1100 20G<1117.47 1199.89> 1510 20G<728.768 785>
DStem2: 156 -20 455.667 -20 0.207912 0.978148<203.387 784.042 921.026 1443.52> 634 820 903 817 0.86535 0.501168<231.276 598.602> 786 -20 1085.67 -20 0.207912 0.978148<203.387 686.478>
LayerCount: 2
Fore
SplineSet
903 817 m 1,0,1
 1208 817 1208 817 1208 597 c 0,2,3
 1208 557 1208 557 1198 510 c 2,4,-1
 1115 118 l 1,5,-1
 796 -20 l 1,6,-1
 786 -20 l 1,7,-1
 926 642 l 2,8,9
 927 647 927 647 927 652 c 0,10,11
 927 677 927 677 894 677 c 2,12,-1
 644 677 l 2,13,14
 603 677 603 677 596 642 c 2,15,-1
 485 118 l 1,16,-1
 166 -20 l 1,17,-1
 156 -20 l 1,18,-1
 456 1392 l 1,19,-1
 775 1530 l 1,20,-1
 785 1530 l 1,21,-1
 634 820 l 1,22,-1
 1152 1120 l 1,23,-1
 1162 1120 l 1,24,-1
 1306 1044 l 1,25,-1
 903 817 l 1,0,1
EndSplineSet
Validated: 1
EndChar

StartChar: l
Encoding: 108 108 78
Width: 620
GlyphClass: 2
Flags: W
HStem: -20 21G<156 212.232> 1510 20G<728.768 785>
VStem: 156 629
DStem2: 156 -20 455.667 -20 0.207912 0.978148<203.387 1443.52>
LayerCount: 2
Fore
SplineSet
166 -20 m 1,0,-1
 156 -20 l 1,1,-1
 456 1392 l 1,2,-1
 775 1530 l 1,3,-1
 785 1530 l 1,4,-1
 485 118 l 1,5,-1
 166 -20 l 1,0,-1
EndSplineSet
Validated: 1
EndChar

StartChar: m
Encoding: 109 109 79
Width: 1880
GlyphClass: 2
Flags: W
HStem: -20 21G<136 192.232 786 842.232 1436 1492.23> 960 140<637.058 985.153 1287 1632.84>
DStem2: 136 -20 435.667 -20 0.207912 0.978148<203.387 1031.49> 786 -20 1085.67 -20 0.207912 0.978148<203.387 975.976> 1436 -20 1735.67 -20 0.207912 0.978148<203.387 975.976>
LayerCount: 2
Fore
SplineSet
146 -20 m 1,0,-1
 136 -20 l 1,1,-1
 309 793 l 2,2,3
 374 1100 374 1100 684 1100 c 2,4,-1
 954 1100 l 2,5,6
 1068 1100 1068 1100 1136 1065 c 1,7,8
 1219 1100 1219 1100 1334 1100 c 2,9,-1
 1604 1100 l 2,10,11
 1919 1100 1919 1100 1919 878 c 0,12,13
 1919 839 1919 839 1909 793 c 2,14,-1
 1765 118 l 1,15,-1
 1446 -20 l 1,16,-1
 1436 -20 l 1,17,-1
 1637 925 l 2,18,19
 1638 930 1638 930 1638 935 c 0,20,21
 1638 960 1638 960 1604 960 c 2,22,-1
 1334 960 l 2,23,24
 1294 960 1294 960 1287 925 c 2,25,-1
 1115 118 l 1,26,-1
 796 -20 l 1,27,-1
 786 -20 l 1,28,-1
 987 925 l 2,29,30
 988 930 988 930 988 935 c 0,31,32
 988 960 988 960 954 960 c 2,33,-1
 684 960 l 2,34,35
 644 960 644 960 637 925 c 2,36,-1
 465 118 l 1,37,-1
 146 -20 l 1,0,-1
EndSplineSet
Validated: 1
EndChar

StartChar: n
Encoding: 110 110 80
Width: 1230
GlyphClass: 2
Flags: W
HStem: -20 21G<136 192.232 786 842.232> 960 140<637.058 982.839>
DStem2: 136 -20 435.667 -20 0.207912 0.978148<203.387 1031.49> 786 -20 1085.67 -20 0.207912 0.978148<203.387 975.976>
LayerCount: 2
Fore
SplineSet
146 -20 m 1,0,-1
 136 -20 l 1,1,-1
 309 793 l 2,2,3
 374 1100 374 1100 684 1100 c 2,4,-1
 954 1100 l 2,5,6
 1269 1100 1269 1100 1269 878 c 0,7,8
 1269 839 1269 839 1259 793 c 2,9,-1
 1115 118 l 1,10,-1
 796 -20 l 1,11,-1
 786 -20 l 1,12,-1
 987 925 l 2,13,14
 988 930 988 930 988 935 c 0,15,16
 988 960 988 960 954 960 c 2,17,-1
 684 960 l 2,18,19
 644 960 644 960 637 925 c 2,20,-1
 465 118 l 1,21,-1
 146 -20 l 1,0,-1
EndSplineSet
Validated: 1
EndChar

StartChar: o
Encoding: 111 111 81
Width: 1190
GlyphClass: 2
Flags: W
HStem: 0 140<470.62 796.999> 960 140<627.001 953.38>
VStem: 175 291<140.486 374.781> 958 291<725.219 959.514>
DStem2: 119.745 0 429.803 0 0.207912 0.978148<233.538 1011.25> 760.385 0 1070.44 0 0.207912 0.978148<177.792 955.502>
LayerCount: 2
Fore
SplineSet
750 140 m 2,0,1
 790 140 790 140 797 175 c 2,2,-1
 957 925 l 2,3,4
 958 930 958 930 958 935 c 0,5,6
 958 960 958 960 924 960 c 2,7,-1
 674 960 l 2,8,9
 634 960 634 960 627 925 c 2,10,-1
 467 175 l 2,11,12
 466 170 466 170 466 165 c 0,13,14
 466 140 466 140 500 140 c 2,15,-1
 750 140 l 2,0,1
760 0 m 2,16,-1
 490 0 l 2,17,18
 175 0 175 0 175 222 c 0,19,20
 175 261 175 261 185 307 c 2,21,-1
 289 793 l 2,22,23
 355 1100 355 1100 664 1100 c 2,24,-1
 934 1100 l 2,25,26
 1249 1100 1249 1100 1249 878 c 0,27,28
 1249 839 1249 839 1239 793 c 2,29,-1
 1135 307 l 2,30,31
 1069 0 1069 0 760 0 c 2,16,-1
EndSplineSet
Validated: 1
EndChar

StartChar: p
Encoding: 112 112 82
Width: 1210
GlyphClass: 2
Flags: W
HStem: -430 21G<49 105.232> 0 140<476.859 816.999> 960 140<637.058 973.38>
VStem: 978 291<725.219 959.514>
DStem2: 49 -430 348.667 -430 0.207912 0.978148<203.387 511.797 670.929 1450.62> 688.986 -430 999.043 -430 0.207912 0.978148<617.398 1395.11>
LayerCount: 2
Fore
SplineSet
510 140 m 2,0,-1
 770 140 l 2,1,2
 810 140 810 140 817 175 c 2,3,-1
 977 925 l 2,4,5
 978 930 978 930 978 935 c 0,6,7
 978 960 978 960 944 960 c 2,8,-1
 684 960 l 2,9,10
 644 960 644 960 637 925 c 2,11,-1
 477 175 l 2,12,13
 476 170 476 170 476 165 c 0,14,15
 476 140 476 140 510 140 c 2,0,-1
780 0 m 2,16,-1
 510 0 l 2,17,18
 460 0 460 0 441 6 c 1,19,-1
 378 -292 l 1,20,-1
 59 -430 l 1,21,-1
 49 -430 l 1,22,-1
 309 793 l 2,23,24
 374 1100 374 1100 684 1100 c 2,25,-1
 954 1100 l 2,26,27
 1269 1100 1269 1100 1269 878 c 0,28,29
 1269 839 1269 839 1259 793 c 2,30,-1
 1155 307 l 2,31,32
 1089 0 1089 0 780 0 c 2,16,-1
EndSplineSet
Validated: 1
EndChar

StartChar: q
Encoding: 113 113 83
Width: 1210
GlyphClass: 2
Flags: W
HStem: -430 21G<679 735.232> 0 140<470.62 770.344> 960 140<627.001 962.839>
VStem: 175 291<140.486 374.781> 968 281<725.484 959.514>
DStem2: 28.3458 -430 338.403 -430 0.207912 0.978148<673.144 1450.85> 679 -430 978.667 -430 0.207912 0.978148<203.387 445.6 573.54 1395.11>
LayerCount: 2
Fore
SplineSet
760 140 m 2,0,1
 800 140 800 140 807 175 c 2,2,-1
 967 925 l 2,3,4
 968 930 968 930 968 935 c 0,5,6
 968 960 968 960 934 960 c 2,7,-1
 674 960 l 2,8,9
 634 960 634 960 627 925 c 2,10,-1
 467 175 l 2,11,12
 466 170 466 170 466 165 c 0,13,14
 466 140 466 140 500 140 c 2,15,-1
 760 140 l 2,0,1
490 0 m 2,16,17
 175 0 175 0 175 222 c 0,18,19
 175 261 175 261 185 307 c 2,20,-1
 289 793 l 2,21,22
 355 1100 355 1100 664 1100 c 2,23,-1
 934 1100 l 2,24,25
 1249 1100 1249 1100 1249 878 c 0,26,27
 1249 839 1249 839 1239 793 c 2,28,-1
 1008 -292 l 1,29,-1
 689 -430 l 1,30,-1
 679 -430 l 1,31,-1
 771 6 l 1,32,33
 750 0 750 0 730 0 c 2,34,-1
 490 0 l 2,16,17
EndSplineSet
Validated: 1
EndChar

StartChar: r
Encoding: 114 114 84
Width: 860
GlyphClass: 2
Flags: W
HStem: -20 21G<136 192.232> 960 140<637.058 992>
DStem2: 136 -20 435.667 -20 0.207912 0.978148<203.387 1031.49>
LayerCount: 2
Fore
SplineSet
146 -20 m 1,0,-1
 136 -20 l 1,1,-1
 309 793 l 2,2,3
 374 1100 374 1100 684 1100 c 2,4,-1
 1084 1100 l 1,5,-1
 1082 1090 l 1,6,-1
 992 960 l 1,7,-1
 684 960 l 2,8,9
 644 960 644 960 637 925 c 2,10,-1
 465 118 l 1,11,-1
 146 -20 l 1,0,-1
EndSplineSet
Validated: 1
EndChar

StartChar: t
Encoding: 116 116 85
Width: 890
GlyphClass: 2
Flags: W
HStem: -20 21G<296 352.26> 960 140<306 504 819 1022> 1510 20G<853.74 910>
DStem2: 296 -20 581.155 -20 0.207912 0.978148<193.214 1001.83 1204.26 1450.57>
LayerCount: 2
Fore
SplineSet
306 -20 m 1,0,-1
 296 -20 l 1,1,-1
 504 960 l 1,2,-1
 214 960 l 1,3,-1
 216 970 l 1,4,-1
 306 1100 l 1,5,-1
 534 1100 l 1,6,-1
 597 1399 l 1,7,-1
 900 1530 l 1,8,-1
 910 1530 l 1,9,-1
 819 1100 l 1,10,-1
 1114 1100 l 1,11,-1
 1112 1090 l 1,12,-1
 1022 960 l 1,13,-1
 789 960 l 1,14,-1
 609 111 l 1,15,-1
 306 -20 l 1,0,-1
EndSplineSet
Validated: 1
EndChar

StartChar: u
Encoding: 117 117 86
Width: 1230
GlyphClass: 2
Flags: W
HStem: 0 140<481.161 826.942> 1100 20G<621.768 678 1271.77 1328>
DStem2: 139.745 0 439.803 0 0.207912 0.978148<231.459 1004.05> 790.269 0 1089.94 0 0.207912 0.978148<175.834 1003.94>
LayerCount: 2
Fore
SplineSet
510 0 m 2,0,1
 195 0 195 0 195 222 c 0,2,3
 195 261 195 261 205 307 c 2,4,-1
 349 982 l 1,5,-1
 668 1120 l 1,6,-1
 678 1120 l 1,7,-1
 477 175 l 2,8,9
 476 170 476 170 476 165 c 0,10,11
 476 140 476 140 510 140 c 2,12,-1
 780 140 l 2,13,14
 820 140 820 140 827 175 c 2,15,-1
 999 982 l 1,16,-1
 1318 1120 l 1,17,-1
 1328 1120 l 1,18,-1
 1155 307 l 2,19,20
 1090 0 1090 0 780 0 c 2,21,-1
 510 0 l 2,0,1
EndSplineSet
Validated: 1
EndChar

StartChar: v
Encoding: 118 118 87
Width: 1108
GlyphClass: 2
Flags: W
HStem: -20 21G<408.207 468.25> 1100 20G<441.846 501.774 1177.14 1239.08>
DStem2: 498 1120 218 1003 0.186318 -0.98249<62.7823 846.683> 655 288 718 108 0.540892 0.841092<0 989.166>
LayerCount: 2
Fore
SplineSet
422 -20 m 1,0,-1
 412 -20 l 1,1,-1
 218 1003 l 1,2,-1
 488 1120 l 1,3,-1
 498 1120 l 1,4,-1
 655 288 l 1,5,-1
 1190 1120 l 1,6,-1
 1200 1120 l 1,7,-1
 1327 1055 l 1,8,-1
 718 108 l 1,9,-1
 422 -20 l 1,0,-1
EndSplineSet
Validated: 1
EndChar

StartChar: w
Encoding: 119 119 88
Width: 1880
GlyphClass: 2
Flags: W
HStem: 0 140<481.161 826.999 1128.83 1476.94> 1100 20G<621.768 678 1271.77 1328 1921.77 1978>
DStem2: 139.745 0 439.803 0 0.207912 0.978148<231.459 1004.05> 789.803 0 1089.8 0 0.207912 0.978148<231.447 1004.04> 1440.27 0 1739.94 0 0.207912 0.978148<175.834 1003.94>
LayerCount: 2
Fore
SplineSet
510 0 m 2,0,1
 195 0 195 0 195 222 c 0,2,3
 195 261 195 261 205 307 c 2,4,-1
 349 982 l 1,5,-1
 668 1120 l 1,6,-1
 678 1120 l 1,7,-1
 477 175 l 2,8,9
 476 170 476 170 476 165 c 0,10,11
 476 140 476 140 510 140 c 2,12,-1
 780 140 l 2,13,14
 820 140 820 140 827 175 c 2,15,-1
 999 982 l 1,16,-1
 1318 1120 l 1,17,-1
 1328 1120 l 1,18,-1
 1127 175 l 2,19,20
 1126 170 1126 170 1126 165 c 0,21,22
 1126 140 1126 140 1160 140 c 2,23,-1
 1430 140 l 2,24,25
 1470 140 1470 140 1477 175 c 2,26,-1
 1649 982 l 1,27,-1
 1968 1120 l 1,28,-1
 1978 1120 l 1,29,-1
 1805 307 l 2,30,31
 1740 0 1740 0 1430 0 c 2,32,-1
 1160 0 l 2,33,34
 1046 0 1046 0 977 35 c 1,35,36
 894 0 894 0 780 0 c 2,37,-1
 510 0 l 2,0,1
EndSplineSet
Validated: 1
EndChar

StartChar: x
Encoding: 120 120 89
Width: 984
GlyphClass: 2
Flags: W
HStem: -20 21G<105.846 173.442 720.203 786.667> 1100 20G<430.761 496.798 1046.56 1113.54>
DStem2: 20 45 154 -20 0.697373 0.716708<46.862 596.339 947.609 1499.91> 487 1120 225 1011 0.439538 -0.898224<0 440.967 692.052 1130.78>
LayerCount: 2
Fore
SplineSet
154 -20 m 1,0,-1
 144 -20 l 1,1,-1
 20 45 l 1,2,-1
 471 509 l 1,3,-1
 225 1011 l 1,4,-1
 477 1120 l 1,5,-1
 487 1120 l 1,6,-1
 681 724 l 1,7,-1
 1066 1120 l 1,8,-1
 1076 1120 l 1,9,-1
 1198 1055 l 1,10,-1
 746 590 l 1,11,-1
 992 88 l 1,12,-1
 740 -20 l 1,13,-1
 730 -20 l 1,14,-1
 537 374 l 1,15,-1
 154 -20 l 1,0,-1
EndSplineSet
Validated: 1
EndChar

StartChar: y
Encoding: 121 121 90
Width: 1250
GlyphClass: 2
Flags: W
HStem: -410 140<285 739.942> 0 140<481.161 790.344> 1100 20G<621.768 678 1271.77 1328>
DStem2: 52.5969 -410 352.654 -410 0.207912 0.978148<650.618 1423.21> 702.576 -410 1002.75 -410 0.207912 0.978148<175.978 425.294 553.201 1423.21>
LayerCount: 2
Fore
SplineSet
510 0 m 2,0,1
 195 0 195 0 195 222 c 0,2,3
 195 261 195 261 205 307 c 2,4,-1
 349 982 l 1,5,-1
 668 1120 l 1,6,-1
 678 1120 l 1,7,-1
 477 175 l 2,8,9
 476 170 476 170 476 165 c 0,10,11
 476 140 476 140 510 140 c 2,12,-1
 780 140 l 2,13,14
 820 140 820 140 827 175 c 2,15,-1
 999 982 l 1,16,-1
 1318 1120 l 1,17,-1
 1328 1120 l 1,18,-1
 1068 -103 l 2,19,20
 1003 -410 1003 -410 693 -410 c 2,21,-1
 193 -410 l 1,22,-1
 195 -400 l 1,23,-1
 285 -270 l 1,24,-1
 693 -270 l 2,25,26
 733 -270 733 -270 740 -235 c 2,27,-1
 791 6 l 1,28,29
 770 0 770 0 750 0 c 2,30,-1
 510 0 l 2,0,1
EndSplineSet
Validated: 1
EndChar

StartChar: z
Encoding: 122 122 91
Width: 974
GlyphClass: 2
Flags: W
HStem: 0 140<454 902> 960 140<338 755>
DStem2: 12 10 454 140 0.616062 0.787697<374.7 1206.05>
LayerCount: 2
Fore
SplineSet
10 0 m 1,0,-1
 12 10 l 1,1,-1
 755 960 l 1,2,-1
 246 960 l 1,3,-1
 248 970 l 1,4,-1
 338 1100 l 1,5,-1
 1198 1100 l 1,6,-1
 1196 1090 l 1,7,-1
 454 140 l 1,8,-1
 994 140 l 1,9,-1
 992 130 l 1,10,-1
 902 0 l 1,11,-1
 10 0 l 1,0,-1
EndSplineSet
Validated: 1
EndChar

StartChar: braceleft
Encoding: 123 123 92
Width: 830
GlyphClass: 2
Flags: W
HStem: -240 150<556.52 749> 680 150<253 379> 1600 150<895.672 1140>
DStem2: 183.229 -240 503.025 -240 0.207912 0.978148<280.7 940.599 1093.77 1876.42>
CounterMasks: 1 e0
LayerCount: 2
Fore
SplineSet
749 -240 m 1,0,-1
 623 -240 l 2,1,2
 251 -240 251 -240 251 31 c 0,3,4
 251 81 251 81 264 140 c 2,5,-1
 379 680 l 1,6,-1
 155 680 l 1,7,-1
 157 690 l 1,8,-1
 253 830 l 1,9,-1
 410 830 l 1,10,-1
 525 1370 l 2,11,12
 606 1750 606 1750 986 1750 c 2,13,-1
 1172 1750 l 1,14,-1
 1140 1600 l 1,15,-1
 974 1600 l 2,16,17
 894 1600 894 1600 879 1529 c 2,18,-1
 550 -19 l 2,19,20
 548 -30 548 -30 548 -40 c 0,21,22
 548 -90 548 -90 615 -90 c 2,23,-1
 781 -90 l 1,24,-1
 749 -240 l 1,0,-1
EndSplineSet
Validated: 1
EndChar

StartChar: bar
Encoding: 124 124 93
Width: 690
GlyphClass: 2
Flags: W
VStem: 167 676
DStem2: 167 -200 437.643 -200 0.207912 0.978148<183.04 1825.98>
LayerCount: 2
Fore
SplineSet
167 -200 m 1,0,-1
 547 1586 l 1,1,-1
 833 1710 l 1,2,-1
 843 1710 l 1,3,-1
 464 -76 l 1,4,-1
 177 -200 l 1,5,-1
 167 -200 l 1,0,-1
EndSplineSet
Validated: 1
EndChar

StartChar: braceright
Encoding: 125 125 94
Width: 830
GlyphClass: 2
Flags: W
HStem: -240 150<11 255.328> 680 150<772 898> 1600 150<402 594.48>
VStem: 603 297<1331.66 1597.9>
DStem2: 225.025 -240 545.229 -240 0.207912 0.978148<224.52 1007.17 1160.34 1820.24>
CounterMasks: 1 e0
LayerCount: 2
Fore
SplineSet
-21 -240 m 1,0,-1
 11 -90 l 1,1,-1
 177 -90 l 2,2,3
 257 -90 257 -90 272 -19 c 2,4,-1
 601 1529 l 2,5,6
 603 1540 603 1540 603 1550 c 0,7,8
 603 1600 603 1600 536 1600 c 2,9,-1
 370 1600 l 1,10,-1
 402 1750 l 1,11,-1
 528 1750 l 2,12,13
 900 1750 900 1750 900 1479 c 0,14,15
 900 1429 900 1429 887 1370 c 2,16,-1
 772 830 l 1,17,-1
 996 830 l 1,18,-1
 994 820 l 1,19,-1
 898 680 l 1,20,-1
 741 680 l 1,21,-1
 626 140 l 2,22,23
 545 -240 545 -240 165 -240 c 2,24,-1
 -21 -240 l 1,0,-1
EndSplineSet
Validated: 1
EndChar

StartChar: asciitilde
Encoding: 126 126 95
Width: 1178
GlyphClass: 2
Flags: W
HStem: 515 212<789.378 1036.55> 785 212<463.066 709.622>
LayerCount: 2
Fore
SplineSet
628 997 m 0,0,1
 809 997 809 997 855 844 c 0,2,3
 872 787 872 787 888 763 c 0,4,5
 912 727 912 727 961 727 c 0,6,7
 1065 727 1065 727 1108 928 c 1,8,-1
 1270 997 l 1,9,-1
 1280 997 l 1,10,11
 1178 515 1178 515 871 515 c 0,12,13
 690 515 690 515 644 668 c 0,14,15
 627 725 627 725 611 749 c 0,16,17
 587 785 587 785 539 785 c 0,18,19
 435 785 435 785 391 584 c 1,20,-1
 229 515 l 1,21,-1
 219 515 l 1,22,23
 322 997 322 997 628 997 c 0,0,1
EndSplineSet
Validated: 1
EndChar

StartChar: exclamdown
Encoding: 161 161 97
Width: 640
GlyphClass: 2
Flags: W
HStem: -430 21G<69 125.395> 755 365<431.097 607.323>
VStem: 69 635
DStem2: 69 -430 388.754 -430 0.207912 0.978148<216.765 1010.07>
LayerCount: 2
Fore
SplineSet
558 1120 m 0,0,1
 634 1120 634 1120 675 1067 c 0,2,3
 704 1029 704 1029 704 978 c 0,4,5
 704 959 704 959 700 938 c 0,6,7
 684 863 684 863 619.5 809 c 128,-1,8
 555 755 555 755 481 755 c 0,9,10
 405 755 405 755 365 809 c 0,11,12
 335 848 335 848 335 898 c 0,13,14
 335 917 335 917 339 937 c 0,15,16
 355 1013 355 1013 419 1066 c 0,17,18
 483 1120 483 1120 558 1120 c 0,0,1
79 -430 m 1,19,-1
 69 -430 l 1,20,-1
 279 558 l 1,21,-1
 620 705 l 1,22,-1
 630 705 l 1,23,-1
 420 -283 l 1,24,-1
 79 -430 l 1,19,-1
EndSplineSet
Validated: 1
EndChar

StartChar: cent
Encoding: 162 162 98
Width: 1070
GlyphClass: 2
Flags: W
HStem: 0 140<470.62 515 664 748.435> 960 140<627.001 719 868 912.642>
VStem: 913 284<859.43 955.218>
DStem2: 94.2383 -120 404.296 -120 0.207912 0.978148<356.219 1133.93> 489 -120 609.16 -120 0.207912 0.978148<77.122 122.783 290.703 1104.22 1272.14 1317.8>
LayerCount: 2
Fore
SplineSet
720 0 m 2,0,-1
 635 0 l 1,1,-1
 620 -69 l 1,2,-1
 499 -120 l 1,3,-1
 489 -120 l 1,4,-1
 515 0 l 1,5,-1
 490 0 l 2,6,7
 175 0 175 0 175 222 c 0,8,9
 175 260 175 260 185 307 c 2,10,-1
 289 793 l 2,11,12
 355 1100 355 1100 664 1100 c 2,13,-1
 748 1100 l 1,14,-1
 763 1169 l 1,15,-1
 884 1220 l 1,16,-1
 894 1220 l 1,17,-1
 868 1100 l 1,18,-1
 894 1100 l 2,19,20
 1197 1100 1197 1100 1197 872 c 0,21,22
 1197 832 1197 832 1187 786 c 1,23,-1
 862 646 l 1,24,-1
 852 646 l 1,25,-1
 912 925 l 2,26,27
 913 930 913 930 913 935 c 0,28,29
 913 960 913 960 879 960 c 2,30,-1
 839 960 l 1,31,-1
 664 140 l 1,32,-1
 705 140 l 2,33,34
 745 140 745 140 752 175 c 2,35,-1
 783 320 l 1,36,-1
 1119 465 l 1,37,-1
 1129 465 l 1,38,-1
 1095 307 l 2,39,40
 1029 0 1029 0 720 0 c 2,0,-1
544 140 m 1,41,-1
 719 960 l 1,42,-1
 674 960 l 2,43,44
 634 960 634 960 627 925 c 2,45,-1
 467 175 l 2,46,47
 466 170 466 170 466 165 c 0,48,49
 466 140 466 140 500 140 c 2,50,-1
 544 140 l 1,41,-1
EndSplineSet
Validated: 1
EndChar

StartChar: sterling
Encoding: 163 163 99
Width: 1375
GlyphClass: 2
Flags: W
HStem: 0 150<209 292 612 1198> 625 150<343 393 745 1060> 1360 150<870.453 1139.85>
VStem: 1144 312<1224.22 1358.23>
DStem2: 260.117 0 580.117 0 0.207912 0.978148<219.883 638.97 858.877 1385.63>
LayerCount: 2
Fore
SplineSet
110 0 m 1,0,-1
 112 10 l 1,1,-1
 209 150 l 1,2,-1
 292 150 l 1,3,-1
 393 625 l 1,4,-1
 244 625 l 1,5,-1
 246 635 l 1,6,-1
 343 775 l 1,7,-1
 425 775 l 1,8,-1
 500 1130 l 2,9,10
 580 1510 580 1510 961 1510 c 2,11,-1
 1084 1510 l 2,12,13
 1456 1510 1456 1510 1456 1271 c 0,14,15
 1456 1236 1456 1236 1447 1195 c 1,16,-1
 1100 1045 l 1,17,-1
 1090 1045 l 1,18,-1
 1142 1289 l 2,19,20
 1144 1298 1144 1298 1144 1310 c 0,21,22
 1144 1360 1144 1360 1077 1360 c 2,23,-1
 949 1360 l 2,24,25
 869 1360 869 1360 854 1289 c 2,26,-1
 745 775 l 1,27,-1
 1160 775 l 1,28,-1
 1158 765 l 1,29,-1
 1060 625 l 1,30,-1
 713 625 l 1,31,-1
 612 150 l 1,32,-1
 1297 150 l 1,33,-1
 1295 140 l 1,34,-1
 1198 0 l 1,35,-1
 110 0 l 1,0,-1
EndSplineSet
Validated: 1
EndChar

StartChar: currency
Encoding: 164 164 100
Width: 1535
GlyphClass: 2
Flags: W
HStem: 180 150<606.461 1086.8> 1179 150<770.105 1250.62>
VStem: 313 293<355 601.195> 1251 292<907.805 1129.78>
DStem2: 241.229 180 561.025 180 0.207912 0.978148<313.351 938.291> 1051.02 180 1371.23 180 0.207912 0.978148<305.988 928.668>
LayerCount: 2
Fore
SplineSet
673 330 m 2,0,-1
 1003 330 l 2,1,2
 1083 330 1083 330 1098 401 c 2,3,-1
 1249 1108 l 2,4,5
 1251 1119 1251 1119 1251 1129 c 0,6,7
 1251 1179 1251 1179 1184 1179 c 2,8,-1
 854 1179 l 2,9,10
 774 1179 774 1179 759 1108 c 2,11,-1
 608 401 l 2,12,13
 606 390 606 390 606 380 c 0,14,15
 606 330 606 330 673 330 c 2,0,-1
895 1329 m 2,16,-1
 1205 1329 l 2,17,18
 1300 1329 1300 1329 1365 1299 c 1,19,-1
 1394 1323 l 1,20,-1
 1676 1215 l 1,21,-1
 1682 1208 l 1,22,-1
 1537 1089 l 1,23,24
 1543 1058 1543 1058 1543 1026 c 0,25,26
 1543 989 1543 989 1535 949 c 2,27,-1
 1452 560 l 2,28,29
 1435 480 1435 480 1402 416 c 1,30,-1
 1490 305 l 1,31,-1
 1481 298 l 1,32,-1
 1152 190 l 1,33,-1
 1142 203 l 1,34,35
 1061 180 1061 180 961 180 c 2,36,-1
 651 180 l 2,37,38
 552 180 552 180 487 213 c 1,39,-1
 464 192 l 1,40,-1
 181 300 l 1,41,-1
 175 307 l 1,42,-1
 320 426 l 1,43,44
 313 453 313 453 313 484 c 0,45,46
 313 519 313 519 322 560 c 2,47,-1
 405 949 l 2,48,49
 423 1033 423 1033 455 1096 c 1,50,-1
 367 1209 l 1,51,-1
 375 1216 l 1,52,-1
 702 1323 l 1,53,-1
 716 1307 l 1,54,55
 795 1329 795 1329 895 1329 c 2,16,-1
EndSplineSet
Validated: 1
EndChar

StartChar: yen
Encoding: 165 165 101
Width: 1250
GlyphClass: 2
Flags: W
HStem: -20 21G<461 517.316> 94 140<311 485 835 1009> 294 273<847 976.327> 294 140<353 425 1009 1051> 1510 20G<668.605 725 1438.61 1495>
DStem2: 75.3413 -20 396.138 -20 0.207912 0.978148<721.655 1434.44> 846.138 -20 1165.34 -20 0.207912 0.978148<677.059 1434.27>
LayerCount: 2
Fore
SplineSet
471 -20 m 1,0,-1
 461 -20 l 1,1,-1
 485 94 l 1,2,-1
 220 94 l 1,3,-1
 222 104 l 1,4,-1
 311 234 l 1,5,-1
 515 234 l 1,6,-1
 527 294 l 1,7,-1
 262 294 l 1,8,-1
 265 304 l 1,9,-1
 353 434 l 1,10,-1
 425 434 l 1,11,12
 236 485 236 485 236 682 c 0,13,14
 236 734 236 734 249 797 c 2,15,-1
 374 1383 l 1,16,-1
 715 1530 l 1,17,-1
 725 1530 l 1,18,-1
 536 638 l 2,19,20
 534 627 534 627 534 617 c 0,21,22
 534 567 534 567 601 567 c 2,23,-1
 891 567 l 2,24,25
 971 567 971 567 986 638 c 2,26,-1
 1144 1383 l 1,27,-1
 1485 1530 l 1,28,-1
 1495 1530 l 1,29,-1
 1339 797 l 2,30,31
 1275 498 1275 498 1009 434 c 1,32,-1
 1142 434 l 1,33,-1
 1140 424 l 1,34,-1
 1051 294 l 1,35,-1
 847 294 l 1,36,-1
 835 234 l 1,37,-1
 1100 234 l 1,38,-1
 1098 224 l 1,39,-1
 1009 94 l 1,40,-1
 735 94 l 1,41,-1
 471 -20 l 1,0,-1
EndSplineSet
Validated: 1
EndChar

StartChar: brokenbar
Encoding: 166 166 102
Width: 690
GlyphClass: 2
Flags: W
VStem: 167 676
DStem2: 167 -200 437.643 -200 0.207912 0.978148<183.04 806.688 1194.09 1825.98>
LayerCount: 2
Fore
SplineSet
167 -200 m 1,0,-1
 335 589 l 1,1,-1
 622 713 l 1,2,-1
 632 713 l 1,3,-1
 464 -76 l 1,4,-1
 177 -200 l 1,5,-1
 167 -200 l 1,0,-1
833 1710 m 1,6,-1
 843 1710 l 1,7,-1
 674 913 l 1,8,-1
 388 789 l 1,9,-1
 378 789 l 1,10,-1
 547 1586 l 1,11,-1
 833 1710 l 1,6,-1
EndSplineSet
Validated: 1
EndChar

StartChar: section
Encoding: 167 167 103
Width: 1089
GlyphClass: 2
Flags: W
HStem: 0 140<485.721 686.402> 461 140<552.337 738.682> 909 140<671.318 857.663> 1370 140<723.598 924.279>
VStem: 227 258<142.615 248.742> 258 286<603.615 788.318> 400 265<1050.55 1282.68> 745 265<227.315 459.453> 866 286<721.682 906.385> 925 258<1261.26 1367.38>
LayerCount: 2
Fore
SplineSet
662 0 m 2,0,-1
 494 0 l 2,1,2
 227 0 227 0 227 204 c 0,3,4
 227 222 227 222 229 241 c 1,5,-1
 519 367 l 1,6,-1
 529 367 l 1,7,-1
 486 166 l 2,8,9
 485 161 485 161 485 160 c 0,10,11
 485 140 485 140 521 140 c 2,12,-1
 642 140 l 2,13,14
 682 140 682 140 688 169 c 2,15,-1
 744 431 l 2,16,17
 745 436 745 436 745 438 c 0,18,19
 745 461 745 461 710 461 c 2,20,-1
 582 461 l 2,21,22
 258 461 258 461 258 665 c 0,23,24
 258 696 258 696 266 733 c 2,25,-1
 278 789 l 2,26,27
 289 840 289 840 309 887 c 1,28,-1
 575 774 l 1,29,-1
 545 633 l 2,30,31
 544 628 544 628 544 624 c 0,32,33
 544 601 544 601 578 601 c 2,34,-1
 730 601 l 2,35,36
 1010 601 1010 601 1010 400 c 0,37,38
 1010 361 1010 361 999 313 c 2,39,-1
 991 278 l 2,40,41
 927 0 927 0 662 0 c 2,0,-1
748 1510 m 2,42,-1
 916 1510 l 2,43,44
 1183 1510 1183 1510 1183 1306 c 0,45,46
 1183 1288 1183 1288 1181 1269 c 1,47,-1
 891 1143 l 1,48,-1
 881 1143 l 1,49,-1
 924 1344 l 2,50,51
 925 1349 925 1349 925 1350 c 0,52,53
 925 1370 925 1370 889 1370 c 2,54,-1
 768 1370 l 2,55,56
 728 1370 728 1370 722 1341 c 2,57,-1
 666 1079 l 2,58,59
 665 1074 665 1074 665 1072 c 0,60,61
 665 1049 665 1049 700 1049 c 2,62,-1
 828 1049 l 2,63,64
 1152 1049 1152 1049 1152 845 c 0,65,66
 1152 814 1152 814 1144 777 c 2,67,-1
 1132 721 l 2,68,69
 1121 670 1121 670 1101 623 c 1,70,-1
 835 736 l 1,71,-1
 865 877 l 2,72,73
 866 882 866 882 866 886 c 0,74,75
 866 909 866 909 832 909 c 2,76,-1
 680 909 l 2,77,78
 400 909 400 909 400 1110 c 0,79,80
 400 1149 400 1149 411 1197 c 2,81,-1
 419 1232 l 2,82,83
 483 1510 483 1510 748 1510 c 2,42,-1
EndSplineSet
Validated: 1
EndChar

StartChar: dieresis
Encoding: 168 168 104
Width: 690
GlyphClass: 2
Flags: W
HStem: 1210 297<383.468 545.489 722.984 883.99>
VStem: 315 300<1278.5 1438.97> 653 300<1278.5 1437.11>
LayerCount: 2
Fore
SplineSet
834 1507 m 128,-1,1
 894 1507 894 1507 928 1463 c 0,2,3
 952 1432 952 1432 953 1391 c 0,4,5
 953 1374 953 1374 949 1358 c 0,6,7
 936 1298 936 1298 884 1254 c 128,-1,8
 832 1210 832 1210 771 1210 c 128,-1,9
 710 1210 710 1210 677 1254 c 0,10,11
 653 1286 653 1286 653 1325 c 0,12,13
 653 1341 653 1341 657 1358 c 0,14,15
 669 1417 669 1417 722 1462 c 0,16,0
 774 1507 774 1507 834 1507 c 128,-1,1
495.5 1507 m 128,-1,18
 556 1507 556 1507 590 1463 c 0,19,20
 615 1431 615 1431 615 1391 c 0,21,22
 615 1376 615 1376 611 1358 c 0,23,24
 598 1298 598 1298 545.5 1254 c 128,-1,25
 493 1210 493 1210 433 1210 c 0,26,27
 372 1210 372 1210 339 1254 c 0,28,29
 315 1286 315 1286 315 1325 c 0,30,31
 315 1341 315 1341 319 1358 c 0,32,33
 332 1419 332 1419 383 1462 c 0,34,17
 435 1507 435 1507 495.5 1507 c 128,-1,18
EndSplineSet
Validated: 1
EndChar

StartChar: copyright
Encoding: 169 169 105
Width: 1340
GlyphClass: 2
Flags: W
HStem: 386 52<604.584 925.646> 553 96<728.449 906.949> 1252 96<848.044 1019.86> 1478 52<824.632 1143.39>
VStem: 302 59<686.575 1015.56> 537 191<650.182 873.727> 1024 179<1104.61 1251.73> 1386 59<900.437 1234>
DStem2: 463.866 386 668.846 386 0.207912 0.978148<325.157 928.404>
LayerCount: 2
Fore
SplineSet
880 1348 m 2,0,-1
 1014 1348 l 2,1,2
 1203 1348 1203 1348 1203 1169 c 0,3,4
 1203 1142 1203 1142 1198 1111 c 1,5,-1
 991 1036 l 1,6,-1
 981 1036 l 1,7,-1
 1023 1232 l 2,8,9
 1024 1237 1024 1237 1024 1241 c 0,10,11
 1024 1252 1024 1252 1007 1252 c 2,12,-1
 873 1252 l 2,13,14
 853 1252 853 1252 850 1237 c 2,15,-1
 729 669 l 2,16,17
 728 664 728 664 728 660 c 0,18,19
 728 649 728 649 745 649 c 2,20,-1
 879 649 l 2,21,22
 899 649 899 649 902 664 c 2,23,-1
 928 785 l 1,24,-1
 1143 872 l 1,25,-1
 1153 872 l 1,26,-1
 1130 763 l 2,27,28
 1086 553 1086 553 875 553 c 2,29,-1
 741 553 l 2,30,31
 537 553 537 553 537 702 c 0,32,33
 537 730 537 730 544 763 c 2,34,-1
 624 1138 l 2,35,36
 669 1348 669 1348 880 1348 c 2,0,-1
754 386 m 0,37,38
 528 386 528 386 398 549 c 0,39,40
 302 669 302 669 302 841 c 0,41,42
 302 890 302 890 310 943 c 0,43,44
 345 1183 345 1183 555 1362 c 0,45,46
 752 1530 752 1530 993 1530 c 0,47,48
 1219 1530 1219 1530 1349 1367 c 0,49,50
 1445 1247 1445 1247 1445 1075 c 0,51,52
 1445 1026 1445 1026 1437 973 c 0,53,54
 1402 733 1402 733 1192 554 c 0,55,56
 994 386 994 386 754 386 c 0,37,38
983 1478 m 0,57,58
 783 1478 783 1478 603 1330 c 0,59,60
 421 1181 421 1181 373 953 c 0,61,62
 361 897 361 897 361 843 c 0,63,64
 361 704 361 704 442 587 c 0,65,66
 545 438 545 438 764 438 c 0,67,68
 964 438 964 438 1144 586 c 0,69,70
 1326 735 1326 735 1374 963 c 0,71,72
 1386 1022 1386 1022 1386 1077 c 0,73,74
 1386 1216 1386 1216 1308 1329 c 0,75,76
 1205 1478 1205 1478 983 1478 c 0,57,58
EndSplineSet
Validated: 1
EndChar

StartChar: ordfeminine
Encoding: 170 170 106
Width: 581
GlyphClass: 2
Flags: W
HStem: 733 180<295 626> 979 90<450.93 577> 1245 90<485 628> 1480 90<504 677>
VStem: 176 678
DStem2: 518.581 733 706.745 733 0.207912 0.978148<352.98 523.561 615.337 763.077>
LayerCount: 2
Fore
SplineSet
680 1570 m 2,0,1
 854 1570 854 1570 854 1446 c 0,2,3
 854 1424 854 1424 848 1398 c 2,4,-1
 772 1040 l 1,5,-1
 577 969 l 1,6,-1
 567 969 l 1,7,-1
 569 979 l 1,8,-1
 472 979 l 2,9,10
 298 979 298 979 298 1103 c 0,11,12
 298 1126 298 1126 304 1153 c 2,13,-1
 309 1176 l 2,14,15
 344 1335 344 1335 519 1335 c 2,16,-1
 646 1335 l 1,17,-1
 677 1480 l 1,18,-1
 447 1480 l 1,19,-1
 449 1490 l 1,20,-1
 504 1570 l 1,21,-1
 680 1570 l 2,0,1
447 1069 m 1,22,-1
 590 1069 l 1,23,-1
 628 1245 l 1,24,-1
 485 1245 l 1,25,-1
 447 1069 l 1,22,-1
295 913 m 1,26,-1
 745 913 l 1,27,-1
 743 903 l 1,28,-1
 626 733 l 1,29,-1
 176 733 l 1,30,-1
 178 743 l 1,31,-1
 295 913 l 1,26,-1
EndSplineSet
Validated: 1
EndChar

StartChar: guillemotleft
Encoding: 171 171 107
Width: 1292
GlyphClass: 2
Flags: W
DStem2: 544 857 270 755 0.35398 -0.935253<0 525.631> 270 755 544 857 0.626077 0.779761<251.081 793.832> 1025 857 751 755 0.35398 -0.935253<0 525.631> 751 755 1025 857 0.626077 0.779761<251.081 793.832>
LayerCount: 2
Fore
SplineSet
751 755 m 1,0,-1
 1248 1374 l 1,1,-1
 1258 1374 l 1,2,-1
 1384 1307 l 1,3,-1
 1025 857 l 1,4,-1
 1210 365 l 1,5,-1
 951 253 l 1,6,-1
 941 253 l 1,7,-1
 751 755 l 1,0,-1
270 755 m 1,8,-1
 767 1374 l 1,9,-1
 777 1374 l 1,10,-1
 903 1307 l 1,11,-1
 544 857 l 1,12,-1
 729 365 l 1,13,-1
 470 253 l 1,14,-1
 460 253 l 1,15,-1
 270 755 l 1,8,-1
EndSplineSet
Validated: 1
EndChar

StartChar: logicalnot
Encoding: 172 172 108
Width: 1240
GlyphClass: 2
Flags: W
HStem: 620 270<424 891>
VStem: 709 246<358 604>
LayerCount: 2
Fore
SplineSet
424 890 m 1,0,-1
 1319 890 l 1,1,-1
 1317 880 l 1,2,-1
 955 358 l 1,3,-1
 709 358 l 1,4,-1
 891 620 l 1,5,-1
 242 620 l 1,6,-1
 244 630 l 1,7,-1
 424 890 l 1,0,-1
EndSplineSet
Validated: 1
EndChar

StartChar: uni00AD
Encoding: 173 173 109
Width: 1240
GlyphClass: 2
Flags: W
HStem: 620 270<424 1137>
LayerCount: 2
Fore
SplineSet
424 890 m 1,0,-1
 1319 890 l 1,1,-1
 1317 880 l 1,2,-1
 1137 620 l 1,3,-1
 242 620 l 1,4,-1
 244 630 l 1,5,-1
 424 890 l 1,0,-1
EndSplineSet
Validated: 1
EndChar

StartChar: registered
Encoding: 174 174 110
Width: 1340
GlyphClass: 2
Flags: W
HStem: 386 52<604.584 925.646> 778 96<784 837> 1259 96<866 1018.74> 1478 52<824.632 1143.39>
VStem: 302 59<686.575 1015.56> 1022 191<1031.48 1258.74> 1386 59<900.437 1234>
DStem2: 479.566 386 679.624 386 0.207912 0.978148<283.889 442.363 540.631 912.101> 839.902 386 1045.52 386 0.207912 0.978148<503.307 875.86>
LayerCount: 2
Fore
SplineSet
1021 1238 m 2,0,1
 1022 1243 1022 1243 1022 1247 c 0,2,3
 1022 1259 1022 1259 1006 1259 c 2,4,-1
 866 1259 l 1,5,-1
 784 874 l 1,6,-1
 924 874 l 2,7,8
 944 874 944 874 947 890 c 2,9,-1
 1021 1238 l 2,0,1
754 386 m 0,10,11
 528 386 528 386 398 549 c 0,12,13
 302 669 302 669 302 841 c 0,14,15
 302 890 302 890 310 943 c 0,16,17
 345 1183 345 1183 555 1362 c 0,18,19
 752 1530 752 1530 993 1530 c 0,20,21
 1219 1530 1219 1530 1349 1367 c 0,22,23
 1445 1247 1445 1247 1445 1075 c 0,24,25
 1445 1026 1445 1026 1437 973 c 0,26,27
 1402 733 1402 733 1192 554 c 0,28,29
 994 386 994 386 754 386 c 0,10,11
983 1478 m 0,30,31
 783 1478 783 1478 603 1330 c 0,32,33
 421 1181 421 1181 373 953 c 0,34,35
 361 897 361 897 361 843 c 0,36,37
 361 704 361 704 442 587 c 0,38,39
 545 438 545 438 764 438 c 0,40,41
 964 438 964 438 1144 586 c 0,42,43
 1326 735 1326 735 1374 963 c 0,44,45
 1386 1022 1386 1022 1386 1077 c 0,46,47
 1386 1216 1386 1216 1308 1329 c 0,48,49
 1205 1478 1205 1478 983 1478 c 0,30,31
860 1355 m 1,50,-1
 1006 1355 l 2,51,52
 1213 1355 1213 1355 1213 1203 c 0,53,54
 1213 1175 1213 1175 1206 1141 c 2,55,-1
 1174 992 l 2,56,57
 1142 844 1142 844 1039 812 c 1,58,-1
 1176 616 l 1,59,-1
 992 549 l 1,60,-1
 982 549 l 1,61,-1
 837 778 l 1,62,-1
 763 778 l 1,63,-1
 730 623 l 1,64,-1
 524 548 l 1,65,-1
 514 548 l 1,66,-1
 670 1278 l 1,67,-1
 860 1355 l 1,50,-1
EndSplineSet
Validated: 1
EndChar

StartChar: macron
Encoding: 175 175 111
Width: 680
GlyphClass: 2
Flags: W
HStem: 1288 190<430 838>
VStem: 304 660
LayerCount: 2
Fore
SplineSet
430 1478 m 1,0,-1
 964 1478 l 1,1,-1
 962 1468 l 1,2,-1
 838 1288 l 1,3,-1
 304 1288 l 1,4,-1
 306 1298 l 1,5,-1
 430 1478 l 1,0,-1
EndSplineSet
Validated: 1
EndChar

StartChar: degree
Encoding: 176 176 112
Width: 530
GlyphClass: 2
Flags: W
HStem: 889 101<247.232 522.307> 1476 94<330.693 605.768>
VStem: 64 180<991.377 1239.66> 610 179<1225.55 1475.27>
DStem2: 19.0106 889 213.691 889 0.207912 0.978148<183.558 623.492> 494.07 889 689.238 889 0.207912 0.978148<113.3 553.234>
LayerCount: 2
Fore
SplineSet
391 1476 m 2,0,1
 339 1476 339 1476 328 1425 c 2,2,-1
 246 1041 l 2,3,4
 244 1032 244 1032 244 1025 c 0,5,6
 244 990 244 990 287 990 c 2,7,-1
 463 990 l 2,8,9
 515 990 515 990 526 1041 c 2,10,-1
 608 1425 l 2,11,12
 610 1434 610 1434 610 1441 c 0,13,14
 610 1476 610 1476 567 1476 c 2,15,-1
 391 1476 l 2,0,1
400 1570 m 2,16,-1
 558 1570 l 2,17,18
 789 1570 789 1570 789 1393 c 0,19,20
 789 1358 789 1358 780 1316 c 2,21,-1
 743 1143 l 2,22,23
 689 889 689 889 453 889 c 2,24,-1
 295 889 l 2,25,26
 64 889 64 889 64 1066 c 0,27,28
 64 1101 64 1101 73 1143 c 2,29,-1
 110 1316 l 2,30,31
 164 1570 164 1570 400 1570 c 2,16,-1
EndSplineSet
Validated: 1
EndChar

StartChar: plusminus
Encoding: 177 177 113
Width: 1240
GlyphClass: 2
Flags: W
HStem: 154 270<325 1038> 828 270<468 661 988 1181>
DStem2: 517.446 154 787.876 154 0.207912 0.978148<489.698 689.118 1021.21 1220.83>
LayerCount: 2
Fore
SplineSet
325 424 m 1,0,-1
 1220 424 l 1,1,-1
 1218 414 l 1,2,-1
 1038 154 l 1,3,-1
 143 154 l 1,4,-1
 145 164 l 1,5,-1
 325 424 l 1,0,-1
1058 1473 m 1,6,-1
 1068 1473 l 1,7,-1
 988 1098 l 1,8,-1
 1363 1098 l 1,9,-1
 1361 1088 l 1,10,-1
 1181 828 l 1,11,-1
 931 828 l 1,12,-1
 878 578 l 1,13,-1
 591 453 l 1,14,-1
 581 453 l 1,15,-1
 661 828 l 1,16,-1
 286 828 l 1,17,-1
 288 838 l 1,18,-1
 468 1098 l 1,19,-1
 718 1098 l 1,20,-1
 772 1348 l 1,21,-1
 1058 1473 l 1,6,-1
EndSplineSet
Validated: 1
EndChar

StartChar: uni00B2
Encoding: 178 178 114
Width: 671
GlyphClass: 2
Flags: W
HStem: 765 191<493 732> 1464 96<558.905 733.263>
VStem: 739 190<1255.9 1462.82>
DStem2: 556 1101 493 956 0.868698 0.495343<-126.553 168.077>
LayerCount: 2
Fore
SplineSet
597 1560 m 2,0,-1
 727 1560 l 2,1,2
 929 1560 929 1560 929 1411 c 0,3,4
 929 1383 929 1383 922 1350 c 2,5,-1
 910 1294 l 2,6,7
 880 1155 880 1155 695 1060 c 2,8,-1
 493 956 l 1,9,-1
 844 956 l 1,10,-1
 842 946 l 1,11,-1
 732 765 l 1,12,-1
 193 765 l 1,13,-1
 195 775 l 1,14,-1
 321 967 l 1,15,-1
 556 1101 l 2,16,17
 678 1171 678 1171 704 1288 c 2,18,-1
 738 1444 l 2,19,20
 739 1449 739 1449 739 1453 c 0,21,22
 739 1464 739 1464 721 1464 c 2,23,-1
 586 1464 l 2,24,25
 566 1464 566 1464 563 1449 c 2,26,-1
 535 1316 l 1,27,-1
 329 1241 l 1,28,-1
 319 1241 l 1,29,-1
 342 1350 l 2,30,31
 386 1560 386 1560 597 1560 c 2,0,-1
EndSplineSet
Validated: 1
EndChar

StartChar: uni00B3
Encoding: 179 179 115
Width: 656
GlyphClass: 2
Flags: W
HStem: 765 96<428.016 599.949> 1464 96<460 662>
VStem: 241 182<861.218 1000.2> 666 189<1127.93 1207.88>
DStem2: 573.406 765 778.363 765 0.207912 0.978148<93.6604 440.084>
LayerCount: 2
Fore
SplineSet
460 1560 m 1,0,-1
 958 1560 l 1,1,-1
 741 1296 l 1,2,3
 855 1271 855 1271 855 1156 c 0,4,5
 855 1126 855 1126 848 1093 c 2,6,-1
 823 975 l 2,7,8
 779 765 779 765 568 765 c 2,9,-1
 434 765 l 2,10,11
 241 765 241 765 241 923 c 0,12,13
 241 949 241 949 248 984 c 2,14,-1
 250 994 l 1,15,-1
 456 1077 l 1,16,-1
 466 1077 l 1,17,-1
 424 881 l 2,18,19
 423 876 423 876 423 872 c 0,20,21
 423 861 423 861 440 861 c 2,22,-1
 574 861 l 2,23,24
 594 861 594 861 597 876 c 2,25,-1
 665 1194 l 2,26,27
 666 1199 666 1199 666 1203 c 0,28,29
 666 1209 666 1209 648 1209 c 2,30,-1
 546 1209 l 1,31,-1
 506 1268 l 1,32,-1
 662 1464 l 1,33,-1
 398 1464 l 1,34,-1
 400 1474 l 1,35,-1
 460 1560 l 1,0,-1
EndSplineSet
Validated: 1
EndChar

StartChar: acute
Encoding: 180 180 116
Width: 401
GlyphClass: 2
Flags: W
HStem: 1160 410
VStem: 296 389
DStem2: 296 1250 478 1160 0.541289 0.840837<22.8392 380.573>
LayerCount: 2
Fore
SplineSet
512 1570 m 1,0,-1
 685 1478 l 1,1,-1
 478 1160 l 1,2,-1
 468 1160 l 1,3,-1
 296 1250 l 1,4,-1
 502 1570 l 1,5,-1
 512 1570 l 1,0,-1
EndSplineSet
Validated: 1
EndChar

StartChar: uni00B5
Encoding: 181 181 117
Width: 1230
GlyphClass: 2
Flags: W
HStem: -430 21G<49 105.232> 0 140<476.391 826.942> 1100 20G<621.768 678 1271.77 1328>
DStem2: 49 -430 348.667 -430 0.207912 0.978148<203.387 511.716 670.929 1443.52> 698.87 -430 998.537 -430 0.207912 0.978148<615.441 1443.54>
LayerCount: 2
Fore
SplineSet
780 0 m 2,0,-1
 510 0 l 2,1,2
 459 0 459 0 441 6 c 1,3,-1
 378 -292 l 1,4,-1
 59 -430 l 1,5,-1
 49 -430 l 1,6,-1
 349 982 l 1,7,-1
 668 1120 l 1,8,-1
 678 1120 l 1,9,-1
 477 175 l 2,10,11
 476 170 476 170 476 165 c 0,12,13
 476 140 476 140 510 140 c 2,14,-1
 780 140 l 2,15,16
 820 140 820 140 827 175 c 2,17,-1
 999 982 l 1,18,-1
 1318 1120 l 1,19,-1
 1328 1120 l 1,20,-1
 1155 307 l 2,21,22
 1090 0 1090 0 780 0 c 2,0,-1
EndSplineSet
Validated: 1
EndChar

StartChar: paragraph
Encoding: 182 182 118
Width: 1220
GlyphClass: 2
Flags: W
HStem: -20 21G<736 792.538> 1490 20G<586 1167.5>
DStem2: 736 -20 855.947 -20 0.207912 0.978148<78.1001 544.847> 939.445 -20 1055.75 -20 0.207912 0.978148<174.466 1190.03>
LayerCount: 2
Fore
SplineSet
746 -20 m 1,0,-1
 736 -20 l 1,1,-1
 849 513 l 1,2,3
 838 507 838 507 828 507 c 2,4,-1
 588 507 l 2,5,6
 275 507 275 507 275 733 c 0,7,8
 275 774 275 774 285 822 c 2,9,-1
 364 1195 l 2,10,11
 431 1510 431 1510 741 1510 c 2,12,-1
 1011 1510 l 2,13,14
 1324 1510 1324 1510 1324 1284 c 0,15,16
 1324 1243 1324 1243 1314 1195 c 2,17,-1
 1087 127 l 1,18,-1
 959 72 l 1,19,-1
 1187 1144 l 1,20,-1
 1095 1106 l 1,21,-1
 867 32 l 1,22,-1
 746 -20 l 1,0,-1
EndSplineSet
Validated: 1
EndChar

StartChar: periodcentered
Encoding: 183 183 119
Width: 420
GlyphClass: 2
Flags: W
HStem: 573 365<282.097 458.323>
VStem: 186 369<668.75 842.936>
LayerCount: 2
Fore
SplineSet
409 938 m 0,0,1
 485 938 485 938 526 885 c 0,2,3
 555 847 555 847 555 796 c 0,4,5
 555 777 555 777 551 756 c 0,6,7
 535 681 535 681 470.5 627 c 128,-1,8
 406 573 406 573 332 573 c 0,9,10
 256 573 256 573 216 627 c 0,11,12
 186 666 186 666 186 716 c 0,13,14
 186 735 186 735 190 755 c 0,15,16
 206 831 206 831 270 884 c 0,17,18
 334 938 334 938 409 938 c 0,0,1
EndSplineSet
Validated: 1
EndChar

StartChar: cedilla
Encoding: 184 184 120
Width: 440
GlyphClass: 2
Flags: W
HStem: -410 410 -20 20G<136 294.5>
VStem: 172 199<-200.312 -79.297>
LayerCount: 2
Fore
SplineSet
-57 -410 m 1,0,-1
 -55 -400 l 1,1,-1
 69 -220 l 1,2,3
 158 -204 158 -204 171 -145 c 0,4,5
 172 -139 172 -139 172 -133 c 0,6,7
 172 -97 172 -97 120 -76 c 1,8,-1
 136 0 l 1,9,-1
 299 0 l 1,10,-1
 290 -40 l 1,11,12
 371 -82 371 -82 371 -166 c 0,13,14
 371 -176 371 -176 370 -187 c 0,15,16
 346 -410 346 -410 -57 -410 c 1,0,-1
EndSplineSet
Validated: 1
EndChar

StartChar: uni00B9
Encoding: 185 185 121
Width: 392
GlyphClass: 2
Flags: W
VStem: 293 373
DStem2: 293 756 493.058 756 0.207912 0.978148<118.27 647.236>
LayerCount: 2
Fore
SplineSet
656 1570 m 1,0,-1
 666 1570 l 1,1,-1
 509 831 l 1,2,-1
 303 756 l 1,3,-1
 293 756 l 1,4,-1
 428 1389 l 1,5,-1
 295 1337 l 1,6,-1
 315 1432 l 1,7,-1
 656 1570 l 1,0,-1
EndSplineSet
Validated: 1
EndChar

StartChar: ordmasculine
Encoding: 186 186 122
Width: 594
GlyphClass: 2
Flags: W
HStem: 733 180<295 639> 969 91<465 599> 1469 91<552 686>
DStem2: 206.064 733 395.494 733 0.207912 0.978148<373.741 791.841> 529.494 733 720.064 733 0.207912 0.978148<334.305 751.918>
LayerCount: 2
Fore
SplineSet
599 1060 m 1,0,-1
 686 1469 l 1,1,-1
 552 1469 l 1,2,-1
 465 1060 l 1,3,-1
 599 1060 l 1,0,-1
557 1560 m 2,4,-1
 691 1560 l 2,5,6
 865 1560 865 1560 865 1436 c 0,7,8
 865 1414 865 1414 859 1387 c 2,9,-1
 807 1142 l 2,10,11
 770 969 770 969 595 969 c 2,12,-1
 461 969 l 2,13,14
 287 969 287 969 287 1093 c 0,15,16
 287 1115 287 1115 293 1142 c 2,17,-1
 345 1387 l 2,18,19
 382 1560 382 1560 557 1560 c 2,4,-1
295 913 m 1,20,-1
 758 913 l 1,21,-1
 756 903 l 1,22,-1
 639 733 l 1,23,-1
 176 733 l 1,24,-1
 178 743 l 1,25,-1
 295 913 l 1,20,-1
EndSplineSet
Validated: 1
EndChar

StartChar: guillemotright
Encoding: 187 187 123
Width: 1292
GlyphClass: 2
Flags: W
DStem2: 229 203 365 136 0.626077 0.779761<32.9024 575.654> 672 1257 403 1145 0.35398 -0.935253<9.52766 535.158> 710 203 846 136 0.626077 0.779761<32.9024 575.654> 1153 1257 884 1145 0.35398 -0.935253<9.52766 535.158>
LayerCount: 2
Fore
SplineSet
862 755 m 1,0,-1
 365 136 l 1,1,-1
 355 136 l 1,2,-1
 229 203 l 1,3,-1
 588 653 l 1,4,-1
 403 1145 l 1,5,-1
 662 1257 l 1,6,-1
 672 1257 l 1,7,-1
 862 755 l 1,0,-1
1343 755 m 1,8,-1
 846 136 l 1,9,-1
 836 136 l 1,10,-1
 710 203 l 1,11,-1
 1069 653 l 1,12,-1
 884 1145 l 1,13,-1
 1143 1257 l 1,14,-1
 1153 1257 l 1,15,-1
 1343 755 l 1,8,-1
EndSplineSet
Validated: 1
EndChar

StartChar: onequarter
Encoding: 188 188 124
Width: 1543
GlyphClass: 2
Flags: W
HStem: -20 21G<450.301 511.57 1154 1218.93> 142 96<998 1188 1409 1416> 1510 20G<697.58 757 1237.42 1298.52>
DStem2: 227.558 -20 427.617 -20 0.207912 0.978148<870.713 1399.68> 275 93 498 -20 0.561853 0.827237<31.8155 1737.11> 802 152 998 238 0.669408 0.742895<195.093 607.175> 1154 -20 1354.06 -20 0.207912 0.978148<118.27 165.529 305.38 576.625>
LayerCount: 2
Fore
SplineSet
747 1530 m 1,0,-1
 757 1530 l 1,1,-1
 600 791 l 1,2,-1
 394 716 l 1,3,-1
 384 716 l 1,4,-1
 519 1349 l 1,5,-1
 386 1297 l 1,6,-1
 406 1392 l 1,7,-1
 747 1530 l 1,0,-1
998 238 m 1,8,-1
 1209 238 l 1,9,-1
 1274 544 l 1,10,-1
 998 238 l 1,8,-1
1164 -20 m 1,11,-1
 1154 -20 l 1,12,-1
 1188 142 l 1,13,-1
 800 142 l 1,14,-1
 802 152 l 1,15,-1
 1303 708 l 1,16,-1
 1517 794 l 1,17,-1
 1527 794 l 1,18,-1
 1409 238 l 1,19,-1
 1484 238 l 1,20,-1
 1481 228 l 1,21,-1
 1416 133 l 1,22,-1
 1386 133 l 1,23,-1
 1370 55 l 1,24,-1
 1164 -20 l 1,11,-1
488 -20 m 1,25,-1
 275 93 l 1,26,-1
 1251 1530 l 1,27,-1
 1261 1530 l 1,28,-1
 1473 1417 l 1,29,-1
 498 -20 l 1,30,-1
 488 -20 l 1,25,-1
EndSplineSet
Validated: 1
EndChar

StartChar: onehalf
Encoding: 189 189 125
Width: 1678
GlyphClass: 2
Flags: W
HStem: -20 21G<450.301 511.57> 0 191<1256 1495> 699 96<1321.91 1496.26> 1510 20G<697.58 757 1237.42 1298.52>
VStem: 1502 190<490.9 697.818>
DStem2: 227.558 -20 427.617 -20 0.207912 0.978148<870.713 1399.68> 275 93 498 -20 0.561853 0.827237<31.8155 1737.11> 1319 336 1256 191 0.868698 0.495343<-126.553 168.077>
LayerCount: 2
Fore
SplineSet
1495 0 m 1,0,-1
 956 0 l 1,1,-1
 958 10 l 1,2,-1
 1084 202 l 1,3,-1
 1319 336 l 2,4,5
 1441 406 1441 406 1467 523 c 2,6,-1
 1501 679 l 2,7,8
 1502 684 1502 684 1502 688 c 0,9,10
 1502 699 1502 699 1484 699 c 2,11,-1
 1349 699 l 2,12,13
 1329 699 1329 699 1326 684 c 2,14,-1
 1298 551 l 1,15,-1
 1092 476 l 1,16,-1
 1082 476 l 1,17,-1
 1105 585 l 2,18,19
 1149 795 1149 795 1360 795 c 2,20,-1
 1490 795 l 2,21,22
 1692 795 1692 795 1692 646 c 0,23,24
 1692 618 1692 618 1685 585 c 2,25,-1
 1673 529 l 2,26,27
 1643 390 1643 390 1458 295 c 2,28,-1
 1256 191 l 1,29,-1
 1607 191 l 1,30,-1
 1605 181 l 1,31,-1
 1495 0 l 1,0,-1
747 1530 m 1,32,-1
 757 1530 l 1,33,-1
 600 791 l 1,34,-1
 394 716 l 1,35,-1
 384 716 l 1,36,-1
 519 1349 l 1,37,-1
 386 1297 l 1,38,-1
 406 1392 l 1,39,-1
 747 1530 l 1,32,-1
488 -20 m 1,40,-1
 275 93 l 1,41,-1
 1251 1530 l 1,42,-1
 1261 1530 l 1,43,-1
 1473 1417 l 1,44,-1
 498 -20 l 1,45,-1
 488 -20 l 1,40,-1
EndSplineSet
Validated: 1
EndChar

StartChar: threequarters
Encoding: 190 190 126
Width: 1780
GlyphClass: 2
Flags: W
HStem: -20 21G<687.301 748.57 1391 1455.93> 142 96<1235 1425 1646 1653> 735 96<501.016 672.949> 1434 96<533 735>
VStem: 314 182<831.218 970.203> 739 189<1097.93 1177.88>
DStem2: 485.926 -20 690.883 -20 0.207912 0.978148<865.528 1211.95> 512 93 735 -20 0.561853 0.827237<31.8155 1737.11> 1039 152 1235 238 0.669408 0.742895<195.093 607.175> 1391 -20 1591.06 -20 0.207912 0.978148<118.27 165.529 305.38 576.625>
LayerCount: 2
Fore
SplineSet
533 1530 m 1,0,-1
 1031 1530 l 1,1,-1
 814 1266 l 1,2,3
 928 1241 928 1241 928 1126 c 0,4,5
 928 1096 928 1096 921 1063 c 2,6,-1
 896 945 l 2,7,8
 852 735 852 735 641 735 c 2,9,-1
 507 735 l 2,10,11
 314 735 314 735 314 893 c 0,12,13
 314 919 314 919 321 954 c 2,14,-1
 323 964 l 1,15,-1
 529 1047 l 1,16,-1
 539 1047 l 1,17,-1
 497 851 l 2,18,19
 496 846 496 846 496 842 c 0,20,21
 496 831 496 831 513 831 c 2,22,-1
 647 831 l 2,23,24
 667 831 667 831 670 846 c 2,25,-1
 738 1164 l 2,26,27
 739 1169 739 1169 739 1173 c 0,28,29
 739 1179 739 1179 721 1179 c 2,30,-1
 619 1179 l 1,31,-1
 579 1238 l 1,32,-1
 735 1434 l 1,33,-1
 471 1434 l 1,34,-1
 473 1444 l 1,35,-1
 533 1530 l 1,0,-1
1235 238 m 1,36,-1
 1446 238 l 1,37,-1
 1511 544 l 1,38,-1
 1235 238 l 1,36,-1
1401 -20 m 1,39,-1
 1391 -20 l 1,40,-1
 1425 142 l 1,41,-1
 1037 142 l 1,42,-1
 1039 152 l 1,43,-1
 1540 708 l 1,44,-1
 1754 794 l 1,45,-1
 1764 794 l 1,46,-1
 1646 238 l 1,47,-1
 1721 238 l 1,48,-1
 1718 228 l 1,49,-1
 1653 133 l 1,50,-1
 1623 133 l 1,51,-1
 1607 55 l 1,52,-1
 1401 -20 l 1,39,-1
725 -20 m 1,53,-1
 512 93 l 1,54,-1
 1488 1530 l 1,55,-1
 1498 1530 l 1,56,-1
 1710 1417 l 1,57,-1
 735 -20 l 1,58,-1
 725 -20 l 1,53,-1
EndSplineSet
Validated: 1
EndChar

StartChar: questiondown
Encoding: 191 191 127
Width: 1300
GlyphClass: 2
Flags: W
HStem: -410 150<407.146 813.328> 755 365<806.677 982.903>
LayerCount: 2
Fore
SplineSet
723 -410 m 2,0,-1
 463 -410 l 2,1,2
 91 -410 91 -410 91 -140 c 0,3,4
 91 -90 91 -90 104 -30 c 2,5,-1
 120 44 l 2,6,7
 173 287 173 287 485 417 c 0,8,9
 631 478 631 478 655 594 c 1,10,-1
 1000 741 l 1,11,-1
 1010 741 l 1,12,13
 956 488 956 488 690 379 c 0,14,15
 504 303 504 303 469 137 c 2,16,-1
 400 -189 l 2,17,18
 398 -200 398 -200 398 -210 c 0,19,20
 398 -260 398 -260 465 -260 c 2,21,-1
 735 -260 l 2,22,23
 815 -260 815 -260 830 -189 c 2,24,-1
 870 0 l 1,25,-1
 1212 148 l 1,26,-1
 1222 148 l 1,27,-1
 1184 -30 l 2,28,29
 1103 -410 1103 -410 723 -410 c 2,0,-1
933 1120 m 0,30,31
 1009 1120 1009 1120 1049 1066 c 0,32,33
 1079 1027 1079 1027 1079 977 c 0,34,35
 1079 958 1079 958 1075 938 c 0,36,37
 1059 862 1059 862 995 809 c 0,38,39
 931 755 931 755 856 755 c 0,40,41
 780 755 780 755 739 808 c 0,42,43
 710 846 710 846 710 897 c 0,44,45
 710 916 710 916 714 937 c 0,46,47
 730 1012 730 1012 794.5 1066 c 128,-1,48
 859 1120 859 1120 933 1120 c 0,30,31
EndSplineSet
Validated: 1
EndChar

StartChar: endash
Encoding: 8211 8211 128
Width: 1240
GlyphClass: 2
Flags: W
HStem: 620 270<424 1137>
LayerCount: 2
Fore
SplineSet
424 890 m 1,0,-1
 1319 890 l 1,1,-1
 1317 880 l 1,2,-1
 1137 620 l 1,3,-1
 242 620 l 1,4,-1
 244 630 l 1,5,-1
 424 890 l 1,0,-1
EndSplineSet
Validated: 1
EndChar

StartChar: emdash
Encoding: 8212 8212 129
Width: 1570
GlyphClass: 2
Flags: W
HStem: 620 270<424 1467>
LayerCount: 2
Fore
SplineSet
424 890 m 1,0,-1
 1649 890 l 1,1,-1
 1647 880 l 1,2,-1
 1467 620 l 1,3,-1
 242 620 l 1,4,-1
 244 630 l 1,5,-1
 424 890 l 1,0,-1
EndSplineSet
Validated: 1
EndChar

StartChar: afii00208
Encoding: 8213 8213 130
Width: 1570
GlyphClass: 2
Flags: W
HStem: 620 270<424 1467>
LayerCount: 2
Fore
SplineSet
424 890 m 1,0,-1
 1649 890 l 1,1,-1
 1647 880 l 1,2,-1
 1467 620 l 1,3,-1
 242 620 l 1,4,-1
 244 630 l 1,5,-1
 424 890 l 1,0,-1
EndSplineSet
Validated: 1
EndChar

StartChar: quoteleft
Encoding: 8216 8216 131
Width: 496
GlyphClass: 2
Flags: W
HStem: 934 666
VStem: 281 282<1124.94 1316.96>
LayerCount: 2
Fore
SplineSet
706 1600 m 1,0,-1
 712 1593 l 1,1,2
 601 1444 601 1444 569 1296 c 0,3,4
 563 1269 563 1269 563 1244 c 0,5,6
 563 1126 563 1126 691 1060 c 1,7,-1
 396 934 l 1,8,-1
 386 934 l 1,9,10
 281 1014 281 1014 281 1142 c 0,11,12
 281 1178 281 1178 289 1218 c 0,13,14
 343 1475 343 1475 706 1600 c 1,0,-1
EndSplineSet
Validated: 1
EndChar

StartChar: quoteright
Encoding: 8217 8217 132
Width: 496
GlyphClass: 2
Flags: W
HStem: 934 666
VStem: 471 283<1217.04 1409.06>
LayerCount: 2
Fore
SplineSet
343 1474 m 1,0,-1
 639 1600 l 1,1,-1
 649 1600 l 1,2,3
 754 1520 754 1520 754 1392 c 0,4,5
 754 1356 754 1356 746 1316 c 0,6,7
 691 1059 691 1059 329 934 c 1,8,-1
 323 941 l 1,9,10
 434 1090 434 1090 465 1238 c 0,11,12
 471 1265 471 1265 471 1290 c 0,13,14
 471 1408 471 1408 343 1474 c 1,0,-1
EndSplineSet
Validated: 1
EndChar

StartChar: quotesinglbase
Encoding: 8218 8218 133
Width: 496
GlyphClass: 2
Flags: W
HStem: -328 666
VStem: 203 283<-42.5039 147.058>
LayerCount: 2
Fore
SplineSet
75 212 m 1,0,-1
 371 338 l 1,1,-1
 381 338 l 1,2,3
 486 259 486 259 486 132 c 0,4,5
 486 95 486 95 477 54 c 0,6,7
 422 -203 422 -203 60 -328 c 1,8,-1
 55 -321 l 1,9,10
 166 -172 166 -172 197 -24 c 0,11,12
 203 3 203 3 203 28 c 0,13,14
 203 146 203 146 75 212 c 1,0,-1
EndSplineSet
Validated: 1
EndChar

StartChar: quotereversed
Encoding: 8219 8219 134
Width: 496
GlyphClass: 2
Flags: W
HStem: 934 666<475.621 537>
VStem: 302 243<1092.94 1320.7>
LayerCount: 2
Fore
SplineSet
779 1474 m 1,0,1
 590 1394 590 1394 557 1238 c 0,2,3
 545 1179 545 1179 545 1120 c 0,4,5
 545 1031 545 1031 573 941 c 1,6,-1
 565 934 l 1,7,8
 302 1040 302 1040 302 1242 c 0,9,10
 302 1277 302 1277 310 1316 c 0,11,12
 349 1498 349 1498 527 1600 c 1,13,-1
 537 1600 l 1,14,-1
 779 1474 l 1,0,1
EndSplineSet
Validated: 1
EndChar

StartChar: quotedblleft
Encoding: 8220 8220 135
Width: 914
GlyphClass: 2
Flags: W
HStem: 934 666
VStem: 281 282<1124.94 1316.96> 699 282<1124.94 1316.96>
LayerCount: 2
Fore
SplineSet
706 1600 m 1,0,-1
 712 1593 l 1,1,2
 601 1444 601 1444 569 1296 c 0,3,4
 563 1269 563 1269 563 1244 c 0,5,6
 563 1126 563 1126 691 1060 c 1,7,-1
 396 934 l 1,8,-1
 386 934 l 1,9,10
 281 1014 281 1014 281 1142 c 0,11,12
 281 1178 281 1178 289 1218 c 0,13,14
 343 1475 343 1475 706 1600 c 1,0,-1
1124 1600 m 1,15,-1
 1130 1593 l 1,16,17
 1019 1444 1019 1444 987 1296 c 0,18,19
 981 1269 981 1269 981 1244 c 0,20,21
 981 1126 981 1126 1109 1060 c 1,22,-1
 814 934 l 1,23,-1
 804 934 l 1,24,25
 699 1014 699 1014 699 1142 c 0,26,27
 699 1178 699 1178 707 1218 c 0,28,29
 761 1475 761 1475 1124 1600 c 1,15,-1
EndSplineSet
Validated: 1
EndChar

StartChar: quotedblright
Encoding: 8221 8221 136
Width: 914
GlyphClass: 2
Flags: W
HStem: 934 666
VStem: 471 283<1217.04 1409.06> 889 283<1217.04 1409.06>
LayerCount: 2
Fore
SplineSet
761 1474 m 1,0,-1
 1057 1600 l 1,1,-1
 1067 1600 l 1,2,3
 1172 1520 1172 1520 1172 1392 c 0,4,5
 1172 1356 1172 1356 1164 1316 c 0,6,7
 1109 1059 1109 1059 747 934 c 1,8,-1
 741 941 l 1,9,10
 852 1090 852 1090 883 1238 c 0,11,12
 889 1265 889 1265 889 1290 c 0,13,14
 889 1408 889 1408 761 1474 c 1,0,-1
343 1474 m 1,15,-1
 639 1600 l 1,16,-1
 649 1600 l 1,17,18
 754 1520 754 1520 754 1392 c 0,19,20
 754 1356 754 1356 746 1316 c 0,21,22
 691 1059 691 1059 329 934 c 1,23,-1
 323 941 l 1,24,25
 434 1090 434 1090 465 1238 c 0,26,27
 471 1265 471 1265 471 1290 c 0,28,29
 471 1408 471 1408 343 1474 c 1,15,-1
EndSplineSet
Validated: 1
EndChar

StartChar: quotedblbase
Encoding: 8222 8222 137
Width: 914
GlyphClass: 2
Flags: W
HStem: -328 666
VStem: 203 283<-42.5039 147.058> 621 283<-42.5039 147.058>
LayerCount: 2
Fore
SplineSet
493 212 m 1,0,-1
 789 338 l 1,1,-1
 799 338 l 1,2,3
 904 259 904 259 904 132 c 0,4,5
 904 95 904 95 895 54 c 0,6,7
 840 -203 840 -203 478 -328 c 1,8,-1
 473 -321 l 1,9,10
 584 -172 584 -172 615 -24 c 0,11,12
 621 3 621 3 621 28 c 0,13,14
 621 146 621 146 493 212 c 1,0,-1
75 212 m 1,15,-1
 371 338 l 1,16,-1
 381 338 l 1,17,18
 486 259 486 259 486 132 c 0,19,20
 486 95 486 95 477 54 c 0,21,22
 422 -203 422 -203 60 -328 c 1,23,-1
 55 -321 l 1,24,25
 166 -172 166 -172 197 -24 c 0,26,27
 203 3 203 3 203 28 c 0,28,29
 203 146 203 146 75 212 c 1,15,-1
EndSplineSet
Validated: 1
EndChar

StartChar: dagger
Encoding: 8224 8224 138
Width: 1254
GlyphClass: 2
Flags: W
HStem: -20 21G<463 519.395> 964 150<414 672 1024 1282> 1510 20G<1055.92 1112>
DStem2: 463 -20 782.754 -20 0.207912 0.978148<216.765 1005.95 1225.86 1433.32>
LayerCount: 2
Fore
SplineSet
473 -20 m 1,0,-1
 463 -20 l 1,1,-1
 672 964 l 1,2,-1
 315 964 l 1,3,-1
 317 974 l 1,4,-1
 414 1114 l 1,5,-1
 704 1114 l 1,6,-1
 761 1382 l 1,7,-1
 1102 1530 l 1,8,-1
 1112 1530 l 1,9,-1
 1024 1114 l 1,10,-1
 1381 1114 l 1,11,-1
 1379 1104 l 1,12,-1
 1282 964 l 1,13,-1
 992 964 l 1,14,-1
 814 127 l 1,15,-1
 473 -20 l 1,0,-1
EndSplineSet
Validated: 1
EndChar

StartChar: daggerdbl
Encoding: 8225 8225 139
Width: 1254
GlyphClass: 2
Flags: W
HStem: -20 21G<463 519.395> 396 150<293 551 903 1161> 964 150<414 672 1024 1282> 1510 20G<1055.61 1112>
DStem2: 463 -20 782.542 -20 0.207912 0.978148<216.765 425.206 645.113 1005.95 1225.86 1434.3>
LayerCount: 2
Fore
SplineSet
473 -20 m 1,0,-1
 463 -20 l 1,1,-1
 551 396 l 1,2,-1
 194 396 l 1,3,-1
 196 406 l 1,4,-1
 293 546 l 1,5,-1
 583 546 l 1,6,-1
 672 964 l 1,7,-1
 315 964 l 1,8,-1
 317 974 l 1,9,-1
 414 1114 l 1,10,-1
 704 1114 l 1,11,-1
 761 1382 l 1,12,-1
 761 1383 l 1,13,-1
 1102 1530 l 1,14,-1
 1112 1530 l 1,15,-1
 1024 1114 l 1,16,-1
 1381 1114 l 1,17,-1
 1379 1104 l 1,18,-1
 1282 964 l 1,19,-1
 992 964 l 1,20,-1
 903 546 l 1,21,-1
 1260 546 l 1,22,-1
 1258 536 l 1,23,-1
 1161 396 l 1,24,-1
 871 396 l 1,25,-1
 814 128 l 1,26,-1
 814 127 l 1,27,-1
 473 -20 l 1,0,-1
EndSplineSet
Validated: 1
EndChar

StartChar: bullet
Encoding: 8226 8226 140
Width: 950
GlyphClass: 2
Flags: W
LayerCount: 2
Fore
SplineSet
615 1122 m 2,0,-1
 781 1122 l 2,1,2
 1029 1122 1029 1122 1029 927 c 0,3,4
 1029 889 1029 889 1019 843 c 2,5,-1
 982 666 l 2,6,7
 924 387 924 387 655 387 c 2,8,-1
 489 387 l 2,9,10
 242 387 242 387 242 582 c 0,11,12
 242 620 242 620 252 666 c 2,13,-1
 289 843 l 2,14,15
 347 1122 347 1122 615 1122 c 2,0,-1
EndSplineSet
Validated: 1
EndChar

StartChar: ellipsis
Encoding: 8230 8230 141
Width: 1292
GlyphClass: 2
Flags: W
HStem: -20 365<156.097 332.323 592.097 768.323 1028.1 1204.32>
LayerCount: 2
Fore
SplineSet
1078 -20 m 0,0,1
 1002 -20 1002 -20 962 34 c 0,2,3
 932 73 932 73 932 123 c 0,4,5
 932 142 932 142 936 162 c 0,6,7
 952 238 952 238 1016 291 c 0,8,9
 1080 345 1080 345 1155 345 c 0,10,11
 1231 345 1231 345 1272 292 c 0,12,13
 1301 254 1301 254 1301 203 c 0,14,15
 1301 184 1301 184 1297 163 c 0,16,17
 1281 88 1281 88 1216.5 34 c 128,-1,18
 1152 -20 1152 -20 1078 -20 c 0,0,1
642 -20 m 0,19,20
 566 -20 566 -20 526 34 c 0,21,22
 496 73 496 73 496 123 c 0,23,24
 496 142 496 142 500 162 c 0,25,26
 516 238 516 238 580 291 c 0,27,28
 644 345 644 345 719 345 c 0,29,30
 795 345 795 345 836 292 c 0,31,32
 865 254 865 254 865 203 c 0,33,34
 865 184 865 184 861 163 c 0,35,36
 845 88 845 88 780.5 34 c 128,-1,37
 716 -20 716 -20 642 -20 c 0,19,20
206 -20 m 0,38,39
 130 -20 130 -20 90 34 c 0,40,41
 60 73 60 73 60 123 c 0,42,43
 60 142 60 142 64 162 c 0,44,45
 80 238 80 238 144 291 c 0,46,47
 208 345 208 345 283 345 c 0,48,49
 359 345 359 345 400 292 c 0,50,51
 429 254 429 254 429 203 c 0,52,53
 429 184 429 184 425 163 c 0,54,55
 409 88 409 88 344.5 34 c 128,-1,56
 280 -20 280 -20 206 -20 c 0,38,39
EndSplineSet
Validated: 1
EndChar

StartChar: perthousand
Encoding: 8240 8240 142
Width: 2750
GlyphClass: 2
Flags: W
HStem: -20 21G<709.301 770.57> 0 103<1350.68 1647.1 2154.68 2451.1> 639 110<1445.9 1742.32 2249.9 2546.32> 761 110<524.68 821.096> 1407 103<619.904 916.32> 1510 20G<1496.42 1557.52>
VStem: 321 198<872.585 1127.64> 923 197<1151.34 1406.44> 1147 197<103.562 358.664> 1748 198<382.359 637.415> 1951 197<103.562 358.664> 2552 198<382.359 637.415>
DStem2: 105.69 -20 319.709 -20 0.207912 0.978148<998.676 1472.93> 534 93 757 -20 0.561853 0.827237<31.8155 1737.11> 629.585 -20 844.092 -20 0.207912 0.978148<934.298 1408.55> 1093.45 -20 1307.95 -20 0.207912 0.978148<220.675 694.929> 1617.83 -20 1831.85 -20 0.207912 0.978148<156.195 630.449> 1897.45 -20 2111.95 -20 0.207912 0.978148<220.675 694.929> 2421.83 -20 2635.85 -20 0.207912 0.978148<156.195 630.449>
LayerCount: 2
Fore
SplineSet
2391 103 m 2,0,1
 2448 103 2448 103 2460 159 c 2,2,-1
 2550 583 l 2,3,4
 2552 593 2552 593 2552 601 c 0,5,6
 2552 639 2552 639 2505 639 c 2,7,-1
 2309 639 l 2,8,9
 2252 639 2252 639 2240 583 c 2,10,-1
 2150 159 l 2,11,12
 2148 149 2148 149 2148 141 c 0,13,14
 2148 103 2148 103 2195 103 c 2,15,-1
 2391 103 l 2,0,1
2373 0 m 2,16,-1
 2199 0 l 2,17,18
 1951 0 1951 0 1951 193 c 0,19,20
 1951 232 1951 232 1961 279 c 2,21,-1
 2002 470 l 2,22,23
 2062 749 2062 749 2328 749 c 2,24,-1
 2502 749 l 2,25,26
 2750 749 2750 749 2750 556 c 0,27,28
 2750 517 2750 517 2740 470 c 2,29,-1
 2699 279 l 2,30,31
 2639 0 2639 0 2373 0 c 2,16,-1
1587 103 m 2,32,33
 1644 103 1644 103 1656 159 c 2,34,-1
 1746 583 l 2,35,36
 1748 593 1748 593 1748 601 c 0,37,38
 1748 639 1748 639 1701 639 c 2,39,-1
 1505 639 l 2,40,41
 1448 639 1448 639 1436 583 c 2,42,-1
 1346 159 l 2,43,44
 1344 149 1344 149 1344 141 c 0,45,46
 1344 103 1344 103 1391 103 c 2,47,-1
 1587 103 l 2,32,33
680 1407 m 2,48,49
 623 1407 623 1407 611 1351 c 2,50,-1
 521 927 l 2,51,52
 519 917 519 917 519 909 c 0,53,54
 519 871 519 871 566 871 c 2,55,-1
 762 871 l 2,56,57
 819 871 819 871 831 927 c 2,58,-1
 921 1351 l 2,59,60
 923 1361 923 1361 923 1369 c 0,61,62
 923 1407 923 1407 876 1407 c 2,63,-1
 680 1407 l 2,48,49
1569 0 m 2,64,-1
 1395 0 l 2,65,66
 1147 0 1147 0 1147 193 c 0,67,68
 1147 232 1147 232 1157 279 c 2,69,-1
 1198 470 l 2,70,71
 1258 749 1258 749 1524 749 c 2,72,-1
 1698 749 l 2,73,74
 1946 749 1946 749 1946 556 c 0,75,76
 1946 517 1946 517 1936 470 c 2,77,-1
 1895 279 l 2,78,79
 1835 0 1835 0 1569 0 c 2,64,-1
698 1510 m 2,80,-1
 872 1510 l 2,81,82
 1120 1510 1120 1510 1120 1317 c 0,83,84
 1120 1278 1120 1278 1110 1231 c 2,85,-1
 1069 1040 l 2,86,87
 1009 761 1009 761 743 761 c 2,88,-1
 569 761 l 2,89,90
 321 761 321 761 321 954 c 0,91,92
 321 993 321 993 331 1040 c 2,93,-1
 372 1231 l 2,94,95
 432 1510 432 1510 698 1510 c 2,80,-1
747 -20 m 1,96,-1
 534 93 l 1,97,-1
 1510 1530 l 1,98,-1
 1520 1530 l 1,99,-1
 1732 1417 l 1,100,-1
 757 -20 l 1,101,-1
 747 -20 l 1,96,-1
EndSplineSet
Validated: 1
EndChar

StartChar: minute
Encoding: 8242 8242 143
Width: 450
GlyphClass: 2
Flags: W
HStem: 1140 460
VStem: 287 452
LayerCount: 2
Fore
SplineSet
543 1600 m 1,0,-1
 553 1600 l 1,1,-1
 739 1501 l 1,2,-1
 430 1140 l 1,3,-1
 420 1140 l 1,4,-1
 287 1210 l 1,5,-1
 543 1600 l 1,0,-1
EndSplineSet
Validated: 1
EndChar

StartChar: second
Encoding: 8243 8243 144
Width: 770
GlyphClass: 2
Flags: W
HStem: 1140 460
LayerCount: 2
Fore
SplineSet
863 1600 m 1,0,-1
 873 1600 l 1,1,-1
 1059 1501 l 1,2,-1
 750 1140 l 1,3,-1
 740 1140 l 1,4,-1
 607 1210 l 1,5,-1
 863 1600 l 1,0,-1
543 1600 m 1,6,-1
 553 1600 l 1,7,-1
 739 1501 l 1,8,-1
 430 1140 l 1,9,-1
 420 1140 l 1,10,-1
 287 1210 l 1,11,-1
 543 1600 l 1,6,-1
EndSplineSet
Validated: 1
EndChar

StartChar: guilsinglleft
Encoding: 8249 8249 145
Width: 811
GlyphClass: 2
Flags: W
VStem: 270 633
DStem2: 544 857 270 755 0.35398 -0.935253<0 525.631> 270 755 544 857 0.626077 0.779761<251.081 793.832>
LayerCount: 2
Fore
SplineSet
270 755 m 1,0,-1
 767 1374 l 1,1,-1
 777 1374 l 1,2,-1
 903 1307 l 1,3,-1
 544 857 l 1,4,-1
 729 365 l 1,5,-1
 470 253 l 1,6,-1
 460 253 l 1,7,-1
 270 755 l 1,0,-1
EndSplineSet
Validated: 1
EndChar

StartChar: guilsinglright
Encoding: 8250 8250 146
Width: 811
GlyphClass: 2
Flags: W
VStem: 229 633
DStem2: 229 203 365 136 0.626077 0.779761<32.9024 575.654> 672 1257 403 1145 0.35398 -0.935253<9.52766 535.158>
LayerCount: 2
Fore
SplineSet
862 755 m 1,0,-1
 365 136 l 1,1,-1
 355 136 l 1,2,-1
 229 203 l 1,3,-1
 588 653 l 1,4,-1
 403 1145 l 1,5,-1
 662 1257 l 1,6,-1
 672 1257 l 1,7,-1
 862 755 l 1,0,-1
EndSplineSet
Validated: 1
EndChar

StartChar: fraction
Encoding: 8260 8260 147
Width: 937
GlyphClass: 2
Flags: W
HStem: -20 21G<205.301 266.57> 1510 20G<992.416 1053.52>
DStem2: 30 93 253 -20 0.561853 0.827237<31.8155 1737.11>
LayerCount: 2
Fore
SplineSet
243 -20 m 1,0,-1
 30 93 l 1,1,-1
 1006 1530 l 1,2,-1
 1016 1530 l 1,3,-1
 1228 1417 l 1,4,-1
 253 -20 l 1,5,-1
 243 -20 l 1,0,-1
EndSplineSet
Validated: 1
EndChar

StartChar: Euro
Encoding: 8364 8364 148
Width: 1440
GlyphClass: 2
Flags: W
HStem: 0 150<624.146 1029.55> 586 140<255 365 724 1034> 786 140<298 407 767 1076> 1360 150<861.257 1265.05>
VStem: 1271 300<1113.89 1355.65>
DStem2: 240.229 0 570.025 0 0.207912 0.978148<280.639 599.136 1015.29 1385.61>
LayerCount: 2
Fore
SplineSet
950 0 m 2,0,-1
 680 0 l 2,1,2
 308 0 308 0 308 271 c 0,3,4
 308 319 308 319 321 380 c 2,5,-1
 365 586 l 1,6,-1
 165 586 l 1,7,-1
 167 596 l 1,8,-1
 255 726 l 1,9,-1
 394 726 l 1,10,-1
 407 786 l 1,11,-1
 207 786 l 1,12,-1
 209 796 l 1,13,-1
 298 926 l 1,14,-1
 437 926 l 1,15,-1
 480 1130 l 2,16,17
 560 1510 560 1510 941 1510 c 2,18,-1
 1211 1510 l 2,19,20
 1571 1510 1571 1510 1571 1231 c 0,21,22
 1571 1179 1571 1179 1558 1118 c 1,23,-1
 1211 967 l 1,24,-1
 1201 967 l 1,25,-1
 1269 1289 l 2,26,27
 1271 1298 1271 1298 1271 1310 c 0,28,29
 1271 1360 1271 1360 1204 1360 c 2,30,-1
 939 1360 l 2,31,32
 859 1360 859 1360 844 1289 c 2,33,-1
 767 926 l 1,34,-1
 1167 926 l 1,35,-1
 1165 916 l 1,36,-1
 1076 786 l 1,37,-1
 737 786 l 1,38,-1
 724 726 l 1,39,-1
 1124 726 l 1,40,-1
 1122 716 l 1,41,-1
 1034 586 l 1,42,-1
 695 586 l 1,43,-1
 617 221 l 2,44,45
 615 212 615 212 615 200 c 0,46,47
 615 150 615 150 682 150 c 2,48,-1
 947 150 l 2,49,50
 1027 150 1027 150 1042 221 c 2,51,-1
 1081 403 l 1,52,-1
 1439 558 l 1,53,-1
 1449 558 l 1,54,-1
 1411 380 l 2,55,56
 1330 0 1330 0 950 0 c 2,0,-1
EndSplineSet
Validated: 1
EndChar

StartChar: afii61248
Encoding: 8453 8453 149
Width: 1734
GlyphClass: 2
Flags: W
HStem: -20 21G<593.301 654.57> 0 96<1252.71 1442.9> 699 96<1368.1 1558.29> 715 96<490.449 668.949> 1414 96<610.044 781.86> 1510 20G<1380.42 1441.52>
VStem: 299 191<812.182 1035.73> 786 179<1266.61 1413.73> 1056 191<97.5117 322.008> 1564 191<474.273 697.488>
DStem2: 105.134 -20 310.114 -20 0.207912 0.978148<905.847 1509.09> 418 93 641 -20 0.561853 0.827237<31.8155 1737.11> 1014.11 -20 1219.24 -20 0.207912 0.978148<175.851 782.058> 1415.16 -20 1620.11 -20 0.207912 0.978148<118.311 720.269>
LayerCount: 2
Fore
SplineSet
1249 120 m 2,0,1
 1247 111 1247 111 1247 107 c 0,2,3
 1247 96 1247 96 1263 96 c 2,4,-1
 1419 96 l 2,5,6
 1440 96 1440 96 1443 111 c 2,7,-1
 1563 679 l 2,8,9
 1564 684 1564 684 1564 688 c 0,10,11
 1564 699 1564 699 1548 699 c 2,12,-1
 1392 699 l 2,13,14
 1371 699 1371 699 1368 684 c 2,15,-1
 1249 120 l 2,0,1
642 1510 m 2,16,-1
 776 1510 l 2,17,18
 965 1510 965 1510 965 1331 c 0,19,20
 965 1304 965 1304 960 1273 c 1,21,-1
 753 1198 l 1,22,-1
 743 1198 l 1,23,-1
 785 1394 l 2,24,25
 786 1399 786 1399 786 1403 c 0,26,27
 786 1414 786 1414 769 1414 c 2,28,-1
 635 1414 l 2,29,30
 615 1414 615 1414 612 1399 c 2,31,-1
 491 831 l 2,32,33
 490 826 490 826 490 822 c 0,34,35
 490 811 490 811 507 811 c 2,36,-1
 641 811 l 2,37,38
 661 811 661 811 664 826 c 2,39,-1
 690 947 l 1,40,-1
 905 1034 l 1,41,-1
 915 1034 l 1,42,-1
 892 925 l 2,43,44
 848 715 848 715 637 715 c 2,45,-1
 503 715 l 2,46,47
 299 715 299 715 299 864 c 0,48,49
 299 892 299 892 306 925 c 2,50,-1
 386 1300 l 2,51,52
 431 1510 431 1510 642 1510 c 2,16,-1
1413 0 m 2,53,-1
 1259 0 l 2,54,55
 1056 0 1056 0 1056 150 c 0,56,57
 1056 178 1056 178 1063 210 c 2,58,-1
 1142 585 l 2,59,60
 1186 795 1186 795 1398 795 c 2,61,-1
 1552 795 l 2,62,63
 1755 795 1755 795 1755 645 c 0,64,65
 1755 617 1755 617 1748 585 c 2,66,-1
 1669 210 l 2,67,68
 1625 0 1625 0 1413 0 c 2,53,-1
631 -20 m 1,69,-1
 418 93 l 1,70,-1
 1394 1530 l 1,71,-1
 1404 1530 l 1,72,-1
 1616 1417 l 1,73,-1
 641 -20 l 1,74,-1
 631 -20 l 1,69,-1
EndSplineSet
Validated: 1
EndChar

StartChar: afii61289
Encoding: 8467 8467 150
Width: 1247
GlyphClass: 2
Flags: W
HStem: -20 236<632 800.645> 0 21G<110 490.364> 1510 20G<1129.5 1227>
LayerCount: 2
Fore
SplineSet
686 -20 m 0,0,1
 578 -20 578 -20 510 44 c 1,2,-1
 474 0 l 1,3,-1
 110 0 l 1,4,5
 306 162 306 162 444 325 c 1,6,7
 453 420 453 420 475 524 c 0,8,9
 509 686 509 686 595 865 c 0,10,11
 773 1240 773 1240 963 1423 c 0,12,13
 1074 1530 1074 1530 1185 1530 c 0,14,15
 1269 1530 1269 1530 1309 1480 c 0,16,17
 1341 1439 1341 1439 1341 1371 c 0,18,19
 1341 1331 1341 1331 1330 1281 c 0,20,21
 1310 1186 1310 1186 1250 1041 c 0,22,23
 1105 688 1105 688 734 272 c 1,24,25
 731 254 731 254 731 242 c 0,26,27
 731 216 731 216 745 216 c 0,28,29
 766 216 766 216 800 260 c 0,30,31
 821 286 821 286 839 319 c 1,32,-1
 1155 319 l 1,33,34
 1025 144 1025 144 910.5 62 c 128,-1,35
 796 -20 796 -20 686 -20 c 0,0,1
EndSplineSet
Validated: 1
EndChar

StartChar: trademark
Encoding: 8482 8482 151
Width: 1791
GlyphClass: 2
Flags: W
HStem: 1434 96<426 578 778 950 1168.25 1374.8 1572.96 1778.49>
VStem: 1782 187<1341.2 1431.64>
DStem2: 427 723 627.058 723 0.207912 0.978148<118.27 726.858> 825 723 1025.06 723 0.207912 0.978148<118.27 769.817> 1230 723 1430.06 723 0.207912 0.978148<118.27 714.166> 1635 723 1835.06 723 0.207912 0.978148<118.27 712.206>
LayerCount: 2
Fore
SplineSet
1206 1530 m 2,0,-1
 1361 1530 l 2,1,2
 1436 1530 1436 1530 1481 1505 c 1,3,4
 1537 1530 1537 1530 1611 1530 c 2,5,-1
 1766 1530 l 2,6,7
 1969 1530 1969 1530 1969 1381 c 0,8,9
 1969 1353 1969 1353 1962 1320 c 2,10,-1
 1851 798 l 1,11,-1
 1645 723 l 1,12,-1
 1635 723 l 1,13,-1
 1780 1408 l 2,14,15
 1782 1417 1782 1417 1782 1422 c 0,16,17
 1782 1434 1782 1434 1766 1434 c 2,18,-1
 1601 1434 l 2,19,20
 1580 1434 1580 1434 1577 1418 c 2,21,-1
 1446 798 l 1,22,-1
 1240 723 l 1,23,-1
 1230 723 l 1,24,-1
 1376 1413 l 2,25,26
 1377 1418 1377 1418 1377 1422 c 0,27,28
 1377 1434 1377 1434 1361 1434 c 2,29,-1
 1196 1434 l 2,30,31
 1175 1434 1175 1434 1172 1418 c 2,32,-1
 1041 798 l 1,33,-1
 835 723 l 1,34,-1
 825 723 l 1,35,-1
 952 1320 l 2,36,37
 997 1530 997 1530 1206 1530 c 2,0,-1
426 1530 m 1,38,-1
 1011 1530 l 1,39,-1
 1009 1520 l 1,40,-1
 950 1434 l 1,41,-1
 778 1434 l 1,42,-1
 643 798 l 1,43,-1
 437 723 l 1,44,-1
 427 723 l 1,45,-1
 578 1434 l 1,46,-1
 365 1434 l 1,47,-1
 367 1444 l 1,48,-1
 426 1530 l 1,38,-1
EndSplineSet
Validated: 1
EndChar

StartChar: uni2126
Encoding: 8486 8486 152
Width: 1450
GlyphClass: 2
Flags: W
HStem: 0 384<575.262 688 844 1027.93> 0 150<259 484 1029 1223> 1360 150<770.453 1237.3>
VStem: 287 288<386.074 653.854>
DStem2: 160.375 0 480.287 0 0.207912 0.978148<552.483 1385.58> 970.287 0 1290.37 0 0.207912 0.978148<507.929 1328.28>
LayerCount: 2
Fore
SplineSet
688 0 m 1,0,-1
 160 0 l 1,1,-1
 162 10 l 1,2,-1
 259 150 l 1,3,-1
 484 150 l 1,4,-1
 509 270 l 1,5,6
 287 307 287 307 287 536 c 0,7,8
 287 597 287 597 303 671 c 2,9,-1
 400 1130 l 2,10,11
 480 1510 480 1510 861 1510 c 2,12,-1
 1171 1510 l 2,13,14
 1542 1510 1542 1510 1542 1238 c 0,15,16
 1542 1188 1542 1188 1530 1130 c 2,17,-1
 1433 671 l 2,18,19
 1358 316 1358 316 1054 270 c 1,20,-1
 1029 150 l 1,21,-1
 1322 150 l 1,22,-1
 1320 140 l 1,23,-1
 1223 0 l 1,24,-1
 762 0 l 1,25,-1
 844 384 l 1,26,-1
 972 384 l 2,27,28
 1052 384 1052 384 1067 455 c 2,29,-1
 1244 1289 l 2,30,31
 1246 1300 1246 1300 1246 1310 c 0,32,33
 1246 1360 1246 1360 1179 1360 c 2,34,-1
 849 1360 l 2,35,36
 769 1360 769 1360 754 1289 c 2,37,-1
 577 455 l 2,38,39
 575 444 575 444 575 434 c 0,40,41
 575 384 575 384 642 384 c 2,42,-1
 770 384 l 1,43,-1
 688 0 l 1,0,-1
EndSplineSet
Validated: 1
EndChar

StartChar: estimated
Encoding: 8494 8494 153
Width: 1241
GlyphClass: 2
Flags: W
HStem: -20 183<484.071 844.178> 491 189<538 990> 935 185<629.618 988.502>
LayerCount: 2
Fore
SplineSet
615 -20 m 0,0,1
 364 -20 364 -20 245 145 c 0,2,3
 162 260 162 260 162 412 c 0,4,5
 162 479 162 479 178 553 c 0,6,7
 231 802 231 802 420 960 c 0,8,9
 612 1120 612 1120 854 1120 c 0,10,11
 1097 1120 1097 1120 1214 974 c 0,12,13
 1306 858 1306 858 1306 679 c 0,14,15
 1306 593 1306 593 1285 491 c 1,16,-1
 497 491 l 1,17,-1
 444 239 l 1,18,19
 523 163 523 163 654 163 c 0,20,21
 862 163 862 163 1020 351 c 1,22,-1
 1163 255 l 1,23,24
 1003 85 1003 85 873 32.5 c 128,-1,25
 743 -20 743 -20 615 -20 c 0,0,1
990 680 m 1,26,-1
 1028 862 l 1,27,28
 946 935 946 935 816 935 c 0,29,30
 684 935 684 935 576 861 c 1,31,-1
 538 680 l 1,32,-1
 990 680 l 1,26,-1
EndSplineSet
Validated: 1
EndChar

StartChar: partialdiff
Encoding: 8706 8706 154
Width: 1325
GlyphClass: 2
Flags: W
HStem: -20 273<518.171 730.08> 823 260<742.537 985.899> 1257 273<781.982 1086.06>
VStem: 183 317<275.435 519.417> 1130 310<1024.77 1213.04>
LayerCount: 2
Fore
SplineSet
528 -20 m 0,0,1
 258 -20 258 -20 199 171 c 0,2,3
 183 223 183 223 183 285 c 0,4,5
 183 345 183 345 198 416 c 0,6,7
 253 673 253 673 450.5 878 c 128,-1,8
 648 1083 648 1083 920 1083 c 0,9,10
 1039 1083 1039 1083 1124 1024 c 1,11,12
 1130 1059 1130 1059 1130 1089 c 0,13,14
 1130 1138 1130 1138 1114 1173 c 0,15,16
 1075 1257 1075 1257 953 1257 c 0,17,18
 798 1257 798 1257 621 1132 c 1,19,-1
 687 1443 l 1,20,21
 851 1530 851 1530 1048 1530 c 0,22,23
 1365 1530 1365 1530 1426 1271 c 0,24,25
 1440 1213 1440 1213 1440 1145 c 0,26,27
 1440 1057 1440 1057 1417 950 c 0,28,29
 1335 563 1335 563 1090 272 c 0,30,31
 847 -20 847 -20 528 -20 c 0,0,1
1028 699 m 1,32,33
 1019 756 1019 756 982 788 c 0,34,35
 942 823 942 823 875 823 c 0,36,37
 766 823 766 823 660 706 c 0,38,39
 535 567 535 567 507 431 c 0,40,41
 500 396 500 396 500 367 c 0,42,43
 500 324 500 324 516 295 c 0,44,45
 539 253 539 253 599 253 c 0,46,47
 706 253 706 253 827 376 c 128,-1,48
 948 499 948 499 1028 699 c 1,32,33
EndSplineSet
Validated: 1
EndChar

StartChar: uni2206
Encoding: 8710 8710 155
Width: 1505
GlyphClass: 2
Flags: W
HStem: 0 150<273 1150> 1510 20G<1143.69 1203.92>
DStem2: 5 0 273 150 0.533902 0.845546<269.918 1521.69> 1200 1530 942 1208 0.192414 -0.981314<266.34 1344.59>
LayerCount: 2
Fore
SplineSet
5 0 m 1,0,-1
 889 1400 l 1,1,-1
 1190 1530 l 1,2,-1
 1200 1530 l 1,3,-1
 1500 0 l 1,4,-1
 5 0 l 1,0,-1
273 150 m 1,5,-1
 1150 150 l 1,6,-1
 942 1208 l 1,7,-1
 273 150 l 1,5,-1
EndSplineSet
Validated: 1
EndChar

StartChar: product
Encoding: 8719 8719 156
Width: 1440
GlyphClass: 2
Flags: W
HStem: -430 21G<69 125.395 869 925.395> 1360 150<769 1249>
DStem2: 69 -430 388.754 -430 0.207912 0.978148<216.765 1854.41> 869 -430 1188.75 -430 0.207912 0.978148<216.765 1829.89>
LayerCount: 2
Fore
SplineSet
79 -430 m 1,0,-1
 69 -430 l 1,1,-1
 454 1384 l 1,2,-1
 749 1510 l 1,3,-1
 1601 1510 l 1,4,-1
 1220 -283 l 1,5,-1
 879 -430 l 1,6,-1
 869 -430 l 1,7,-1
 1249 1360 l 1,8,-1
 769 1360 l 1,9,-1
 420 -283 l 1,10,-1
 79 -430 l 1,0,-1
EndSplineSet
Validated: 1
EndChar

StartChar: summation
Encoding: 8721 8721 157
Width: 1284
GlyphClass: 2
Flags: W
HStem: -410 150<454 1020> 1360 150<754 1390>
DStem2: -27 -410 454 -260 0.591399 0.806379<405.42 1232.67> 754 1360 377 1427 0.359721 -0.93306<0 705.349>
LayerCount: 2
Fore
SplineSet
-27 -410 m 1,0,-1
 702 584 l 1,1,-1
 377 1427 l 1,2,-1
 571 1510 l 1,3,-1
 1489 1510 l 1,4,-1
 1487 1500 l 1,5,-1
 1390 1360 l 1,6,-1
 754 1360 l 1,7,-1
 1070 562 l 1,8,-1
 454 -260 l 1,9,-1
 1119 -260 l 1,10,-1
 1117 -270 l 1,11,-1
 1020 -410 l 1,12,-1
 -27 -410 l 1,0,-1
EndSplineSet
Validated: 1
EndChar

StartChar: minus
Encoding: 8722 8722 158
Width: 1240
GlyphClass: 2
Flags: W
HStem: 620 270<424 1137>
LayerCount: 2
Fore
SplineSet
424 890 m 1,0,-1
 1319 890 l 1,1,-1
 1317 880 l 1,2,-1
 1137 620 l 1,3,-1
 242 620 l 1,4,-1
 244 630 l 1,5,-1
 424 890 l 1,0,-1
EndSplineSet
Validated: 1
EndChar

StartChar: uni2215
Encoding: 8725 8725 159
Width: 937
GlyphClass: 2
Flags: W
HStem: -20 21G<205.301 266.57> 1510 20G<992.416 1053.52>
DStem2: 30 93 253 -20 0.561853 0.827237<31.8155 1737.11>
LayerCount: 2
Fore
SplineSet
243 -20 m 1,0,-1
 30 93 l 1,1,-1
 1006 1530 l 1,2,-1
 1016 1530 l 1,3,-1
 1228 1417 l 1,4,-1
 253 -20 l 1,5,-1
 243 -20 l 1,0,-1
EndSplineSet
Validated: 1
EndChar

StartChar: uni2219
Encoding: 8729 8729 160
Width: 420
GlyphClass: 2
Flags: W
HStem: 573 365<282.097 458.323>
VStem: 186 369<668.75 842.936>
LayerCount: 2
Fore
SplineSet
409 938 m 0,0,1
 485 938 485 938 526 885 c 0,2,3
 555 847 555 847 555 796 c 0,4,5
 555 777 555 777 551 756 c 0,6,7
 535 681 535 681 470.5 627 c 128,-1,8
 406 573 406 573 332 573 c 0,9,10
 256 573 256 573 216 627 c 0,11,12
 186 666 186 666 186 716 c 0,13,14
 186 735 186 735 190 755 c 0,15,16
 206 831 206 831 270 884 c 0,17,18
 334 938 334 938 409 938 c 0,0,1
EndSplineSet
Validated: 1
EndChar

StartChar: radical
Encoding: 8730 8730 161
Width: 1176
GlyphClass: 2
Flags: W
HStem: -20 21G<296.505 356.508> 1510 20G<1328.13 1390.08>
DStem2: 447 858 167 741 0.172161 -0.985069<67.0481 565.603> 551 302 603 106 0.541352 0.840796<0 1460.17>
LayerCount: 2
Fore
SplineSet
310 -20 m 1,0,-1
 300 -20 l 1,1,-1
 167 741 l 1,2,-1
 437 858 l 1,3,-1
 447 858 l 1,4,-1
 551 302 l 1,5,-1
 1341 1530 l 1,6,-1
 1351 1530 l 1,7,-1
 1478 1465 l 1,8,-1
 603 106 l 1,9,-1
 310 -20 l 1,0,-1
EndSplineSet
Validated: 1
EndChar

StartChar: infinity
Encoding: 8734 8734 162
Width: 1482
GlyphClass: 2
Flags: W
HStem: 373 103<441.858 742.469 959.125 1262.91> 1012 110<536.377 836.933 1054.24 1357.32>
VStem: 239 196<476.831 731.664> 1363 198<755.359 1009.83>
DStem2: 189.697 373 403.204 373 0.207912 0.978148<201.176 674.074> 713.204 373 927.204 373 0.207912 0.978148<189.268 613.776> 1237.08 373 1451.1 373 0.207912 0.978148<136.122 608.077>
LayerCount: 2
Fore
SplineSet
1202 476 m 2,0,1
 1259 476 1259 476 1271 532 c 2,2,-1
 1361 956 l 2,3,4
 1363 966 1363 966 1363 974 c 0,5,6
 1363 1012 1363 1012 1316 1012 c 2,7,-1
 1120 1012 l 2,8,9
 1063 1012 1063 1012 1051 956 c 2,10,-1
 961 532 l 2,11,12
 959 522 959 522 959 514 c 0,13,14
 959 476 959 476 1006 476 c 2,15,-1
 1202 476 l 2,0,1
678 476 m 2,16,17
 735 476 735 476 747 532 c 2,18,-1
 837 956 l 2,19,20
 839 966 839 966 839 974 c 0,21,22
 839 1012 839 1012 792 1012 c 2,23,-1
 596 1012 l 2,24,25
 539 1012 539 1012 527 956 c 2,26,-1
 437 532 l 2,27,28
 435 522 435 522 435 514 c 0,29,30
 435 476 435 476 482 476 c 2,31,-1
 678 476 l 2,16,17
615 1122 m 2,32,-1
 789 1122 l 2,33,34
 897 1122 897 1122 956 1081 c 1,35,36
 1032 1122 1032 1122 1139 1122 c 2,37,-1
 1313 1122 l 2,38,39
 1561 1122 1561 1122 1561 927 c 0,40,41
 1561 889 1561 889 1551 843 c 2,42,-1
 1511 652 l 2,43,44
 1453 373 1453 373 1184 373 c 2,45,-1
 1010 373 l 2,46,47
 902 373 902 373 844 414 c 1,48,49
 768 373 768 373 660 373 c 2,50,-1
 486 373 l 2,51,52
 239 373 239 373 239 567 c 0,53,54
 239 605 239 605 249 652 c 2,55,-1
 289 843 l 2,56,57
 347 1122 347 1122 615 1122 c 2,32,-1
EndSplineSet
Validated: 1
EndChar

StartChar: approxequal
Encoding: 8776 8776 163
Width: 1178
GlyphClass: 2
Flags: W
HStem: 265 212<736.378 983.553> 535 212<410.066 656.622> 765 212<842.378 1089.55> 1035 212<516.066 762.622>
LayerCount: 2
Fore
SplineSet
575 747 m 0,0,1
 756 747 756 747 802 594 c 0,2,3
 819 537 819 537 835 513 c 0,4,5
 859 477 859 477 908 477 c 0,6,7
 1012 477 1012 477 1055 678 c 1,8,-1
 1217 747 l 1,9,-1
 1227 747 l 1,10,11
 1125 265 1125 265 818 265 c 0,12,13
 637 265 637 265 591 418 c 0,14,15
 574 475 574 475 558 499 c 0,16,17
 534 535 534 535 486 535 c 0,18,19
 382 535 382 535 338 334 c 1,20,-1
 176 265 l 1,21,-1
 166 265 l 1,22,23
 269 747 269 747 575 747 c 0,0,1
681 1247 m 0,24,25
 862 1247 862 1247 908 1094 c 0,26,27
 925 1037 925 1037 941 1013 c 0,28,29
 965 977 965 977 1014 977 c 0,30,31
 1118 977 1118 977 1161 1178 c 1,32,-1
 1323 1247 l 1,33,-1
 1333 1247 l 1,34,35
 1231 765 1231 765 924 765 c 0,36,37
 743 765 743 765 697 918 c 0,38,39
 680 975 680 975 664 999 c 0,40,41
 640 1035 640 1035 592 1035 c 0,42,43
 488 1035 488 1035 444 834 c 1,44,-1
 282 765 l 1,45,-1
 272 765 l 1,46,47
 375 1247 375 1247 681 1247 c 0,24,25
EndSplineSet
Validated: 1
EndChar

StartChar: notequal
Encoding: 8800 8800 164
Width: 1240
GlyphClass: 2
Flags: W
HStem: 390 270<375 448 617 631 800 1088> 850 270<473 760 930 943 1113 1186>
DStem2: 298 170 465 166 0.561828 0.827254<90.5163 266.27 687.392 822.097 1243.78 1420.36>
LayerCount: 2
Fore
SplineSet
473 1120 m 1,0,-1
 943 1120 l 1,1,-1
 1096 1345 l 1,2,-1
 1255 1345 l 1,3,-1
 1263 1341 l 1,4,-1
 1113 1120 l 1,5,-1
 1368 1120 l 1,6,-1
 1366 1110 l 1,7,-1
 1186 850 l 1,8,-1
 930 850 l 1,9,-1
 800 660 l 1,10,-1
 1270 660 l 1,11,-1
 1268 650 l 1,12,-1
 1088 390 l 1,13,-1
 617 390 l 1,14,-1
 465 166 l 1,15,-1
 306 166 l 1,16,-1
 298 170 l 1,17,-1
 448 390 l 1,18,-1
 193 390 l 1,19,-1
 195 400 l 1,20,-1
 375 660 l 1,21,-1
 631 660 l 1,22,-1
 760 850 l 1,23,-1
 291 850 l 1,24,-1
 293 860 l 1,25,-1
 473 1120 l 1,0,-1
EndSplineSet
Validated: 1
EndChar

StartChar: lessequal
Encoding: 8804 8804 165
Width: 1355
GlyphClass: 2
Flags: W
HStem: 154 270<325 1103>
DStem2: 647 968 282 806 0.933479 -0.358631<0 679.37> 452 1059 647 968 0.945835 0.324646<154.895 1017.63>
LayerCount: 2
Fore
SplineSet
452 1059 m 1,0,-1
 1428 1394 l 1,1,-1
 1464 1261 l 1,2,-1
 1462 1251 l 1,3,-1
 647 968 l 1,4,-1
 1346 707 l 1,5,-1
 1343 697 l 1,6,-1
 1180 461 l 1,7,-1
 282 806 l 1,8,-1
 284 816 l 1,9,-1
 452 1059 l 1,0,-1
325 424 m 1,10,-1
 1285 424 l 1,11,-1
 1283 414 l 1,12,-1
 1103 154 l 1,13,-1
 143 154 l 1,14,-1
 145 164 l 1,15,-1
 325 424 l 1,10,-1
EndSplineSet
Validated: 1
EndChar

StartChar: greaterequal
Encoding: 8805 8805 166
Width: 1355
GlyphClass: 2
Flags: W
HStem: 154 270<375 1153>
DStem2: 284 587 318 444 0.945835 0.324646<0 862.731> 566 1377 400 1131 0.933479 -0.358631<0 679.37>
LayerCount: 2
Fore
SplineSet
1294 779 m 1,0,-1
 318 444 l 1,1,-1
 282 577 l 1,2,-1
 284 587 l 1,3,-1
 1099 870 l 1,4,-1
 400 1131 l 1,5,-1
 403 1141 l 1,6,-1
 566 1377 l 1,7,-1
 1464 1032 l 1,8,-1
 1462 1022 l 1,9,-1
 1294 779 l 1,0,-1
375 424 m 1,10,-1
 1335 424 l 1,11,-1
 1333 414 l 1,12,-1
 1153 154 l 1,13,-1
 193 154 l 1,14,-1
 195 164 l 1,15,-1
 375 424 l 1,10,-1
EndSplineSet
Validated: 1
EndChar

StartChar: lozenge
Encoding: 9674 9674 167
Width: 1178
GlyphClass: 2
Flags: W
HStem: -20 21G<575.29 603.16> 1510 20G<896.399 923.176>
DStem2: 217 738 476 830 0.660649 0.750695<240.172 683.724> 476 830 217 738 0.436739 -0.899588<0 572.01> 727 316 585 -20 0.672237 0.740336<0 436.366> 914 1530 769 1163 0.417012 -0.908901<273.1 848.73>
LayerCount: 2
Fore
SplineSet
727 316 m 1,0,-1
 1016 643 l 1,1,-1
 769 1163 l 1,2,-1
 476 830 l 1,3,-1
 727 316 l 1,0,-1
585 -20 m 1,4,-1
 217 738 l 1,5,-1
 914 1530 l 1,6,-1
 1276 741 l 1,7,-1
 585 -20 l 1,4,-1
EndSplineSet
Validated: 1
EndChar

StartChar: Oslash
Encoding: 216 216 168
Width: 1370
Flags: W
HStem: 0 150<508.203 960.328> 1360 150<730.672 1182.27>
DStem2: 111.726 -40 431.639 -40 0.207912 0.978148<486.696 1426.6> 303 54 371 -40 0.562139 0.827043<-39.5166 0 383.595 1385.84 1769.43 1808.39> 921.523 -40 1241.73 -40 0.207912 0.978148<265.413 1205.31>
LayerCount: 2
Fore
SplineSet
552 150 m 2,0,-1
 882 150 l 2,1,2
 962 150 962 150 977 221 c 2,3,-1
 1172 1139 l 1,4,-1
 507 159 l 1,5,6
 523 150 523 150 552 150 c 2,0,-1
519 371 m 1,7,-1
 1184 1351 l 1,8,9
 1168 1360 1168 1360 1139 1360 c 2,10,-1
 809 1360 l 2,11,12
 729 1360 729 1360 714 1289 c 2,13,-1
 519 371 l 1,7,-1
870 0 m 2,14,-1
 560 0 l 2,15,16
 474 0 474 0 408 15 c 1,17,-1
 371 -40 l 1,18,-1
 250 -40 l 1,19,-1
 242 -36 l 1,20,-1
 303 54 l 1,21,22
 189 121 189 121 189 271 c 0,23,24
 189 321 189 321 201 380 c 2,25,-1
 360 1130 l 2,26,27
 441 1510 441 1510 821 1510 c 2,28,-1
 1131 1510 l 2,29,30
 1216 1510 1216 1510 1282 1496 c 1,31,-1
 1319 1550 l 1,32,-1
 1440 1550 l 1,33,-1
 1449 1546 l 1,34,-1
 1388 1456 l 1,35,36
 1502 1389 1502 1389 1502 1239 c 0,37,38
 1502 1189 1502 1189 1490 1130 c 2,39,-1
 1331 380 l 2,40,41
 1250 0 1250 0 870 0 c 2,14,-1
EndSplineSet
Validated: 1
EndChar

StartChar: oslash
Encoding: 248 248 169
Width: 1190
Flags: W
HStem: 0 140<500 806.798> 960 140<617.202 924>
DStem2: 111.243 -40 411.117 -40 0.207912 0.978148<427.323 1052.14> 294 33 377 -40 0.561983 0.827149<-13.7373 0 343.373 981.155 1324.53 1338.26> 761.066 -40 1061.94 -40 0.207912 0.978148<216.776 841.386>
LayerCount: 2
Fore
SplineSet
760 140 m 2,0,1
 800 140 800 140 807 175 c 2,2,-1
 936 783 l 1,3,-1
 500 140 l 1,4,-1
 760 140 l 2,0,1
487 317 m 1,5,-1
 924 960 l 1,6,-1
 664 960 l 2,7,8
 624 960 624 960 617 925 c 2,9,-1
 487 317 l 1,5,-1
760 0 m 2,10,-1
 490 0 l 2,11,12
 445 0 445 0 407 4 c 1,13,-1
 377 -40 l 1,14,-1
 256 -40 l 1,15,-1
 247 -36 l 1,16,-1
 294 33 l 1,17,18
 175 86 175 86 175 222 c 0,19,20
 175 261 175 261 185 307 c 2,21,-1
 289 793 l 2,22,23
 355 1100 355 1100 664 1100 c 2,24,-1
 934 1100 l 2,25,26
 978 1100 978 1100 1016 1096 c 1,27,-1
 1046 1140 l 1,28,-1
 1167 1140 l 1,29,-1
 1176 1136 l 1,30,-1
 1129 1067 l 1,31,32
 1249 1015 1249 1015 1249 878 c 0,33,34
 1249 839 1249 839 1239 793 c 2,35,-1
 1135 307 l 2,36,37
 1069 0 1069 0 760 0 c 2,10,-1
EndSplineSet
Validated: 1
EndChar

StartChar: multiply
Encoding: 215 215 170
Width: 1232
Flags: W
DStem2: 264 490 521 387 0.771669 0.636024<132.808 411.294 716.76 995.245> 678 1123 377 1020 0.618315 -0.78593<0 225.055 475.197 700.253>
LayerCount: 2
Fore
SplineSet
1283 1027 m 1,0,-1
 1289 1020 l 1,1,-1
 967 755 l 1,2,-1
 1176 490 l 1,3,-1
 1168 483 l 1,4,-1
 875 387 l 1,5,-1
 736 564 l 1,6,-1
 521 387 l 1,7,-1
 270 483 l 1,8,-1
 264 490 l 1,9,-1
 585 755 l 1,10,-1
 377 1020 l 1,11,-1
 385 1027 l 1,12,-1
 678 1123 l 1,13,-1
 817 946 l 1,14,-1
 1032 1123 l 1,15,-1
 1283 1027 l 1,0,-1
EndSplineSet
Validated: 1
EndChar

StartChar: divide
Encoding: 247 247 171
Width: 1240
Flags: W
HStem: 155 365<604.097 780.323> 620 270<424 1137> 990 365<781.097 957.323>
CounterMasks: 1 e0
LayerCount: 2
Fore
SplineSet
654 155 m 0,0,1
 578 155 578 155 538 209 c 0,2,3
 508 248 508 248 508 298 c 0,4,5
 508 317 508 317 512 337 c 0,6,7
 528 413 528 413 592 466 c 0,8,9
 656 520 656 520 731 520 c 0,10,11
 807 520 807 520 848 467 c 0,12,13
 877 429 877 429 877 378 c 0,14,15
 877 359 877 359 873 338 c 0,16,17
 857 263 857 263 792.5 209 c 128,-1,18
 728 155 728 155 654 155 c 0,0,1
908 1355 m 0,19,20
 984 1355 984 1355 1025 1302 c 0,21,22
 1054 1264 1054 1264 1054 1213 c 0,23,24
 1054 1194 1054 1194 1050 1173 c 0,25,26
 1034 1098 1034 1098 969.5 1044 c 128,-1,27
 905 990 905 990 831 990 c 0,28,29
 755 990 755 990 715 1044 c 0,30,31
 685 1083 685 1083 685 1133 c 0,32,33
 685 1152 685 1152 689 1172 c 0,34,35
 705 1248 705 1248 769 1301 c 0,36,37
 833 1355 833 1355 908 1355 c 0,19,20
424 890 m 1,38,-1
 1319 890 l 1,39,-1
 1317 880 l 1,40,-1
 1137 620 l 1,41,-1
 242 620 l 1,42,-1
 244 630 l 1,43,-1
 424 890 l 1,38,-1
EndSplineSet
Validated: 1
EndChar

StartChar: uni1E02
Encoding: 7682 7682 172
Width: 1300
Flags: W
HStem: 0 150<512 949.743> 751 135<668 1044.43> 1375 135<772 1129.36> 1589 365<939.097 1115.32>
VStem: 1067 320<484.352 748.404>
DStem2: 160 0 480.117 0 0.207912 0.978148<219.907 834.386 972.258 1414.88> 919.875 0 1250.23 0 0.207912 0.978148<226.724 717.951>
LayerCount: 2
Fore
SplineSet
512 150 m 1,0,-1
 872 150 l 2,1,2
 952 150 952 150 966 217 c 2,3,-1
 1065 684 l 2,4,5
 1067 694 1067 694 1067 703 c 0,6,7
 1067 751 1067 751 1000 751 c 2,8,-1
 640 751 l 1,9,-1
 512 150 l 1,0,-1
160 0 m 1,10,-1
 454 1384 l 1,11,-1
 749 1510 l 1,12,-1
 1041 1510 l 2,13,14
 1418 1510 1418 1510 1418 1257 c 0,15,16
 1418 1216 1418 1216 1408 1168 c 2,17,-1
 1388 1072 l 2,18,19
 1366 967 1366 967 1300 893 c 1,20,21
 1387 828 1387 828 1387 697 c 0,22,23
 1387 648 1387 648 1375 590 c 2,24,-1
 1331 380 l 2,25,26
 1251 0 1251 0 870 0 c 2,27,-1
 160 0 l 1,10,-1
668 886 m 1,28,-1
 958 886 l 2,29,30
 1038 886 1038 886 1052 952 c 2,31,-1
 1128 1309 l 2,32,33
 1130 1319 1130 1319 1130 1327 c 0,34,35
 1130 1375 1130 1375 1062 1375 c 2,36,-1
 772 1375 l 1,37,-1
 668 886 l 1,28,-1
1066 1954 m 0,38,39
 1142 1954 1142 1954 1183 1901 c 0,40,41
 1212 1863 1212 1863 1212 1812 c 0,42,43
 1212 1793 1212 1793 1208 1772 c 0,44,45
 1192 1697 1192 1697 1127.5 1643 c 128,-1,46
 1063 1589 1063 1589 989 1589 c 0,47,48
 913 1589 913 1589 873 1643 c 0,49,50
 843 1682 843 1682 843 1732 c 0,51,52
 843 1751 843 1751 847 1771 c 0,53,54
 863 1847 863 1847 927 1900 c 0,55,56
 991 1954 991 1954 1066 1954 c 0,38,39
EndSplineSet
Validated: 1
EndChar

StartChar: uni1E03
Encoding: 7683 7683 173
Width: 1210
Flags: W
HStem: 0 140<481.161 816.999> 960 140<673.656 973.38> 1179 365<893.097 1069.32> 1510 20G<708.768 765>
VStem: 195 281<140.486 374.516> 978 291<725.219 959.514>
DStem2: 139.745 0 439.803 0 0.207912 0.978148<231.459 1053.02 1180.96 1423.18> 780.385 0 1090.44 0 0.207912 0.978148<177.792 955.502>
LayerCount: 2
Fore
SplineSet
510 140 m 2,0,-1
 770 140 l 2,1,2
 810 140 810 140 817 175 c 2,3,-1
 977 925 l 2,4,5
 978 930 978 930 978 935 c 0,6,7
 978 960 978 960 944 960 c 2,8,-1
 684 960 l 2,9,10
 644 960 644 960 637 925 c 2,11,-1
 477 175 l 2,12,13
 476 170 476 170 476 165 c 0,14,15
 476 140 476 140 510 140 c 2,0,-1
510 0 m 2,16,17
 195 0 195 0 195 222 c 0,18,19
 195 261 195 261 205 307 c 2,20,-1
 436 1392 l 1,21,-1
 755 1530 l 1,22,-1
 765 1530 l 1,23,-1
 673 1094 l 1,24,25
 694 1100 694 1100 714 1100 c 2,26,-1
 954 1100 l 2,27,28
 1269 1100 1269 1100 1269 878 c 0,29,30
 1269 839 1269 839 1259 793 c 2,31,-1
 1155 307 l 2,32,33
 1089 0 1089 0 780 0 c 2,34,-1
 510 0 l 2,16,17
1020 1544 m 0,35,36
 1096 1544 1096 1544 1137 1491 c 0,37,38
 1166 1453 1166 1453 1166 1402 c 0,39,40
 1166 1383 1166 1383 1162 1362 c 0,41,42
 1146 1287 1146 1287 1081.5 1233 c 128,-1,43
 1017 1179 1017 1179 943 1179 c 0,44,45
 867 1179 867 1179 827 1233 c 0,46,47
 797 1272 797 1272 797 1322 c 0,48,49
 797 1341 797 1341 801 1361 c 0,50,51
 817 1437 817 1437 881 1490 c 0,52,53
 945 1544 945 1544 1020 1544 c 0,35,36
EndSplineSet
Validated: 1
EndChar

StartChar: uni1E0A
Encoding: 7690 7690 174
Width: 1390
Flags: W
HStem: 0 150<512 969.548> 1360 150<769 1206.7> 1589 365<974.097 1150.32>
VStem: 1216 306<1091.8 1357.9>
DStem2: 160 0 480.117 0 0.207912 0.978148<219.907 1413.9> 940.025 0 1270.23 0 0.207912 0.978148<226.599 1331.39>
LayerCount: 2
Fore
SplineSet
512 150 m 1,0,-1
 892 150 l 2,1,2
 972 150 972 150 987 221 c 2,3,-1
 1214 1289 l 2,4,5
 1216 1300 1216 1300 1216 1310 c 0,6,7
 1216 1360 1216 1360 1149 1360 c 2,8,-1
 769 1360 l 1,9,-1
 512 150 l 1,0,-1
160 0 m 1,10,-1
 454 1383 l 1,11,-1
 749 1510 l 1,12,-1
 1151 1510 l 2,13,14
 1522 1510 1522 1510 1522 1239 c 0,15,16
 1522 1189 1522 1189 1510 1130 c 2,17,-1
 1351 380 l 2,18,19
 1270 0 1270 0 890 0 c 2,20,-1
 160 0 l 1,10,-1
1101 1954 m 0,21,22
 1177 1954 1177 1954 1218 1901 c 0,23,24
 1247 1863 1247 1863 1247 1812 c 0,25,26
 1247 1793 1247 1793 1243 1772 c 0,27,28
 1227 1697 1227 1697 1162.5 1643 c 128,-1,29
 1098 1589 1098 1589 1024 1589 c 0,30,31
 948 1589 948 1589 908 1643 c 0,32,33
 878 1682 878 1682 878 1732 c 0,34,35
 878 1751 878 1751 882 1771 c 0,36,37
 898 1847 898 1847 962 1900 c 0,38,39
 1026 1954 1026 1954 1101 1954 c 0,21,22
EndSplineSet
Validated: 1
EndChar

StartChar: uni1E0B
Encoding: 7691 7691 175
Width: 1210
Flags: W
HStem: 0 140<470.62 806.942> 960 140<627.001 967.589> 1179 365<709.097 885.323>
VStem: 175 291<140.486 374.781>
DStem2: 119.745 0 429.803 0 0.207912 0.978148<233.538 1011.25> 770.385 0 1069.79 0 0.207912 0.978148<175.81 955.502 1114.45 1423.04>
LayerCount: 2
Fore
SplineSet
760 140 m 2,0,1
 800 140 800 140 807 175 c 2,2,-1
 967 925 l 2,3,4
 968 930 968 930 968 935 c 0,5,6
 968 960 968 960 934 960 c 2,7,-1
 674 960 l 2,8,9
 634 960 634 960 627 925 c 2,10,-1
 467 175 l 2,11,12
 466 170 466 170 466 165 c 0,13,14
 466 140 466 140 500 140 c 2,15,-1
 760 140 l 2,0,1
490 0 m 2,16,17
 175 0 175 0 175 222 c 0,18,19
 175 261 175 261 185 307 c 2,20,-1
 289 793 l 2,21,22
 355 1100 355 1100 664 1100 c 2,23,-1
 934 1100 l 2,24,25
 971 1100 971 1100 1003 1094 c 1,26,-1
 1066 1392 l 1,27,-1
 1385 1530 l 1,28,-1
 1395 1530 l 1,29,-1
 1135 307 l 2,30,31
 1070 0 1070 0 760 0 c 2,32,-1
 490 0 l 2,16,17
836 1544 m 0,33,34
 912 1544 912 1544 953 1491 c 0,35,36
 982 1453 982 1453 982 1402 c 0,37,38
 982 1383 982 1383 978 1362 c 0,39,40
 962 1287 962 1287 897.5 1233 c 128,-1,41
 833 1179 833 1179 759 1179 c 0,42,43
 683 1179 683 1179 643 1233 c 0,44,45
 613 1272 613 1272 613 1322 c 0,46,47
 613 1341 613 1341 617 1361 c 0,48,49
 633 1437 633 1437 697 1490 c 0,50,51
 761 1544 761 1544 836 1544 c 0,33,34
EndSplineSet
Validated: 1
EndChar

StartChar: uni1E1E
Encoding: 7710 7710 176
Width: 1130
Flags: W
HStem: -20 21G<196 252.395> 680 150<696 1158> 1360 150<809 1302> 1589 365<937.097 1113.32>
DStem2: 196 -20 515.754 -20 0.207912 0.978148<216.765 782.214 935.381 1435.28>
LayerCount: 2
Fore
SplineSet
206 -20 m 1,0,-1
 196 -20 l 1,1,-1
 494 1384 l 1,2,-1
 789 1510 l 1,3,-1
 1401 1510 l 1,4,-1
 1399 1500 l 1,5,-1
 1302 1360 l 1,6,-1
 809 1360 l 1,7,-1
 696 830 l 1,8,-1
 1256 830 l 1,9,-1
 1254 820 l 1,10,-1
 1158 680 l 1,11,-1
 665 680 l 1,12,-1
 547 127 l 1,13,-1
 206 -20 l 1,0,-1
1064 1954 m 0,14,15
 1140 1954 1140 1954 1181 1901 c 0,16,17
 1210 1863 1210 1863 1210 1812 c 0,18,19
 1210 1793 1210 1793 1206 1772 c 0,20,21
 1190 1697 1190 1697 1125.5 1643 c 128,-1,22
 1061 1589 1061 1589 987 1589 c 0,23,24
 911 1589 911 1589 871 1643 c 0,25,26
 841 1682 841 1682 841 1732 c 0,27,28
 841 1751 841 1751 845 1771 c 0,29,30
 861 1847 861 1847 925 1900 c 0,31,32
 989 1954 989 1954 1064 1954 c 0,14,15
EndSplineSet
Validated: 1
EndChar

StartChar: uni1E1F
Encoding: 7711 7711 177
Width: 860
Flags: W
HStem: -20 21G<136 192.232> 732 140<625 905> 1370 140<724.058 1079> 1589 365<754.097 930.323>
DStem2: 136 -20 435.667 -20 0.207912 0.978148<203.387 831.206 974.176 1450.62>
LayerCount: 2
Fore
SplineSet
146 -20 m 1,0,-1
 136 -20 l 1,1,-1
 396 1203 l 2,2,3
 461 1510 461 1510 771 1510 c 2,4,-1
 1171 1510 l 1,5,-1
 1169 1500 l 1,6,-1
 1079 1370 l 1,7,-1
 771 1370 l 2,8,9
 731 1370 731 1370 724 1335 c 2,10,-1
 625 872 l 1,11,-1
 996 872 l 1,12,-1
 994 862 l 1,13,-1
 905 732 l 1,14,-1
 596 732 l 1,15,-1
 465 118 l 1,16,-1
 146 -20 l 1,0,-1
881 1954 m 0,17,18
 957 1954 957 1954 998 1901 c 0,19,20
 1027 1863 1027 1863 1027 1812 c 0,21,22
 1027 1793 1027 1793 1023 1772 c 0,23,24
 1007 1697 1007 1697 942.5 1643 c 128,-1,25
 878 1589 878 1589 804 1589 c 0,26,27
 728 1589 728 1589 688 1643 c 0,28,29
 658 1682 658 1682 658 1732 c 0,30,31
 658 1751 658 1751 662 1771 c 0,32,33
 678 1847 678 1847 742 1900 c 0,34,35
 806 1954 806 1954 881 1954 c 0,17,18
EndSplineSet
Validated: 1
EndChar

StartChar: uni1E40
Encoding: 7744 7744 178
Width: 2220
Flags: W
HStem: -20 21G<136 192.395 946 1002.39 1756 1812.39> 1360 150<750.672 1223.62 1554.45 2027.48> 1589 365<1392.1 1568.32>
DStem2: 136 -20 455.754 -20 0.207912 0.978148<216.765 1406.14> 946 -20 1265.75 -20 0.207912 0.978148<216.765 1358.85> 1756 -20 2075.75 -20 0.207912 0.978148<216.765 1349.92>
LayerCount: 2
Fore
SplineSet
146 -20 m 1,0,-1
 136 -20 l 1,1,-1
 380 1130 l 2,2,3
 461 1510 461 1510 841 1510 c 2,4,-1
 1151 1510 l 2,5,6
 1305 1510 1305 1510 1389 1456 c 1,7,8
 1496 1510 1496 1510 1651 1510 c 2,9,-1
 1961 1510 l 2,10,11
 2333 1510 2333 1510 2333 1239 c 0,12,13
 2333 1189 2333 1189 2320 1130 c 2,14,-1
 2107 127 l 1,15,-1
 1766 -20 l 1,16,-1
 1756 -20 l 1,17,-1
 2034 1289 l 2,18,19
 2036 1300 2036 1300 2036 1310 c 0,20,21
 2036 1360 2036 1360 1969 1360 c 2,22,-1
 1639 1360 l 2,23,24
 1559 1360 1559 1360 1544 1289 c 2,25,-1
 1297 127 l 1,26,-1
 956 -20 l 1,27,-1
 946 -20 l 1,28,-1
 1224 1289 l 2,29,30
 1226 1300 1226 1300 1226 1310 c 0,31,32
 1226 1360 1226 1360 1159 1360 c 2,33,-1
 829 1360 l 2,34,35
 749 1360 749 1360 734 1289 c 2,36,-1
 487 127 l 1,37,-1
 146 -20 l 1,0,-1
1519 1954 m 0,38,39
 1595 1954 1595 1954 1636 1901 c 0,40,41
 1665 1863 1665 1863 1665 1812 c 0,42,43
 1665 1793 1665 1793 1661 1772 c 0,44,45
 1645 1697 1645 1697 1580.5 1643 c 128,-1,46
 1516 1589 1516 1589 1442 1589 c 0,47,48
 1366 1589 1366 1589 1326 1643 c 0,49,50
 1296 1682 1296 1682 1296 1732 c 0,51,52
 1296 1751 1296 1751 1300 1771 c 0,53,54
 1316 1847 1316 1847 1380 1900 c 0,55,56
 1444 1954 1444 1954 1519 1954 c 0,38,39
EndSplineSet
Validated: 1
EndChar

StartChar: uni1E41
Encoding: 7745 7745 179
Width: 1880
Flags: W
HStem: -20 21G<136 192.232 786 842.232 1436 1492.23> 960 140<637.058 985.153 1287 1632.84> 1179 365<1133.1 1309.32>
DStem2: 136 -20 435.667 -20 0.207912 0.978148<203.387 1031.49> 786 -20 1085.67 -20 0.207912 0.978148<203.387 975.976> 1436 -20 1735.67 -20 0.207912 0.978148<203.387 975.976>
LayerCount: 2
Fore
SplineSet
146 -20 m 1,0,-1
 136 -20 l 1,1,-1
 309 793 l 2,2,3
 374 1100 374 1100 684 1100 c 2,4,-1
 954 1100 l 2,5,6
 1068 1100 1068 1100 1136 1065 c 1,7,8
 1219 1100 1219 1100 1334 1100 c 2,9,-1
 1604 1100 l 2,10,11
 1919 1100 1919 1100 1919 878 c 0,12,13
 1919 839 1919 839 1909 793 c 2,14,-1
 1765 118 l 1,15,-1
 1446 -20 l 1,16,-1
 1436 -20 l 1,17,-1
 1637 925 l 2,18,19
 1638 930 1638 930 1638 935 c 0,20,21
 1638 960 1638 960 1604 960 c 2,22,-1
 1334 960 l 2,23,24
 1294 960 1294 960 1287 925 c 2,25,-1
 1115 118 l 1,26,-1
 796 -20 l 1,27,-1
 786 -20 l 1,28,-1
 987 925 l 2,29,30
 988 930 988 930 988 935 c 0,31,32
 988 960 988 960 954 960 c 2,33,-1
 684 960 l 2,34,35
 644 960 644 960 637 925 c 2,36,-1
 465 118 l 1,37,-1
 146 -20 l 1,0,-1
1260 1544 m 0,38,39
 1336 1544 1336 1544 1377 1491 c 0,40,41
 1406 1453 1406 1453 1406 1402 c 0,42,43
 1406 1383 1406 1383 1402 1362 c 0,44,45
 1386 1287 1386 1287 1321.5 1233 c 128,-1,46
 1257 1179 1257 1179 1183 1179 c 0,47,48
 1107 1179 1107 1179 1067 1233 c 0,49,50
 1037 1272 1037 1272 1037 1322 c 0,51,52
 1037 1341 1037 1341 1041 1361 c 0,53,54
 1057 1437 1057 1437 1121 1490 c 0,55,56
 1185 1544 1185 1544 1260 1544 c 0,38,39
EndSplineSet
Validated: 1
EndChar

StartChar: uni1E56
Encoding: 7766 7766 180
Width: 1250
Flags: W
HStem: -20 21G<156 212.395> 440 150<605 1003.56> 1360 150<769 1146.55> 1589 365<930.097 1106.32>
VStem: 1156 305<1091.3 1356.5>
DStem2: 156 -20 475.754 -20 0.207912 0.978148<216.765 536.855 690.022 1434.3> 875.249 -20 1205.75 -20 0.207912 0.978148<700.543 1346.82>
LayerCount: 2
Fore
SplineSet
605 590 m 1,0,-1
 925 590 l 2,1,2
 1004 590 1004 590 1020 661 c 2,3,-1
 1154 1289 l 2,4,5
 1156 1300 1156 1300 1156 1310 c 0,6,7
 1156 1360 1156 1360 1089 1360 c 2,8,-1
 769 1360 l 1,9,-1
 605 590 l 1,0,-1
166 -20 m 1,10,-1
 156 -20 l 1,11,-1
 454 1383 l 1,12,-1
 749 1510 l 1,13,-1
 1091 1510 l 2,14,15
 1461 1510 1461 1510 1461 1234 c 0,16,17
 1461 1183 1461 1183 1448 1122 c 2,18,-1
 1386 828 l 2,19,20
 1304 440 1304 440 924 440 c 2,21,-1
 574 440 l 1,22,-1
 507 127 l 1,23,-1
 166 -20 l 1,10,-1
1057 1954 m 0,24,25
 1133 1954 1133 1954 1174 1901 c 0,26,27
 1203 1863 1203 1863 1203 1812 c 0,28,29
 1203 1793 1203 1793 1199 1772 c 0,30,31
 1183 1697 1183 1697 1118.5 1643 c 128,-1,32
 1054 1589 1054 1589 980 1589 c 0,33,34
 904 1589 904 1589 864 1643 c 0,35,36
 834 1682 834 1682 834 1732 c 0,37,38
 834 1751 834 1751 838 1771 c 0,39,40
 854 1847 854 1847 918 1900 c 0,41,42
 982 1954 982 1954 1057 1954 c 0,24,25
EndSplineSet
Validated: 1
EndChar

StartChar: uni1E57
Encoding: 7767 7767 181
Width: 1210
Flags: W
HStem: -430 21G<49 105.232> 0 140<476.859 816.999> 960 140<637.058 973.38> 1179 365<814.097 990.323>
VStem: 978 291<725.219 959.514>
DStem2: 49 -430 348.667 -430 0.207912 0.978148<203.387 511.797 670.929 1450.62> 688.986 -430 999.043 -430 0.207912 0.978148<617.398 1395.11>
LayerCount: 2
Fore
SplineSet
510 140 m 2,0,-1
 770 140 l 2,1,2
 810 140 810 140 817 175 c 2,3,-1
 977 925 l 2,4,5
 978 930 978 930 978 935 c 0,6,7
 978 960 978 960 944 960 c 2,8,-1
 684 960 l 2,9,10
 644 960 644 960 637 925 c 2,11,-1
 477 175 l 2,12,13
 476 170 476 170 476 165 c 0,14,15
 476 140 476 140 510 140 c 2,0,-1
780 0 m 2,16,-1
 510 0 l 2,17,18
 460 0 460 0 441 6 c 1,19,-1
 378 -292 l 1,20,-1
 59 -430 l 1,21,-1
 49 -430 l 1,22,-1
 309 793 l 2,23,24
 374 1100 374 1100 684 1100 c 2,25,-1
 954 1100 l 2,26,27
 1269 1100 1269 1100 1269 878 c 0,28,29
 1269 839 1269 839 1259 793 c 2,30,-1
 1155 307 l 2,31,32
 1089 0 1089 0 780 0 c 2,16,-1
941 1544 m 0,33,34
 1017 1544 1017 1544 1058 1491 c 0,35,36
 1087 1453 1087 1453 1087 1402 c 0,37,38
 1087 1383 1087 1383 1083 1362 c 0,39,40
 1067 1287 1067 1287 1002.5 1233 c 128,-1,41
 938 1179 938 1179 864 1179 c 0,42,43
 788 1179 788 1179 748 1233 c 0,44,45
 718 1272 718 1272 718 1322 c 0,46,47
 718 1341 718 1341 722 1361 c 0,48,49
 738 1437 738 1437 802 1490 c 0,50,51
 866 1544 866 1544 941 1544 c 0,33,34
EndSplineSet
Validated: 1
EndChar

StartChar: uni1E6A
Encoding: 7786 7786 182
Width: 1190
Flags: W
HStem: -20 21G<431 487.712> 1360 150<398 724 1044 1402> 1589 365<877.097 1053.32>
DStem2: 431 -20 750.967 -20 0.207912 0.978148<215.787 1410.76>
LayerCount: 2
Fore
SplineSet
441 -20 m 1,0,-1
 431 -20 l 1,1,-1
 724 1360 l 1,2,-1
 299 1360 l 1,3,-1
 301 1370 l 1,4,-1
 398 1510 l 1,5,-1
 1501 1510 l 1,6,-1
 1499 1500 l 1,7,-1
 1402 1360 l 1,8,-1
 1044 1360 l 1,9,-1
 782 126 l 1,10,-1
 441 -20 l 1,0,-1
1004 1954 m 0,11,12
 1080 1954 1080 1954 1121 1901 c 0,13,14
 1150 1863 1150 1863 1150 1812 c 0,15,16
 1150 1793 1150 1793 1146 1772 c 0,17,18
 1130 1697 1130 1697 1065.5 1643 c 128,-1,19
 1001 1589 1001 1589 927 1589 c 0,20,21
 851 1589 851 1589 811 1643 c 0,22,23
 781 1682 781 1682 781 1732 c 0,24,25
 781 1751 781 1751 785 1771 c 0,26,27
 801 1847 801 1847 865 1900 c 0,28,29
 929 1954 929 1954 1004 1954 c 0,11,12
EndSplineSet
Validated: 1
EndChar

StartChar: uni1E6B
Encoding: 7787 7787 183
Width: 890
Flags: W
HStem: -20 21G<296 352.26> 960 140<306 504 819 1022> 1510 20G<853.74 910> 1589 365<733.097 909.323>
DStem2: 296 -20 581.155 -20 0.207912 0.978148<193.214 1001.83 1204.26 1450.57>
LayerCount: 2
Fore
SplineSet
306 -20 m 1,0,-1
 296 -20 l 1,1,-1
 504 960 l 1,2,-1
 214 960 l 1,3,-1
 216 970 l 1,4,-1
 306 1100 l 1,5,-1
 534 1100 l 1,6,-1
 597 1399 l 1,7,-1
 900 1530 l 1,8,-1
 910 1530 l 1,9,-1
 819 1100 l 1,10,-1
 1114 1100 l 1,11,-1
 1112 1090 l 1,12,-1
 1022 960 l 1,13,-1
 789 960 l 1,14,-1
 609 111 l 1,15,-1
 306 -20 l 1,0,-1
860 1954 m 0,16,17
 936 1954 936 1954 977 1901 c 0,18,19
 1006 1863 1006 1863 1006 1812 c 0,20,21
 1006 1793 1006 1793 1002 1772 c 0,22,23
 986 1697 986 1697 921.5 1643 c 128,-1,24
 857 1589 857 1589 783 1589 c 0,25,26
 707 1589 707 1589 667 1643 c 0,27,28
 637 1682 637 1682 637 1732 c 0,29,30
 637 1751 637 1751 641 1771 c 0,31,32
 657 1847 657 1847 721 1900 c 0,33,34
 785 1954 785 1954 860 1954 c 0,16,17
EndSplineSet
Validated: 1
EndChar

StartChar: uni1E60
Encoding: 7776 7776 184
Width: 1150
Flags: W
HStem: 0 150<405.797 799.158> 758 151<643.697 908.854> 1370 140<724.227 967.688> 1589 365<857.097 1033.32>
VStem: 99 300<153.486 387.97> 914 311<490.641 753.211> 972 296<1242.43 1366.39>
DStem2: 764.875 0 1099.59 0 0.207912 0.978148<228.746 718.131>
LayerCount: 2
Fore
SplineSet
720 0 m 2,0,1
 460 0 l 2,2,3
 99 0 99 0 99 276 c 0,4,5
 99 325 99 325 111 383 c 1,6,-1
 458 533 l 1,7,-1
 468 533 l 1,8,-1
 401 217 l 2,9,10
 399 208 399 208 399 199 c 0,11,12
 399 150 399 150 467 150 c 2,13,-1
 717 150 l 2,14,15
 797 150 797 150 811 217 c 2,16,-1
 912 691 l 2,17,18
 914 700 914 700 914 709 c 0,19,20
 914 758 914 758 846 758 c 2,21,-1
 664 758 l 2,22,23
 334 758 334 758 334 997 c 0,24,25
 334 1044 334 1044 346 1098 c 2,26,-1
 362 1170 l 2,27,28
 438 1510 438 1510 764 1510 c 2,29,-1
 948 1510 l 2,30,31
 1268 1510 1268 1510 1268 1265 c 0,32,33
 1268 1223 1268 1223 1258 1175 c 1,34,-1
 921 1029 l 1,35,-1
 911 1029 l 1,36,-1
 970 1308 l 2,37,38
 972 1317 972 1317 972 1324 c 0,39,40
 972 1370 972 1370 903 1370 c 2,41,-1
 809 1370 l 2,42,43
 729 1370 729 1370 715 1304 c 2,44,-1
 645 975 l 2,45,46
 643 966 643 966 643 957 c 0,47,48
 643 909 643 909 711 909 c 2,49,-1
 853 909 l 2,50,51
 1225 909 1225 909 1225 638 c 0,52,53
 1225 586 1225 586 1212 526 c 2,54,-1
 1181 383 l 2,55,56
 1098 0 1098 0 720 0 c 2,0,1
984 1954 m 0,57,58
 1060 1954 1060 1954 1101 1901 c 0,59,60
 1130 1863 1130 1863 1130 1812 c 0,61,62
 1130 1793 1130 1793 1126 1772 c 0,63,64
 1110 1697 1110 1697 1045.5 1643 c 128,-1,65
 981 1589 981 1589 907 1589 c 0,66,67
 831 1589 831 1589 791 1643 c 0,68,69
 761 1682 761 1682 761 1732 c 0,70,71
 761 1751 761 1751 765 1771 c 0,72,73
 781 1847 781 1847 845 1900 c 0,74,75
 909 1954 909 1954 984 1954 c 0,57,58
EndSplineSet
Validated: 1
EndChar

StartChar: uni1E61
Encoding: 7777 7777 185
Width: 941
Flags: W
HStem: 0 140<362.051 628.68> 499 140<506.318 692.663> 960 140<562.196 759.279> 1179 365<663.097 839.323>
VStem: 696 291<263.902 496.385> 760 258<851.258 957.385>
LayerCount: 2
Fore
SplineSet
381 0 m 2,0,1
 73 0 73 0 73 216 c 0,2,3
 73 251 73 251 82 291 c 1,4,-1
 407 430 l 1,5,-1
 417 430 l 1,6,-1
 362 171 l 2,7,8
 361 166 361 166 361 163 c 0,9,10
 361 140 361 140 396 140 c 2,11,-1
 586 140 l 2,12,13
 625 140 625 140 632 171 c 2,14,-1
 695 467 l 2,15,16
 696 472 696 472 696 476 c 0,17,18
 696 499 696 499 662 499 c 2,19,-1
 515 499 l 2,20,21
 235 499 235 499 235 700 c 0,22,23
 235 739 235 739 246 787 c 2,24,-1
 254 822 l 2,25,26
 318 1100 318 1100 583 1100 c 2,27,-1
 751 1100 l 2,28,29
 1018 1100 1018 1100 1018 896 c 0,30,31
 1018 878 1018 878 1016 859 c 1,32,-1
 726 733 l 1,33,-1
 716 733 l 1,34,-1
 759 934 l 2,35,36
 760 939 760 939 760 940 c 0,37,38
 760 960 760 960 724 960 c 2,39,-1
 608 960 l 2,40,41
 568 960 568 960 562 931 c 2,42,-1
 506 669 l 2,43,44
 505 664 505 664 505 662 c 0,45,46
 505 639 505 639 540 639 c 2,47,-1
 663 639 l 2,48,49
 987 639 987 639 987 435 c 0,50,51
 987 404 987 404 979 367 c 2,52,-1
 967 311 l 2,53,54
 900 0 900 0 591 0 c 2,55,-1
 381 0 l 2,0,1
790 1544 m 0,56,57
 866 1544 866 1544 907 1491 c 0,58,59
 936 1453 936 1453 936 1402 c 0,60,61
 936 1383 936 1383 932 1362 c 0,62,63
 916 1287 916 1287 851.5 1233 c 128,-1,64
 787 1179 787 1179 713 1179 c 0,65,66
 637 1179 637 1179 597 1233 c 0,67,68
 567 1272 567 1272 567 1322 c 0,69,70
 567 1341 567 1341 571 1361 c 0,71,72
 587 1437 587 1437 651 1490 c 0,73,74
 715 1544 715 1544 790 1544 c 0,56,57
EndSplineSet
Validated: 1
EndChar

StartChar: Wgrave
Encoding: 7808 7808 186
Width: 2220
Flags: W
HStem: 0 150<513.52 986.002 1317.31 1790.33> 1510 20G<728.605 785 1538.61 1595 2348.61 2405>
DStem2: 140.229 0 460.025 0 0.207912 0.978148<280.7 1413.86> 950.025 0 1270.02 0 0.207912 0.978148<271.818 1413.9> 1511 1980 1303 1895 0.255077 -0.966921<29.1322 337.153> 1760.02 0 2080.23 0 0.207912 0.978148<224.52 1413.9>
LayerCount: 2
Fore
SplineSet
580 0 m 2,0,1
 208 0 208 0 208 271 c 0,2,3
 208 321 208 321 221 380 c 2,4,-1
 434 1383 l 1,5,-1
 775 1530 l 1,6,-1
 785 1530 l 1,7,-1
 507 221 l 2,8,9
 505 210 505 210 505 200 c 0,10,11
 505 150 505 150 572 150 c 2,12,-1
 902 150 l 2,13,14
 982 150 982 150 997 221 c 2,15,-1
 1244 1383 l 1,16,-1
 1585 1530 l 1,17,-1
 1595 1530 l 1,18,-1
 1317 221 l 2,19,20
 1315 210 1315 210 1315 200 c 0,21,22
 1315 150 1315 150 1382 150 c 2,23,-1
 1712 150 l 2,24,25
 1792 150 1792 150 1807 221 c 2,26,-1
 2054 1383 l 1,27,-1
 2395 1530 l 1,28,-1
 2405 1530 l 1,29,-1
 2161 380 l 2,30,31
 2080 0 2080 0 1700 0 c 2,32,-1
 1390 0 l 2,33,34
 1236 0 1236 0 1151 54 c 1,35,36
 1044 0 1044 0 890 0 c 2,37,-1
 580 0 l 2,0,1
1501 1980 m 1,38,-1
 1511 1980 l 1,39,-1
 1597 1654 l 1,40,-1
 1401 1570 l 1,41,-1
 1391 1570 l 1,42,-1
 1303 1895 l 1,43,-1
 1501 1980 l 1,38,-1
EndSplineSet
Validated: 1
EndChar

StartChar: wgrave
Encoding: 7809 7809 187
Width: 1880
Flags: W
HStem: 0 140<481.161 826.999 1128.83 1476.94> 1100 20G<621.768 678 1271.77 1328 1921.77 1978>
DStem2: 139.745 0 439.803 0 0.207912 0.978148<231.459 1004.05> 789.803 0 1089.8 0 0.207912 0.978148<231.447 1004.04> 1243 1570 1035 1485 0.252301 -0.967649<29.7715 336.899> 1440.27 0 1739.94 0 0.207912 0.978148<175.834 1003.94>
LayerCount: 2
Fore
SplineSet
510 0 m 2,0,1
 195 0 195 0 195 222 c 0,2,3
 195 261 195 261 205 307 c 2,4,-1
 349 982 l 1,5,-1
 668 1120 l 1,6,-1
 678 1120 l 1,7,-1
 477 175 l 2,8,9
 476 170 476 170 476 165 c 0,10,11
 476 140 476 140 510 140 c 2,12,-1
 780 140 l 2,13,14
 820 140 820 140 827 175 c 2,15,-1
 999 982 l 1,16,-1
 1318 1120 l 1,17,-1
 1328 1120 l 1,18,-1
 1127 175 l 2,19,20
 1126 170 1126 170 1126 165 c 0,21,22
 1126 140 1126 140 1160 140 c 2,23,-1
 1430 140 l 2,24,25
 1470 140 1470 140 1477 175 c 2,26,-1
 1649 982 l 1,27,-1
 1968 1120 l 1,28,-1
 1978 1120 l 1,29,-1
 1805 307 l 2,30,31
 1740 0 1740 0 1430 0 c 2,32,-1
 1160 0 l 2,33,34
 1046 0 1046 0 977 35 c 1,35,36
 894 0 894 0 780 0 c 2,37,-1
 510 0 l 2,0,1
1233 1570 m 1,38,-1
 1243 1570 l 1,39,-1
 1328 1244 l 1,40,-1
 1133 1160 l 1,41,-1
 1123 1160 l 1,42,-1
 1035 1485 l 1,43,-1
 1233 1570 l 1,38,-1
EndSplineSet
Validated: 1
EndChar

StartChar: Wacute
Encoding: 7810 7810 188
Width: 2220
Flags: W
HStem: 0 150<513.52 986.002 1317.31 1790.33> 1510 20G<728.605 785 1538.61 1595 2348.61 2405>
DStem2: 140.229 0 460.025 0 0.207912 0.978148<280.7 1413.86> 950.025 0 1270.02 0 0.207912 0.978148<271.818 1413.9> 1298 1654 1468 1570 0.570916 0.821008<28.0911 395.534> 1760.02 0 2080.23 0 0.207912 0.978148<224.52 1413.9>
LayerCount: 2
Fore
SplineSet
580 0 m 2,0,1
 208 0 208 0 208 271 c 0,2,3
 208 321 208 321 221 380 c 2,4,-1
 434 1383 l 1,5,-1
 775 1530 l 1,6,-1
 785 1530 l 1,7,-1
 507 221 l 2,8,9
 505 210 505 210 505 200 c 0,10,11
 505 150 505 150 572 150 c 2,12,-1
 902 150 l 2,13,14
 982 150 982 150 997 221 c 2,15,-1
 1244 1383 l 1,16,-1
 1585 1530 l 1,17,-1
 1595 1530 l 1,18,-1
 1317 221 l 2,19,20
 1315 210 1315 210 1315 200 c 0,21,22
 1315 150 1315 150 1382 150 c 2,23,-1
 1712 150 l 2,24,25
 1792 150 1792 150 1807 221 c 2,26,-1
 2054 1383 l 1,27,-1
 2395 1530 l 1,28,-1
 2405 1530 l 1,29,-1
 2161 380 l 2,30,31
 2080 0 2080 0 1700 0 c 2,32,-1
 1390 0 l 2,33,34
 1236 0 1236 0 1151 54 c 1,35,36
 1044 0 1044 0 890 0 c 2,37,-1
 580 0 l 2,0,1
1532 1980 m 1,38,-1
 1694 1895 l 1,39,-1
 1468 1570 l 1,40,-1
 1458 1570 l 1,41,-1
 1298 1654 l 1,42,-1
 1522 1980 l 1,43,-1
 1532 1980 l 1,38,-1
EndSplineSet
Validated: 1
EndChar

StartChar: wacute
Encoding: 7811 7811 189
Width: 1880
Flags: W
HStem: 0 140<481.161 826.999 1128.83 1476.94> 1100 20G<621.768 678 1271.77 1328 1921.77 1978>
DStem2: 139.745 0 439.803 0 0.207912 0.978148<231.459 1004.05> 789.803 0 1089.8 0 0.207912 0.978148<231.447 1004.04> 1030 1244 1201 1160 0.568028 0.823009<28 396.107> 1440.27 0 1739.94 0 0.207912 0.978148<175.834 1003.94>
LayerCount: 2
Fore
SplineSet
510 0 m 2,0,1
 195 0 195 0 195 222 c 0,2,3
 195 261 195 261 205 307 c 2,4,-1
 349 982 l 1,5,-1
 668 1120 l 1,6,-1
 678 1120 l 1,7,-1
 477 175 l 2,8,9
 476 170 476 170 476 165 c 0,10,11
 476 140 476 140 510 140 c 2,12,-1
 780 140 l 2,13,14
 820 140 820 140 827 175 c 2,15,-1
 999 982 l 1,16,-1
 1318 1120 l 1,17,-1
 1328 1120 l 1,18,-1
 1127 175 l 2,19,20
 1126 170 1126 170 1126 165 c 0,21,22
 1126 140 1126 140 1160 140 c 2,23,-1
 1430 140 l 2,24,25
 1470 140 1470 140 1477 175 c 2,26,-1
 1649 982 l 1,27,-1
 1968 1120 l 1,28,-1
 1978 1120 l 1,29,-1
 1805 307 l 2,30,31
 1740 0 1740 0 1430 0 c 2,32,-1
 1160 0 l 2,33,34
 1046 0 1046 0 977 35 c 1,35,36
 894 0 894 0 780 0 c 2,37,-1
 510 0 l 2,0,1
1265 1570 m 1,38,-1
 1427 1485 l 1,39,-1
 1201 1160 l 1,40,-1
 1191 1160 l 1,41,-1
 1030 1244 l 1,42,-1
 1255 1570 l 1,43,-1
 1265 1570 l 1,38,-1
EndSplineSet
Validated: 1
EndChar

StartChar: Wdieresis
Encoding: 7812 7812 190
Width: 2220
Flags: W
HStem: 0 150<513.52 986.002 1317.31 1790.33> 1510 20G<728.605 785 1538.61 1595 2348.61 2405> 1620 297<1218.47 1380.49 1557.98 1718.99>
VStem: 1150 300<1688.5 1848.97> 1488 300<1688.5 1847.11>
DStem2: 140.229 0 460.025 0 0.207912 0.978148<280.7 1413.86> 950.025 0 1270.02 0 0.207912 0.978148<271.818 1413.9> 1760.02 0 2080.23 0 0.207912 0.978148<224.52 1413.9>
LayerCount: 2
Fore
SplineSet
580 0 m 2,0,1
 208 0 208 0 208 271 c 0,2,3
 208 321 208 321 221 380 c 2,4,-1
 434 1383 l 1,5,-1
 775 1530 l 1,6,-1
 785 1530 l 1,7,-1
 507 221 l 2,8,9
 505 210 505 210 505 200 c 0,10,11
 505 150 505 150 572 150 c 2,12,-1
 902 150 l 2,13,14
 982 150 982 150 997 221 c 2,15,-1
 1244 1383 l 1,16,-1
 1585 1530 l 1,17,-1
 1595 1530 l 1,18,-1
 1317 221 l 2,19,20
 1315 210 1315 210 1315 200 c 0,21,22
 1315 150 1315 150 1382 150 c 2,23,-1
 1712 150 l 2,24,25
 1792 150 1792 150 1807 221 c 2,26,-1
 2054 1383 l 1,27,-1
 2395 1530 l 1,28,-1
 2405 1530 l 1,29,-1
 2161 380 l 2,30,31
 2080 0 2080 0 1700 0 c 2,32,-1
 1390 0 l 2,33,34
 1236 0 1236 0 1151 54 c 1,35,36
 1044 0 1044 0 890 0 c 2,37,-1
 580 0 l 2,0,1
1669 1917 m 128,-1,39
 1729 1917 1729 1917 1763 1873 c 0,40,41
 1787 1842 1787 1842 1788 1801 c 0,42,43
 1788 1784 1788 1784 1784 1768 c 0,44,45
 1771 1708 1771 1708 1719 1664 c 128,-1,46
 1667 1620 1667 1620 1606 1620 c 128,-1,47
 1545 1620 1545 1620 1512 1664 c 0,48,49
 1488 1696 1488 1696 1488 1735 c 0,50,51
 1488 1751 1488 1751 1492 1768 c 0,52,53
 1504 1827 1504 1827 1557 1872 c 0,54,38
 1609 1917 1609 1917 1669 1917 c 128,-1,39
1330.5 1917 m 128,-1,56
 1391 1917 1391 1917 1425 1873 c 0,57,58
 1450 1841 1450 1841 1450 1801 c 0,59,60
 1450 1786 1450 1786 1446 1768 c 0,61,62
 1433 1708 1433 1708 1380.5 1664 c 128,-1,63
 1328 1620 1328 1620 1268 1620 c 0,64,65
 1207 1620 1207 1620 1174 1664 c 0,66,67
 1150 1696 1150 1696 1150 1735 c 0,68,69
 1150 1751 1150 1751 1154 1768 c 0,70,71
 1167 1829 1167 1829 1218 1872 c 0,72,55
 1270 1917 1270 1917 1330.5 1917 c 128,-1,56
EndSplineSet
Validated: 1
EndChar

StartChar: wdieresis
Encoding: 7813 7813 191
Width: 1880
Flags: W
HStem: 0 140<481.161 826.999 1128.83 1476.94> 1100 20G<621.768 678 1271.77 1328 1921.77 1978> 1210 297<967.468 1129.49 1306.98 1467.99>
VStem: 899 300<1278.5 1438.97> 1237 300<1278.5 1437.11>
DStem2: 139.745 0 439.803 0 0.207912 0.978148<231.459 1004.05> 789.803 0 1089.8 0 0.207912 0.978148<231.447 1004.04> 1440.27 0 1739.94 0 0.207912 0.978148<175.834 1003.94>
LayerCount: 2
Fore
SplineSet
510 0 m 2,0,1
 195 0 195 0 195 222 c 0,2,3
 195 261 195 261 205 307 c 2,4,-1
 349 982 l 1,5,-1
 668 1120 l 1,6,-1
 678 1120 l 1,7,-1
 477 175 l 2,8,9
 476 170 476 170 476 165 c 0,10,11
 476 140 476 140 510 140 c 2,12,-1
 780 140 l 2,13,14
 820 140 820 140 827 175 c 2,15,-1
 999 982 l 1,16,-1
 1318 1120 l 1,17,-1
 1328 1120 l 1,18,-1
 1127 175 l 2,19,20
 1126 170 1126 170 1126 165 c 0,21,22
 1126 140 1126 140 1160 140 c 2,23,-1
 1430 140 l 2,24,25
 1470 140 1470 140 1477 175 c 2,26,-1
 1649 982 l 1,27,-1
 1968 1120 l 1,28,-1
 1978 1120 l 1,29,-1
 1805 307 l 2,30,31
 1740 0 1740 0 1430 0 c 2,32,-1
 1160 0 l 2,33,34
 1046 0 1046 0 977 35 c 1,35,36
 894 0 894 0 780 0 c 2,37,-1
 510 0 l 2,0,1
1418 1507 m 128,-1,39
 1478 1507 1478 1507 1512 1463 c 0,40,41
 1536 1432 1536 1432 1537 1391 c 0,42,43
 1537 1374 1537 1374 1533 1358 c 0,44,45
 1520 1298 1520 1298 1468 1254 c 128,-1,46
 1416 1210 1416 1210 1355 1210 c 128,-1,47
 1294 1210 1294 1210 1261 1254 c 0,48,49
 1237 1286 1237 1286 1237 1325 c 0,50,51
 1237 1341 1237 1341 1241 1358 c 0,52,53
 1253 1417 1253 1417 1306 1462 c 0,54,38
 1358 1507 1358 1507 1418 1507 c 128,-1,39
1079.5 1507 m 128,-1,56
 1140 1507 1140 1507 1174 1463 c 0,57,58
 1199 1431 1199 1431 1199 1391 c 0,59,60
 1199 1376 1199 1376 1195 1358 c 0,61,62
 1182 1298 1182 1298 1129.5 1254 c 128,-1,63
 1077 1210 1077 1210 1017 1210 c 0,64,65
 956 1210 956 1210 923 1254 c 0,66,67
 899 1286 899 1286 899 1325 c 0,68,69
 899 1341 899 1341 903 1358 c 0,70,71
 916 1419 916 1419 967 1462 c 0,72,55
 1019 1507 1019 1507 1079.5 1507 c 128,-1,56
EndSplineSet
Validated: 1
EndChar

StartChar: Ygrave
Encoding: 7922 7922 192
Width: 1250
Flags: W
HStem: -20 21G<461 517.395> 417 150<534.436 554 874 976.008> 1510 20G<668.605 725 1438.61 1495>
DStem2: 75.3413 -20 396.138 -20 0.207912 0.978148<721.655 1434.44> 846.138 -20 1165.34 -20 0.207912 0.978148<670.976 1434.27> 1099 1980 891 1895 0.255077 -0.966921<29.1322 337.153>
LayerCount: 2
Fore
SplineSet
471 -20 m 1,0,-1
 461 -20 l 1,1,-1
 554 417 l 1,2,3
 236 426 236 426 236 682 c 0,4,5
 236 734 236 734 249 797 c 2,6,-1
 374 1383 l 1,7,-1
 715 1530 l 1,8,-1
 725 1530 l 1,9,-1
 536 638 l 2,10,11
 534 627 534 627 534 617 c 0,12,13
 534 567 534 567 601 567 c 2,14,-1
 891 567 l 2,15,16
 971 567 971 567 986 638 c 2,17,-1
 1144 1383 l 1,18,-1
 1485 1530 l 1,19,-1
 1495 1530 l 1,20,-1
 1339 797 l 2,21,22
 1258 417 1258 417 874 417 c 1,23,-1
 812 127 l 1,24,-1
 471 -20 l 1,0,-1
1089 1980 m 1,25,-1
 1099 1980 l 1,26,-1
 1185 1654 l 1,27,-1
 989 1570 l 1,28,-1
 979 1570 l 1,29,-1
 891 1895 l 1,30,-1
 1089 1980 l 1,25,-1
EndSplineSet
Validated: 1
EndChar

StartChar: ygrave
Encoding: 7923 7923 193
Width: 1250
Flags: W
HStem: -410 140<285 739.942> 0 140<481.161 790.344> 1100 20G<621.768 678 1271.77 1328>
DStem2: 52.5969 -410 352.654 -410 0.207912 0.978148<650.618 1423.21> 702.576 -410 1002.75 -410 0.207912 0.978148<175.978 425.294 553.201 1423.21> 983 1570 775 1485 0.252301 -0.967649<29.7715 336.899>
LayerCount: 2
Fore
SplineSet
510 0 m 2,0,1
 195 0 195 0 195 222 c 0,2,3
 195 261 195 261 205 307 c 2,4,-1
 349 982 l 1,5,-1
 668 1120 l 1,6,-1
 678 1120 l 1,7,-1
 477 175 l 2,8,9
 476 170 476 170 476 165 c 0,10,11
 476 140 476 140 510 140 c 2,12,-1
 780 140 l 2,13,14
 820 140 820 140 827 175 c 2,15,-1
 999 982 l 1,16,-1
 1318 1120 l 1,17,-1
 1328 1120 l 1,18,-1
 1068 -103 l 2,19,20
 1003 -410 1003 -410 693 -410 c 2,21,-1
 193 -410 l 1,22,-1
 195 -400 l 1,23,-1
 285 -270 l 1,24,-1
 693 -270 l 2,25,26
 733 -270 733 -270 740 -235 c 2,27,-1
 791 6 l 1,28,29
 770 0 770 0 750 0 c 2,30,-1
 510 0 l 2,0,1
973 1570 m 1,31,-1
 983 1570 l 1,32,-1
 1068 1244 l 1,33,-1
 873 1160 l 1,34,-1
 863 1160 l 1,35,-1
 775 1485 l 1,36,-1
 973 1570 l 1,31,-1
EndSplineSet
Validated: 1
EndChar

StartChar: AE
Encoding: 198 198 194
Width: 1728
Flags: W
HStem: -20 21G<136 192.395> 0 150<1140 1651> 680 150<636 933 1284 1746> 1360 150<750.672 1077 1397 1890>
DStem2: 136 -20 455.754 -20 0.207912 0.978148<216.765 782.214 935.381 1406.14> 783.749 -20 1103.87 -20 0.207912 0.978148<240.354 715.734 935.434 1410.81>
LayerCount: 2
Fore
SplineSet
1651 0 m 1,0,-1
 788 0 l 1,1,-1
 933 680 l 1,2,-1
 605 680 l 1,3,-1
 487 127 l 1,4,-1
 146 -20 l 1,5,-1
 136 -20 l 1,6,-1
 380 1130 l 2,7,8
 461 1510 461 1510 841 1510 c 2,9,-1
 1989 1510 l 1,10,-1
 1987 1500 l 1,11,-1
 1890 1360 l 1,12,-1
 1397 1360 l 1,13,-1
 1284 830 l 1,14,-1
 1844 830 l 1,15,-1
 1842 820 l 1,16,-1
 1746 680 l 1,17,-1
 1253 680 l 1,18,-1
 1140 150 l 1,19,-1
 1750 150 l 1,20,-1
 1748 140 l 1,21,-1
 1651 0 l 1,0,-1
1077 1360 m 1,22,-1
 829 1360 l 2,23,24
 749 1360 749 1360 734 1289 c 2,25,-1
 636 830 l 1,26,-1
 964 830 l 1,27,-1
 1077 1360 l 1,22,-1
EndSplineSet
Validated: 1
EndChar

StartChar: Eth
Encoding: 208 208 195
Width: 1390
Flags: W
HStem: 0 150<512 969.548> 680 150<243 305 656 883> 1360 150<769 1206.7>
DStem2: 160 0 480.117 0 0.207912 0.978148<219.907 695.288 914.987 1413.9> 940.025 0 1270.23 0 0.207912 0.978148<226.599 1331.39>
CounterMasks: 1 e0
LayerCount: 2
Fore
SplineSet
160 0 m 5,0,-1
 305 680 l 5,1,-1
 145 680 l 5,2,-1
 147 690 l 5,3,-1
 243 830 l 5,4,-1
 336 830 l 5,5,-1
 454 1383 l 5,6,-1
 749 1510 l 5,7,-1
 1151 1510 l 6,8,9
 1522 1510 1522 1510 1522 1239 c 4,10,11
 1522 1189 1522 1189 1510 1130 c 6,12,-1
 1351 380 l 6,13,14
 1270 0 1270 0 890 0 c 6,15,-1
 160 0 l 5,0,-1
512 150 m 5,16,-1
 892 150 l 6,17,18
 972 150 972 150 987 221 c 6,19,-1
 1214 1289 l 6,20,21
 1216 1300 1216 1300 1216 1310 c 4,22,23
 1216 1360 1216 1360 1149 1360 c 6,24,-1
 769 1360 l 5,25,-1
 656 830 l 5,26,-1
 981 830 l 5,27,-1
 979 820 l 5,28,-1
 883 680 l 5,29,-1
 625 680 l 5,30,-1
 512 150 l 5,16,-1
EndSplineSet
Validated: 1
EndChar

StartChar: Dcroat
Encoding: 272 272 196
Width: 1390
Flags: W
HStem: 0 150<512 969.548> 680 150<243 305 656 883> 1360 150<769 1206.7>
DStem2: 160 0 480.117 0 0.207912 0.978148<219.907 695.288 914.987 1413.9> 940.025 0 1270.23 0 0.207912 0.978148<226.599 1331.39>
CounterMasks: 1 e0
LayerCount: 2
Fore
SplineSet
160 0 m 5,0,-1
 305 680 l 5,1,-1
 145 680 l 5,2,-1
 147 690 l 5,3,-1
 243 830 l 5,4,-1
 336 830 l 5,5,-1
 454 1383 l 5,6,-1
 749 1510 l 5,7,-1
 1151 1510 l 6,8,9
 1522 1510 1522 1510 1522 1239 c 4,10,11
 1522 1189 1522 1189 1510 1130 c 6,12,-1
 1351 380 l 6,13,14
 1270 0 1270 0 890 0 c 6,15,-1
 160 0 l 5,0,-1
512 150 m 5,16,-1
 892 150 l 6,17,18
 972 150 972 150 987 221 c 6,19,-1
 1214 1289 l 6,20,21
 1216 1300 1216 1300 1216 1310 c 4,22,23
 1216 1360 1216 1360 1149 1360 c 6,24,-1
 769 1360 l 5,25,-1
 656 830 l 5,26,-1
 981 830 l 5,27,-1
 979 820 l 5,28,-1
 883 680 l 5,29,-1
 625 680 l 5,30,-1
 512 150 l 5,16,-1
EndSplineSet
Validated: 1
EndChar

StartChar: Hbar
Encoding: 294 294 197
Width: 1440
Flags: W
HStem: -20 21G<156 212.395 956 1012.39> 680 150<656 1105> 1212 150<387 418 770 1218 1570 1601> 1510 20G<748.605 805 1548.61 1605>
DStem2: 156 -20 475.754 -20 0.207912 0.978148<216.765 782.214 935.381 1259.55> 956 -20 1275.75 -20 0.207912 0.978148<216.765 715.682 868.85 1259.55>
LayerCount: 2
Fore
SplineSet
166 -20 m 1,0,-1
 156 -20 l 1,1,-1
 418 1212 l 1,2,-1
 288 1212 l 1,3,-1
 290 1222 l 1,4,-1
 387 1362 l 1,5,-1
 450 1362 l 1,6,-1
 454 1383 l 1,7,-1
 795 1530 l 1,8,-1
 805 1530 l 1,9,-1
 770 1362 l 1,10,-1
 1250 1362 l 1,11,-1
 1254 1383 l 1,12,-1
 1595 1530 l 1,13,-1
 1605 1530 l 1,14,-1
 1570 1362 l 1,15,-1
 1700 1362 l 1,16,-1
 1697 1352 l 1,17,-1
 1601 1212 l 1,18,-1
 1538 1212 l 1,19,-1
 1307 127 l 1,20,-1
 966 -20 l 1,21,-1
 956 -20 l 1,22,-1
 1105 680 l 1,23,-1
 625 680 l 1,24,-1
 507 127 l 1,25,-1
 166 -20 l 1,0,-1
738 1212 m 1,26,-1
 656 830 l 1,27,-1
 1136 830 l 1,28,-1
 1218 1212 l 1,29,-1
 738 1212 l 1,26,-1
EndSplineSet
Validated: 1
EndChar

StartChar: IJ
Encoding: 306 306 198
Width: 1831
Flags: W
HStem: -20 21G<156 212.395> 0 150<1046.95 1421.33> 1360 150<1134 1680> 1510 20G<748.605 805>
VStem: 741 300<154.629 398.837>
DStem2: 156 -20 475.754 -20 0.207912 0.978148<216.765 1434.3> 1386.77 -20 1706.98 -20 0.207912 0.978148<244.967 1410.81>
LayerCount: 2
Fore
SplineSet
1331 0 m 2,0,-1
 1101 0 l 2,1,2
 741 0 741 0 741 280 c 0,3,4
 741 332 741 332 754 393 c 1,5,-1
 1101 542 l 1,6,-1
 1111 542 l 1,7,-1
 1043 221 l 2,8,9
 1041 212 1041 212 1041 200 c 0,10,11
 1041 150 1041 150 1108 150 c 2,12,-1
 1343 150 l 2,13,14
 1423 150 1423 150 1438 221 c 2,15,-1
 1680 1360 l 1,16,-1
 1035 1360 l 1,17,-1
 1037 1370 l 1,18,-1
 1134 1510 l 1,19,-1
 2032 1510 l 1,20,-1
 1792 380 l 2,21,22
 1711 0 1711 0 1331 0 c 2,0,-1
166 -20 m 1,23,-1
 156 -20 l 1,24,-1
 454 1383 l 1,25,-1
 795 1530 l 1,26,-1
 805 1530 l 1,27,-1
 507 127 l 1,28,-1
 166 -20 l 1,23,-1
EndSplineSet
Validated: 1
EndChar

StartChar: lslash
Encoding: 322 322 199
Width: 766
Flags: W
HStem: -20 21G<229 285.232> 1510 20G<801.768 858>
DStem2: 199 701 170 546 0.920967 0.38964<0 126.668 576.703 703.371> 229 -20 528.667 -20 0.207912 0.978148<203.387 663.51 823.94 868.853 1029.49 1443.52>
LayerCount: 2
Fore
SplineSet
239 -20 m 1,0,-1
 229 -20 l 1,1,-1
 367 629 l 1,2,-1
 170 546 l 1,3,-1
 168 555 l 1,4,-1
 199 701 l 1,5,-1
 400 786 l 1,6,-1
 529 1392 l 1,7,-1
 848 1530 l 1,8,-1
 858 1530 l 1,9,-1
 730 926 l 1,10,-1
 926 1009 l 1,11,-1
 929 1000 l 1,12,-1
 898 854 l 1,13,-1
 696 769 l 1,14,-1
 558 118 l 1,15,-1
 239 -20 l 1,0,-1
EndSplineSet
Validated: 1
EndChar

StartChar: Lslash
Encoding: 321 321 200
Width: 1100
Flags: W
HStem: 0 150<512 1023> 1510 20G<748.288 805>
DStem2: 160 0 480.117 0 0.207912 0.978148<219.907 585.844 754.515 804.565 973.444 1414.88> 669 887 633 722 0.920967 0.38964<0 220.713>
LayerCount: 2
Fore
SplineSet
160 0 m 1,0,-1
 282 573 l 1,1,-1
 198 538 l 1,2,-1
 196 547 l 1,3,-1
 229 701 l 1,4,-1
 317 738 l 1,5,-1
 454 1384 l 1,6,-1
 795 1530 l 1,7,-1
 805 1530 l 1,8,-1
 669 887 l 1,9,-1
 956 1009 l 1,10,-1
 959 1000 l 1,11,-1
 926 846 l 1,12,-1
 633 722 l 1,13,-1
 512 150 l 1,14,-1
 1122 150 l 1,15,-1
 1120 140 l 1,16,-1
 1023 0 l 1,17,-1
 160 0 l 1,0,-1
EndSplineSet
Validated: 1
EndChar

StartChar: Eng
Encoding: 330 330 201
Width: 1409
Flags: W
HStem: -410 150<658 893.328> -20 21G<136 192.395> 1360 150<750.672 1217.3>
DStem2: 53.1029 -410 372.857 -410 0.207912 0.978148<615.478 1804.86> 863.025 -410 1183.23 -410 0.207912 0.978148<224.52 1748.44>
LayerCount: 2
Fore
SplineSet
146 -20 m 1,0,-1
 136 -20 l 1,1,-1
 380 1130 l 2,2,3
 461 1510 461 1510 841 1510 c 2,4,-1
 1151 1510 l 2,5,6
 1522 1510 1522 1510 1522 1239 c 0,7,8
 1522 1189 1522 1189 1510 1130 c 2,9,-1
 1264 -30 l 2,10,11
 1183 -410 1183 -410 803 -410 c 2,12,-1
 559 -410 l 1,13,-1
 561 -400 l 1,14,-1
 658 -260 l 1,15,-1
 815 -260 l 2,16,17
 895 -260 895 -260 910 -189 c 2,18,-1
 1224 1289 l 2,19,20
 1226 1300 1226 1300 1226 1310 c 0,21,22
 1226 1360 1226 1360 1159 1360 c 2,23,-1
 829 1360 l 2,24,25
 749 1360 749 1360 734 1289 c 2,26,-1
 487 127 l 1,27,-1
 146 -20 l 1,0,-1
EndSplineSet
Validated: 1
EndChar

StartChar: OE
Encoding: 338 338 202
Width: 1714
Flags: W
HStem: 0 150<493.698 806 1126 1637> 680 150<1270 1732> 1360 150<730.672 1063 1383 1876>
VStem: 189 296<152.098 418.203>
DStem2: 120.229 0 440.025 0 0.207912 0.978148<280.908 1385.7> 774.117 0 1094.12 0 0.207912 0.978148<219.883 761.795 914.962 1390.34>
CounterMasks: 1 e0
LayerCount: 2
Fore
SplineSet
806 150 m 1,0,-1
 1063 1360 l 1,1,-1
 809 1360 l 2,2,3
 729 1360 729 1360 714 1289 c 2,4,-1
 487 221 l 2,5,6
 485 210 485 210 485 200 c 0,7,8
 485 150 485 150 552 150 c 2,9,-1
 806 150 l 1,0,-1
560 0 m 2,10,11
 189 0 189 0 189 271 c 0,12,13
 189 321 189 321 201 380 c 2,14,-1
 360 1130 l 2,15,16
 441 1510 441 1510 821 1510 c 2,17,-1
 1975 1510 l 1,18,-1
 1973 1500 l 1,19,-1
 1876 1360 l 1,20,-1
 1383 1360 l 1,21,-1
 1270 830 l 1,22,-1
 1830 830 l 1,23,-1
 1828 820 l 1,24,-1
 1732 680 l 1,25,-1
 1239 680 l 1,26,-1
 1126 150 l 1,27,-1
 1736 150 l 1,28,-1
 1734 140 l 1,29,-1
 1637 0 l 1,30,-1
 560 0 l 2,10,11
EndSplineSet
Validated: 1
EndChar

StartChar: Thorn
Encoding: 222 222 203
Width: 1250
Flags: W
HStem: -20 21G<156 212.395> 220 150<559 956.365> 1140 150<754 1099.7> 1510 20G<748.605 805>
VStem: 1109 306<871.297 1136.78>
DStem2: 156 -20 475.754 -20 0.207912 0.978148<216.765 311.891 465.266 1252.33 1405.7 1434.3> 876.011 -20 1205.51 -20 0.207912 0.978148<475.326 1122.85>
LayerCount: 2
Fore
SplineSet
559 370 m 1,0,-1
 879 370 l 2,1,2
 959 370 959 370 974 441 c 2,3,-1
 1107 1069 l 2,4,5
 1109 1080 1109 1080 1109 1090 c 0,6,7
 1109 1140 1109 1140 1042 1140 c 2,8,-1
 722 1140 l 1,9,-1
 559 370 l 1,0,-1
166 -20 m 1,10,-1
 156 -20 l 1,11,-1
 454 1383 l 1,12,-1
 795 1530 l 1,13,-1
 805 1530 l 1,14,-1
 754 1290 l 1,15,-1
 1044 1290 l 2,16,17
 1415 1290 1415 1290 1415 1015 c 0,18,19
 1415 963 1415 963 1402 902 c 2,20,-1
 1339 608 l 2,21,22
 1256 220 1256 220 877 220 c 2,23,-1
 527 220 l 1,24,-1
 507 127 l 1,25,-1
 166 -20 l 1,10,-1
EndSplineSet
Validated: 1
EndChar

StartChar: Tbar
Encoding: 358 358 204
Width: 1190
Flags: W
HStem: -20 21G<431 487.712> 431 150<430 527 878 975> 1360 150<398 724 1044 1402>
DStem2: 431 -20 750.967 -20 0.207912 0.978148<215.787 461.104 680.803 1410.76>
LayerCount: 2
Fore
SplineSet
441 -20 m 1,0,-1
 431 -20 l 1,1,-1
 527 431 l 1,2,-1
 332 431 l 1,3,-1
 334 441 l 1,4,-1
 430 581 l 1,5,-1
 558 581 l 1,6,-1
 724 1360 l 1,7,-1
 299 1360 l 1,8,-1
 301 1370 l 1,9,-1
 398 1510 l 1,10,-1
 1501 1510 l 1,11,-1
 1499 1500 l 1,12,-1
 1402 1360 l 1,13,-1
 1044 1360 l 1,14,-1
 878 581 l 1,15,-1
 1073 581 l 1,16,-1
 1071 571 l 1,17,-1
 975 431 l 1,18,-1
 847 431 l 1,19,-1
 782 126 l 1,20,-1
 441 -20 l 1,0,-1
EndSplineSet
Validated: 1
EndChar

StartChar: tbar
Encoding: 359 359 205
Width: 890
Flags: W
HStem: -20 21G<296 352.26> 436 140<279 393 707 826> 960 140<306 504 819 1022> 1510 20G<853.74 910>
DStem2: 296 -20 581.155 -20 0.207912 0.978148<193.214 466.203 668.428 1001.83 1204.26 1450.57>
LayerCount: 2
Fore
SplineSet
306 -20 m 1,0,-1
 296 -20 l 1,1,-1
 393 436 l 1,2,-1
 188 436 l 1,3,-1
 190 446 l 1,4,-1
 279 576 l 1,5,-1
 422 576 l 1,6,-1
 504 960 l 1,7,-1
 214 960 l 1,8,-1
 216 970 l 1,9,-1
 306 1100 l 1,10,-1
 534 1100 l 1,11,-1
 597 1399 l 1,12,-1
 900 1530 l 1,13,-1
 910 1530 l 1,14,-1
 819 1100 l 1,15,-1
 1114 1100 l 1,16,-1
 1112 1090 l 1,17,-1
 1022 960 l 1,18,-1
 789 960 l 1,19,-1
 707 576 l 1,20,-1
 917 576 l 1,21,-1
 915 566 l 1,22,-1
 826 436 l 1,23,-1
 678 436 l 1,24,-1
 609 111 l 1,25,-1
 306 -20 l 1,0,-1
EndSplineSet
Validated: 1
EndChar

StartChar: thorn
Encoding: 254 254 206
Width: 1230
Flags: W
HStem: -430 21G<69 125.232> 0 140<496.859 836.999> 960 140<693.656 993.38> 1510 20G<728.768 785>
VStem: 998 291<725.219 959.514>
DStem2: 69 -430 368.667 -430 0.207912 0.978148<203.387 511.797 670.929 1492.49 1620.43 1862.65> 708.986 -430 1019.04 -430 0.207912 0.978148<617.398 1395.11>
LayerCount: 2
Fore
SplineSet
704 960 m 2,0,1
 664 960 664 960 657 925 c 2,2,-1
 497 175 l 2,3,4
 496 170 496 170 496 165 c 0,5,6
 496 140 496 140 530 140 c 2,7,-1
 790 140 l 2,8,9
 830 140 830 140 837 175 c 2,10,-1
 997 925 l 2,11,12
 998 930 998 930 998 935 c 0,13,14
 998 960 998 960 964 960 c 2,15,-1
 704 960 l 2,0,1
800 0 m 2,16,-1
 530 0 l 2,17,18
 480 0 480 0 461 6 c 1,19,-1
 398 -292 l 1,20,-1
 79 -430 l 1,21,-1
 69 -430 l 1,22,-1
 456 1392 l 1,23,-1
 775 1530 l 1,24,-1
 785 1530 l 1,25,-1
 693 1094 l 1,26,27
 714 1100 714 1100 734 1100 c 2,28,-1
 974 1100 l 2,29,30
 1289 1100 1289 1100 1289 878 c 0,31,32
 1289 839 1289 839 1279 793 c 2,33,-1
 1175 307 l 2,34,35
 1109 0 1109 0 800 0 c 2,16,-1
EndSplineSet
Validated: 1
EndChar

StartChar: eth
Encoding: 240 240 207
Width: 1190
Flags: W
HStem: 0 140<470.62 796.999> 960 140<627.001 899> 1510 20G<792.048 862.227 1098.78 1148>
VStem: 175 291<140.486 374.781> 958 291<725.219 958.972>
DStem2: 119.745 0 429.803 0 0.207912 0.978148<233.538 1011.25> 598 1298 569 1143 0.920874 0.389859<0 129.077 374.413 507.953> 760.385 0 1070.44 0 0.207912 0.978148<177.792 955.502>
LayerCount: 2
Fore
SplineSet
750 140 m 2,0,1
 790 140 790 140 797 175 c 2,2,-1
 957 925 l 2,3,4
 958 930 958 930 958 935 c 0,5,6
 958 960 958 960 924 960 c 2,7,-1
 674 960 l 2,8,9
 634 960 634 960 627 925 c 2,10,-1
 467 175 l 2,11,12
 466 170 466 170 466 165 c 0,13,14
 466 140 466 140 500 140 c 2,15,-1
 750 140 l 2,0,1
760 0 m 2,16,-1
 490 0 l 2,17,18
 175 0 175 0 175 222 c 0,19,20
 175 261 175 261 185 307 c 2,21,-1
 289 793 l 2,22,23
 355 1100 355 1100 664 1100 c 2,24,-1
 899 1100 l 1,25,-1
 798 1240 l 1,26,-1
 569 1143 l 1,27,-1
 567 1152 l 1,28,-1
 598 1298 l 1,29,-1
 717 1348 l 1,30,-1
 645 1446 l 1,31,-1
 838 1530 l 1,32,-1
 848 1530 l 1,33,-1
 917 1433 l 1,34,-1
 1146 1530 l 1,35,-1
 1148 1521 l 1,36,-1
 1117 1375 l 1,37,-1
 994 1323 l 1,38,-1
 1210 1015 l 2,39,40
 1249 960 1249 960 1249 880 c 0,41,42
 1249 840 1249 840 1239 793 c 2,43,-1
 1135 307 l 2,44,45
 1069 0 1069 0 760 0 c 2,16,-1
EndSplineSet
Validated: 1
EndChar

StartChar: oe
Encoding: 339 339 208
Width: 1777
Flags: W
HStem: 0 140<470.62 796.999 1093.87 1375.43> 960 140<627.001 956.271 1254.67 1540.38>
VStem: 175 291<140.486 374.781> 1545 291<720.562 959.831>
DStem2: 119.745 0 429.803 0 0.207912 0.978148<233.538 1011.25> 759.803 0 1056.8 0 0.207912 0.978148<230.793 426.791 589.385 955.623> 1167 516 1133 357 0.918568 0.395263<0 347.569>
LayerCount: 2
Fore
SplineSet
750 140 m 2,0,1
 790 140 790 140 797 175 c 2,2,-1
 957 925 l 2,3,4
 958 930 958 930 958 935 c 0,5,6
 958 960 958 960 924 960 c 2,7,-1
 674 960 l 2,8,9
 634 960 634 960 627 925 c 2,10,-1
 467 175 l 2,11,12
 466 170 466 170 466 165 c 0,13,14
 466 140 466 140 500 140 c 2,15,-1
 750 140 l 2,0,1
1167 516 m 1,16,-1
 1486 654 l 1,17,-1
 1544 925 l 2,18,19
 1545 930 1545 930 1545 935 c 0,20,21
 1545 960 1545 960 1511 960 c 2,22,-1
 1301 960 l 2,23,24
 1261 960 1261 960 1254 925 c 2,25,-1
 1167 516 l 1,16,-1
1347 0 m 2,26,-1
 1117 0 l 2,27,28
 1009 0 1009 0 942 31 c 1,29,30
 864 0 864 0 760 0 c 2,31,-1
 490 0 l 2,32,33
 175 0 175 0 175 222 c 0,34,35
 175 261 175 261 185 307 c 2,36,-1
 289 793 l 2,37,38
 355 1100 355 1100 664 1100 c 2,39,-1
 934 1100 l 2,40,41
 1038 1100 1038 1100 1102 1069 c 1,42,43
 1183 1100 1183 1100 1291 1100 c 2,44,-1
 1521 1100 l 2,45,46
 1836 1100 1836 1100 1836 879 c 0,47,48
 1836 839 1836 839 1826 793 c 2,49,-1
 1793 641 l 1,50,-1
 1133 357 l 1,51,-1
 1094 175 l 2,52,53
 1093 169 1093 169 1093 165 c 0,54,55
 1093 140 1093 140 1127 140 c 2,56,-1
 1332 140 l 2,57,58
 1372 140 1372 140 1379 175 c 2,59,-1
 1410 320 l 1,60,-1
 1746 465 l 1,61,-1
 1756 465 l 1,62,-1
 1722 307 l 2,63,64
 1656 0 1656 0 1347 0 c 2,26,-1
EndSplineSet
Validated: 1
EndChar

StartChar: eng
Encoding: 331 331 209
Width: 1230
Flags: W
HStem: -410 140<560 739.942> -20 21G<136 192.232> 960 140<637.058 982.839>
DStem2: 53.1029 -410 352.77 -410 0.207912 0.978148<602.1 1430.2> 702.803 -410 1002.75 -410 0.207912 0.978148<175.931 1374.75>
LayerCount: 2
Fore
SplineSet
146 -20 m 1,0,-1
 136 -20 l 1,1,-1
 309 793 l 2,2,3
 374 1100 374 1100 684 1100 c 2,4,-1
 954 1100 l 2,5,6
 1269 1100 1269 1100 1269 878 c 0,7,8
 1269 839 1269 839 1259 793 c 2,9,-1
 1068 -103 l 2,10,11
 1003 -410 1003 -410 693 -410 c 2,12,-1
 468 -410 l 1,13,-1
 470 -400 l 1,14,-1
 560 -270 l 1,15,-1
 693 -270 l 2,16,17
 733 -270 733 -270 740 -235 c 2,18,-1
 987 925 l 2,19,20
 988 930 988 930 988 935 c 0,21,22
 988 960 988 960 954 960 c 2,23,-1
 684 960 l 2,24,25
 644 960 644 960 637 925 c 2,26,-1
 465 118 l 1,27,-1
 146 -20 l 1,0,-1
EndSplineSet
Validated: 1
EndChar

StartChar: kgreenlandic
Encoding: 312 312 210
Width: 1210
Flags: W
HStem: -20 21G<156 212.232 786 842.232> 1100 20G<641.768 698 1117.47 1199.89>
DStem2: 156 -20 455.667 -20 0.207912 0.978148<203.387 784.042 921.026 1024.39> 634 820 903 817 0.86535 0.501168<231.276 598.602> 786 -20 1085.67 -20 0.207912 0.978148<203.387 686.478>
LayerCount: 2
Fore
SplineSet
903 817 m 1,0,1
 1208 817 1208 817 1208 597 c 0,2,3
 1208 557 1208 557 1198 510 c 2,4,-1
 1115 118 l 1,5,-1
 796 -20 l 1,6,-1
 786 -20 l 1,7,-1
 926 642 l 2,8,9
 927 647 927 647 927 652 c 0,10,11
 927 677 927 677 894 677 c 2,12,-1
 644 677 l 2,13,14
 603 677 603 677 596 642 c 2,15,-1
 485 118 l 1,16,-1
 166 -20 l 1,17,-1
 156 -20 l 1,18,-1
 369 982 l 1,19,-1
 688 1120 l 1,20,-1
 698 1120 l 1,21,-1
 634 820 l 1,22,-1
 1152 1120 l 1,23,-1
 1162 1120 l 1,24,-1
 1306 1044 l 1,25,-1
 903 817 l 1,0,1
EndSplineSet
Validated: 1
EndChar

StartChar: ij
Encoding: 307 307 211
Width: 1220
Flags: W
HStem: -410 140<530 709.942> -20 21G<156 212.232> 1100 20G<641.768 698 1241.77 1298> 1179 365<511.097 687.323 1111.1 1287.32>
DStem2: 73.1029 -410 372.77 -410 0.207912 0.978148<602.1 1423.1> 672.803 -410 972.745 -410 0.207912 0.978148<175.931 1423.16>
LayerCount: 2
Fore
SplineSet
1288 1120 m 1,0,-1
 1298 1120 l 1,1,-1
 1038 -103 l 2,2,3
 973 -410 973 -410 663 -410 c 2,4,-1
 438 -410 l 1,5,-1
 440 -400 l 1,6,-1
 530 -270 l 1,7,-1
 663 -270 l 2,8,9
 703 -270 703 -270 710 -235 c 2,10,-1
 969 982 l 1,11,-1
 1288 1120 l 1,0,-1
638 1544 m 0,12,13
 714 1544 714 1544 755 1491 c 0,14,15
 784 1453 784 1453 784 1402 c 0,16,17
 784 1383 784 1383 780 1362 c 0,18,19
 764 1287 764 1287 699.5 1233 c 128,-1,20
 635 1179 635 1179 561 1179 c 0,21,22
 485 1179 485 1179 445 1233 c 0,23,24
 415 1272 415 1272 415 1322 c 0,25,26
 415 1341 415 1341 419 1361 c 0,27,28
 435 1437 435 1437 499 1490 c 0,29,30
 563 1544 563 1544 638 1544 c 0,12,13
1238 1544 m 0,31,32
 1314 1544 1314 1544 1355 1491 c 0,33,34
 1384 1453 1384 1453 1384 1402 c 0,35,36
 1384 1383 1384 1383 1380 1362 c 0,37,38
 1364 1287 1364 1287 1299.5 1233 c 128,-1,39
 1235 1179 1235 1179 1161 1179 c 0,40,41
 1085 1179 1085 1179 1045 1233 c 0,42,43
 1015 1272 1015 1272 1015 1322 c 0,44,45
 1015 1341 1015 1341 1019 1361 c 0,46,47
 1035 1437 1035 1437 1099 1490 c 0,48,49
 1163 1544 1163 1544 1238 1544 c 0,31,32
166 -20 m 1,50,-1
 156 -20 l 1,51,-1
 369 982 l 1,52,-1
 688 1120 l 1,53,-1
 698 1120 l 1,54,-1
 485 118 l 1,55,-1
 166 -20 l 1,50,-1
EndSplineSet
Validated: 1
EndChar

StartChar: hbar
Encoding: 295 295 212
Width: 1250
Flags: W
HStem: -20 21G<156 212.232 806 862.232> 960 140<692.564 1002.84> 1217 140<380 419 748 887> 1510 20G<728.768 785>
DStem2: 156 -20 455.667 -20 0.207912 0.978148<203.387 1073.4 1200.12 1264.65> 806 -20 1105.67 -20 0.207912 0.978148<203.387 975.976>
LayerCount: 2
Fore
SplineSet
166 -20 m 1,0,-1
 156 -20 l 1,1,-1
 419 1217 l 1,2,-1
 289 1217 l 1,3,-1
 291 1227 l 1,4,-1
 380 1357 l 1,5,-1
 448 1357 l 1,6,-1
 456 1392 l 1,7,-1
 775 1530 l 1,8,-1
 785 1530 l 1,9,-1
 748 1357 l 1,10,-1
 978 1357 l 1,11,-1
 976 1347 l 1,12,-1
 887 1217 l 1,13,-1
 719 1217 l 1,14,-1
 692 1093 l 1,15,16
 710 1100 710 1100 734 1100 c 2,17,-1
 974 1100 l 2,18,19
 1289 1100 1289 1100 1289 878 c 0,20,21
 1289 840 1289 840 1279 793 c 2,22,-1
 1135 118 l 1,23,-1
 816 -20 l 1,24,-1
 806 -20 l 1,25,-1
 1007 925 l 2,26,27
 1008 930 1008 930 1008 935 c 0,28,29
 1008 960 1008 960 974 960 c 2,30,-1
 704 960 l 2,31,32
 664 960 664 960 657 925 c 2,33,-1
 485 118 l 1,34,-1
 166 -20 l 1,0,-1
EndSplineSet
Validated: 1
EndChar

StartChar: longs
Encoding: 383 383 213
Width: 940
Flags: W
HStem: -20 21G<216 272.232> 732 140<257 376> 1370 140<804.202 1159>
DStem2: 216 -20 515.667 -20 0.207912 0.978148<203.387 768.833 911.803 1450.72>
LayerCount: 2
Fore
SplineSet
226 -20 m 1,0,-1
 216 -20 l 1,1,-1
 376 732 l 1,2,-1
 166 732 l 1,3,-1
 168 742 l 1,4,-1
 257 872 l 1,5,-1
 405 872 l 1,6,-1
 476 1203 l 2,7,8
 542 1510 542 1510 851 1510 c 2,9,-1
 1251 1510 l 1,10,-1
 1249 1500 l 1,11,-1
 1159 1370 l 1,12,-1
 851 1370 l 2,13,14
 811 1370 811 1370 804 1335 c 2,15,-1
 545 118 l 1,16,-1
 226 -20 l 1,0,-1
EndSplineSet
Validated: 1
EndChar

StartChar: florin
Encoding: 402 402 214
Width: 880
Flags: W
HStem: -410 140<-70 109.942> 732 140<645 925> 1370 140<744.058 1099>
DStem2: 73.1463 -410 373.26 -410 0.207912 0.978148<175.86 1229.91 1372.88 1849.32>
LayerCount: 2
Fore
SplineSet
-162 -410 m 1,0,-1
 -160 -400 l 1,1,-1
 -70 -270 l 1,2,-1
 63 -270 l 2,3,4
 103 -270 103 -270 110 -235 c 2,5,-1
 416 1203 l 2,6,7
 481 1510 481 1510 791 1510 c 2,8,-1
 1191 1510 l 1,9,-1
 1189 1500 l 1,10,-1
 1099 1370 l 1,11,-1
 791 1370 l 2,12,13
 751 1370 751 1370 744 1335 c 2,14,-1
 645 872 l 1,15,-1
 1016 872 l 1,16,-1
 1014 862 l 1,17,-1
 925 732 l 1,18,-1
 616 732 l 1,19,-1
 438 -103 l 2,20,21
 373 -410 373 -410 63 -410 c 2,22,-1
 -162 -410 l 1,0,-1
EndSplineSet
Validated: 1
EndChar

StartChar: dcroat
Encoding: 273 273 215
Width: 1210
Flags: W
HStem: 0 140<470.62 806.942> 960 140<627.001 967.141> 1217 140<890 1029 1358 1367> 1510 20G<1338.77 1395>
VStem: 175 291<140.486 374.781>
DStem2: 119.745 0 429.803 0 0.207912 0.978148<233.538 1011.25> 770.385 0 1070.32 0 0.207912 0.978148<175.81 955.502 1114.63 1244.17>
LayerCount: 2
Fore
SplineSet
760 140 m 2,0,1
 800 140 800 140 807 175 c 2,2,-1
 967 925 l 2,3,4
 968 930 968 930 968 935 c 0,5,6
 968 960 968 960 934 960 c 2,7,-1
 674 960 l 2,8,9
 634 960 634 960 627 925 c 2,10,-1
 467 175 l 2,11,12
 466 170 466 170 466 165 c 0,13,14
 466 140 466 140 500 140 c 2,15,-1
 760 140 l 2,0,1
760 0 m 2,16,-1
 490 0 l 2,17,18
 175 0 175 0 175 222 c 0,19,20
 175 260 175 260 185 307 c 2,21,-1
 289 793 l 2,22,23
 355 1100 355 1100 664 1100 c 2,24,-1
 934 1100 l 2,25,26
 984 1100 984 1100 1003 1094 c 1,27,-1
 1029 1217 l 1,28,-1
 799 1217 l 1,29,-1
 801 1227 l 1,30,-1
 890 1357 l 1,31,-1
 1058 1357 l 1,32,-1
 1066 1392 l 1,33,-1
 1385 1530 l 1,34,-1
 1395 1530 l 1,35,-1
 1358 1357 l 1,36,-1
 1458 1357 l 1,37,-1
 1456 1347 l 1,38,-1
 1367 1217 l 1,39,-1
 1329 1217 l 1,40,-1
 1135 307 l 2,41,42
 1070 0 1070 0 760 0 c 2,16,-1
EndSplineSet
Validated: 1
EndChar

StartChar: germandbls
Encoding: 223 223 216
Width: 1219
Flags: W
HStem: -20 21G<136 192.232> 0 140<567 906.793> 751 140<725 987.359> 1370 140<724.058 1069.75>
VStem: 1022 307<513.078 749.82> 1074 281<1129.91 1369.83>
DStem2: 136 -20 435.667 -20 0.207912 0.978148<203.387 1450.62> 864.558 -20 1174.74 -20 0.207912 0.978148<198.456 762.279>
LayerCount: 2
Fore
SplineSet
869 0 m 2,0,-1
 475 0 l 17,1,-1
 477 10 l 1,2,-1
 567 140 l 9,3,-1
 859 140 l 2,4,5
 899 140 899 140 906 175 c 2,6,-1
 1021 716 l 2,7,8
 1022 721 1022 721 1022 726 c 0,9,10
 1022 751 1022 751 989 751 c 2,11,-1
 634 751 l 17,12,-1
 636 761 l 1,13,-1
 725 891 l 1,14,-1
 938 891 l 2,15,16
 979 891 979 891 986 926 c 2,17,-1
 1073 1335 l 2,18,19
 1074 1340 1074 1340 1074 1345 c 0,20,21
 1074 1370 1074 1370 1040 1370 c 2,22,-1
 771 1370 l 2,23,24
 731 1370 731 1370 724 1335 c 2,25,-1
 465 118 l 1,26,-1
 146 -20 l 1,27,-1
 136 -20 l 1,28,-1
 396 1203 l 2,29,30
 461 1510 461 1510 771 1510 c 2,31,-1
 1041 1510 l 2,32,33
 1355 1510 1355 1510 1355 1289 c 0,34,35
 1355 1250 1355 1250 1345 1203 c 2,36,-1
 1317 1072 l 2,37,38
 1296 974 1296 974 1245 916 c 1,39,40
 1329 862 1329 862 1329 745 c 0,41,42
 1329 703 1329 703 1318 654 c 2,43,-1
 1244 307 l 2,44,45
 1179 0 1179 0 869 0 c 2,0,-1
EndSplineSet
Validated: 1
EndChar

StartChar: ae
Encoding: 230 230 217
Width: 1662
Flags: W
HStem: -20 21G<651 707.182> 0 140<401.559 655.375 979.808 1260.43> 580 140<476.559 776.452> 960 140<491 850.211 1139.04 1425.38>
DStem2: 656.189 -20 937.551 -20 0.207912 0.978148<247.988 443.986 746.321 976.853> 1052 516 1018 357 0.918568 0.395263<0 347.569>
LayerCount: 2
Fore
SplineSet
1232 0 m 2,0,-1
 1002 0 l 2,1,2
 857 0 857 0 788 35 c 1,3,-1
 661 -20 l 1,4,-1
 651 -20 l 1,5,-1
 656 7 l 1,6,7
 636 0 636 0 615 0 c 2,8,-1
 421 0 l 2,9,10
 105 0 105 0 105 220 c 0,11,12
 105 260 105 260 116 308 c 2,13,-1
 139 412 l 2,14,15
 207 720 207 720 514 720 c 2,16,-1
 738 720 l 2,17,18
 787 720 787 720 807 713 c 1,19,-1
 852 925 l 2,20,21
 853 932 853 932 853 937 c 0,22,23
 853 960 853 960 829 960 c 2,24,-1
 399 960 l 1,25,-1
 401 970 l 1,26,-1
 491 1100 l 1,27,-1
 819 1100 l 2,28,29
 922 1100 922 1100 985 1068 c 1,30,31
 1066 1100 1066 1100 1176 1100 c 2,32,-1
 1406 1100 l 2,33,34
 1721 1100 1721 1100 1721 879 c 0,35,36
 1721 839 1721 839 1711 793 c 2,37,-1
 1678 641 l 1,38,-1
 1018 357 l 1,39,-1
 979 175 l 2,40,41
 978 169 978 169 978 165 c 0,42,43
 978 140 978 140 1012 140 c 2,44,-1
 1217 140 l 2,45,46
 1257 140 1257 140 1264 175 c 2,47,-1
 1295 320 l 1,48,-1
 1631 465 l 1,49,-1
 1641 465 l 1,50,-1
 1607 307 l 2,51,52
 1541 0 1541 0 1232 0 c 2,0,-1
398 172 m 2,53,54
 397 167 397 167 397 163 c 0,55,56
 397 140 397 140 431 140 c 2,57,-1
 650 140 l 2,58,59
 690 140 690 140 697 172 c 2,60,-1
 776 548 l 2,61,62
 777 553 777 553 777 557 c 0,63,64
 777 580 777 580 743 580 c 2,65,-1
 524 580 l 2,66,67
 484 580 484 580 477 548 c 2,68,-1
 398 172 l 2,53,54
1052 516 m 1,69,-1
 1371 654 l 1,70,-1
 1429 925 l 2,71,72
 1430 930 1430 930 1430 935 c 0,73,74
 1430 960 1430 960 1396 960 c 2,75,-1
 1186 960 l 2,76,77
 1146 960 1146 960 1139 925 c 2,78,-1
 1052 516 l 1,69,-1
EndSplineSet
Validated: 1
EndChar

StartChar: S
Encoding: 83 83 218
Width: 1150
Flags: W
HStem: 0 150<405.797 799.158> 758 151<643.697 908.854> 1370 140<724.227 967.688>
VStem: 99 300<153.486 387.97> 914 311<490.641 753.211> 972 296<1242.43 1366.39>
DStem2: 764.875 0 1099.59 0 0.207912 0.978148<228.746 718.131>
LayerCount: 2
Fore
SplineSet
720 0 m 2,0,1
 460 0 l 2,2,3
 99 0 99 0 99 276 c 0,4,5
 99 325 99 325 111 383 c 1,6,-1
 458 533 l 1,7,-1
 468 533 l 1,8,-1
 401 217 l 2,9,10
 399 208 399 208 399 199 c 0,11,12
 399 150 399 150 467 150 c 2,13,-1
 717 150 l 2,14,15
 797 150 797 150 811 217 c 2,16,-1
 912 691 l 2,17,18
 914 700 914 700 914 709 c 0,19,20
 914 758 914 758 846 758 c 2,21,-1
 664 758 l 2,22,23
 334 758 334 758 334 997 c 0,24,25
 334 1044 334 1044 346 1098 c 2,26,-1
 362 1170 l 2,27,28
 438 1510 438 1510 764 1510 c 2,29,-1
 948 1510 l 2,30,31
 1268 1510 1268 1510 1268 1265 c 0,32,33
 1268 1223 1268 1223 1258 1175 c 1,34,-1
 921 1029 l 1,35,-1
 911 1029 l 1,36,-1
 970 1308 l 2,37,38
 972 1317 972 1317 972 1324 c 0,39,40
 972 1370 972 1370 903 1370 c 2,41,-1
 809 1370 l 2,42,43
 729 1370 729 1370 715 1304 c 2,44,-1
 645 975 l 2,45,46
 643 966 643 966 643 957 c 0,47,48
 643 909 643 909 711 909 c 2,49,-1
 853 909 l 2,50,51
 1225 909 1225 909 1225 638 c 0,52,53
 1225 586 1225 586 1212 526 c 2,54,-1
 1181 383 l 2,55,56
 1098 0 1098 0 720 0 c 2,0,1
EndSplineSet
Validated: 1
EndChar

